<?xml version="1.0" encoding="UTF-8"?>
<svg id="Calque_2" data-name="Calque 2" xmlns="http://www.w3.org/2000/svg" viewBox="0 0 1524.56 248.36">
  <defs>
    <style>
      .cls-1 {
        letter-spacing: .06em;
      }

      .cls-2 {
        font-family: GalliardStd-Roman, 'ITC Galliard Std';
        font-size: 55.97px;
      }

      .cls-2, .cls-3, .cls-4 {
        fill: #FFFFF6;
      }

      .cls-5 {
        letter-spacing: .02em;
      }

      .cls-6 {
        letter-spacing: .06em;
      }

      .cls-3 {
        font-family: Bodoni-Book, Bodoni;
        font-size: 169px;
        letter-spacing: .06em;
      }

      .cls-4 {
        stroke-width: 0px;
      }
    </style>
  </defs>
  <g id="Calque_1-2" data-name="Calque 1">
    <path class="cls-4" d="M55.81,180.78c-1.59.07-3.15.34-4.69.72-3.44.85-6.51,2.44-9.11,4.83-1.56,1.43-2.98,3.01-4.48,4.51-1.18,1.18-2.31,2.42-3.58,3.48-1,.83-2.15,1.55-3.33,2.11-2.21,1.05-4.45.89-6.62-.24-.15-.08-.31-.16-.46-.25-4.41-2.6-5.79-6.69-3.86-11.42.74-1.82,1.77-3.47,3.07-4.93,8.07-9.04,15.23-18.79,22.35-28.56,3.36-4.61,6.86-9.11,10.03-13.84,3.83-5.71,7.36-11.62,11.02-17.44.79-1.26,1.56-2.53,2.41-3.91-.32-.04-.54-.1-.75-.08-5.2.3-10.41.6-15.61.93-1.47.09-2.92.03-4.33-.41-3.64-1.14-5.09-5.11-3.02-8.32,1.3-2.02,3.21-3.24,5.51-3.86,4.84-1.3,9.34-3.36,13.58-6,4.38-2.73,8.36-5.99,12.15-9.47,1.6-1.47,3.36-2.69,5.4-3.48,1.34-.52,2.72-.81,4.17-.77,2.36.06,4.25,1.03,5.56,2.97.61.91,1,1.97,1.47,2.97.51,1.1.91,2.26,1.52,3.3.96,1.63,2.22,2.17,3.98,1.52,2.76-1.01,5.63-1.48,8.48-2.07,7.21-1.49,12.97-5.32,17.47-11.11,2.34-3,4.3-6.24,6.08-9.58,2.04-3.83,3.99-7.71,6.07-11.52,5.35-9.79,11.56-18.99,19-27.33.09-.1.16-.21.41-.54-.57.15-.91.22-1.24.32-7.23,2.21-13.73,5.8-19.71,10.4-4.95,3.81-9.39,8.15-13.65,12.7-.88.94-1.75,1.9-2.71,2.74-.72.63-1.56,1.17-2.42,1.6-1.19.58-2.47.48-3.39-.48-2.69-2.81-4.7-5.95-4.29-10.1.19-1.89,1.04-3.52,2.14-5.02,2.1-2.87,4.49-5.48,7.12-7.88,3.37-3.08,7.03-5.78,10.82-8.32,3.35-2.24,6.72-4.45,10.08-6.68,1.04-.69,2.09-1.37,3.09-2.13,5.14-3.9,10.74-7.04,16.49-9.95,5.05-2.56,10.11-5.09,14.98-8.01,2.05-1.23,4.3-1.94,6.69-2.15,1.97-.17,3.88.15,5.73.82,2.32.85,4.33,2.2,6.05,3.97,1.98,2.02,2.44,4.36,1.4,7-.63,1.6-1.59,3.01-2.55,4.41-8.95,12.95-17.93,25.87-26.82,38.87-7.97,11.64-15.82,23.36-23.73,35.05-.19.28-.37.57-.61.94.34.09.6.16.85.24,1.46.45,2.96.8,4.37,1.37,4.28,1.72,7.25,4.79,8.97,9.08.96,2.4,1.54,4.91,1.83,7.47.31,2.73.54,5.46.69,8.2.39,6.83-.44,13.54-2.25,20.11-.9,3.28-2.04,6.49-3.13,9.71-1.16,3.42-3.11,6.38-5.7,8.86-1.88,1.8-3.88,3.47-5.91,5.11-2.3,1.86-4.73,3.55-7.01,5.42-1.71,1.41-3.29,2.99-4.91,4.5-.25.23-.44.51-.73.85,1.4.38,2.65.26,3.9-.13,1.18-.37,2.2-1.03,3.15-1.8.87-.7,1.71-1.43,2.57-2.13,1.15-.94,2.43-1.59,3.89-1.92,1.93-.44,3.83-1,5.77-1.37,3.53-.68,5.98.44,7.87,3.51,1.07,1.73,1.82,3.59,2.12,5.61.38,2.53-.28,4.75-1.9,6.69-1.13,1.35-2.53,2.37-4.06,3.22-3.43,1.91-7.11,3.12-10.98,3.77-4.49.75-9,.78-13.51.26-4.76-.56-9.5-1.23-14.26-1.85-4.59-.6-9.18-1.05-13.82-.91-3.54.11-7.09.1-10.63.23-2.51.09-4.97.52-7.36,1.32-3.94,1.31-7.11,3.71-9.77,6.85-1.98,2.33-3.96,4.66-5.98,6.95-7.78,8.81-16.01,17.19-24.16,25.65-5.01,5.21-9.98,10.46-14.94,15.72-2.07,2.2-4.36,4.09-7.13,5.33-2.77,1.24-5.66,1.81-8.62.91-4.14-1.26-6.97-3.95-8.15-8.18-.54-1.94-.21-3.86.55-5.71.77-1.86,1.87-3.51,3.29-4.91,1.28-1.27,2.6-2.54,4.07-3.56,6.72-4.7,12.85-10.07,18.63-15.87,5.45-5.46,10.76-11.06,16.24-16.5,4.02-3.99,8.2-7.81,12.32-11.71.17-.17.36-.32.54-.47-.03-.08-.06-.15-.09-.23ZM86.58,169.55c.25.05.41.12.57.12,2.68.02,5.35.1,8.03.02,2.78-.09,5.21-1.14,7.2-3.1.94-.92,1.87-1.86,2.77-2.83,1.47-1.58,2.88-3.21,4.36-4.77,3.03-3.19,6.39-5.98,10.13-8.31.88-.55,1.75-1.14,2.57-1.77,5.95-4.56,10.12-10.45,12.82-17.4,2.23-5.73,3.23-11.63,2.29-17.78-.41-2.67-1.2-5.21-2.72-7.48-.6-.9-1.3-1.72-2.26-2.27-1.04-.61-2.07-.57-3.01.18-.43.34-.83.74-1.16,1.19-.52.69-.99,1.43-1.43,2.17-1.96,3.32-3.9,6.66-5.86,9.98-10.47,17.68-21.49,35-33.91,51.39-.14.18-.24.39-.4.67ZM57.37,167.27c1.64.14,3.19.25,4.73.4,1.15.11,1.93-.32,2.62-1.28,13.26-18.27,26.54-36.52,39.82-54.78.18-.24.32-.5.48-.75-.08-.06-.11-.1-.13-.09-.23.08-.46.16-.68.26-2.92,1.32-5.71,2.85-8.39,4.61-6.53,4.28-11.95,9.71-16.65,15.9-3.98,5.24-7.35,10.87-10.64,16.55-3.61,6.22-7.25,12.41-10.88,18.61-.08.14-.15.3-.29.58Z"/>
    <text class="cls-3" transform="translate(241.86 143.74)"><tspan x="0" y="0">FORGE ELIDOR</tspan></text>
    <text class="cls-2" transform="translate(460.09 227.36)"><tspan class="cls-6" x="0" y="0">JOEL M</tspan><tspan class="cls-5" x="232.06" y="0">A</tspan><tspan class="cls-1" x="271.13" y="0">TTER DEPUIS 2007</tspan></text>
  </g>
</svg>