<?xml version="1.0" encoding="UTF-8"?>
<svg id="Calque_2" data-name="Calque 2" xmlns="http://www.w3.org/2000/svg" viewBox="0 0 2079.7 962.44">
  <defs>
    <style>
      .cls-1 {
        fill: none;
        stroke: #fff;
        stroke-linecap: round;
        stroke-linejoin: round;
        stroke-width: 20px;
      }
    </style>
  </defs>
  <g id="Calque_1-2" data-name="Calque 1">
    <g>
      <path class="cls-1" d="M967.67,540.36c6.89-9.46,13.3-19.16,18.14-29.92,2.02-4.5,5.69-8,10.28-10.68,7.39-4.31,15.07-2.7,25,5.2,4.7,3.74,8.47,8.52,12.1,13.38,5.54,7.41,11.97,13.97,20.47,17.98,7.39,3.48,12.82,1.24,17.03-5.92,4.67-7.95,5.46-16.76,5.82-25.52.52-12.71,6.95-19.25,19.61-19.56,8.64-.22,16.59,2.06,24.52,5.02,2.72,1.01,4.17,3.1,6.03,5,2.98,3.05,5.65,6.43,9.91,8.13,4.22,1.68,6.85,1.37,9.01-2.09.27-.43.48-.99.49-1.49.18-9.59,6.22-17.4,7.99-26.49,1.7-8.74,1.9-17.62,1.47-26.47-.38-7.68-.58-15.47-2.17-22.94-1.14-5.35.55-9.11,3.24-13.04,7.9-11.55,19.77-16.7,34.03-9.61,3.19,1.59,5,4,6.95,6.6,8.21,10.89,16.75,21.46,27.98,29.49,7.35,5.26,14.52,5.97,20,2,4.31-3.12,6.16-7.87,7.9-12.53,1.17-3.14,1.3-6.66,2.13-9.95.85-3.34,1.97-6.46,3.72-9.64,4.24-7.65,7.91-15.62,8.44-24.84.39-6.73,5.12-8.55,13.76-6.39,8.73,2.19,16.21,7.23,23.52,12.37,9.31,6.54,22.54,2.19,27.07-8.46,3.8-8.92,2.1-17.78.25-26.48-1.5-7.06-4.09-13.92-7.23-20.57-5.24-11.13-3.04-17.49,3.49-22.32,3.34-2.46,7.7-3.42,11.91-4.11,10.16-1.66,20.36-1.52,30.47.09,4.73.75,8.82,3.64,12.98,5.94,11.13,6.15,22.33,12.27,30.37,22.48,11.23-3.82,14.73-16.15,14.04-24.02-.58-6.6-2.56-12.91-5.34-19.02-4.39-9.65-7.65-19.64-7.57-30.45.08-11.34,4.36-16.88,15.51-19.46,8.25-1.91,15.6-6.11,20.26-12.68,7.41-10.45,21.2-9.08,29.24-3.87,4.52,2.93,8.27,6.74,12.47,10.04,3.29,2.58,7.06,4.41,11.02,5.41,10.36,2.62,13.65-2.22,13.29-11.4-.21-5.53-1.51-11.12-3.3-16.5-4.44-13.36,2.1-26.39,14.53-30.29,16.8-5.27,33.85-5.34,50.42,1.82,4.11,1.77,7.35,4.62,9.47,8.51,6.27,11.53,16.36,18.53,28.06,23.36,5.3,2.19,10.92,2.36,15.45-2.39.49-.51.96-1.05,1.5-1.49,9.04-7.32,9.51-13.31,1.46-21.46-2.48-2.51-4.97-5.36-8.03-6.91-11.3-5.71-13.85-16.11-14.82-27.11-.9-10.19,2.99-17.26,11.86-21.52,10.89-5.23,20.88-3.06,30.5,3.06,7.75,4.93,13.84,12.01,21.97,16.54,8.94,4.98,17.87,10.03,28.04,11.85,12.36,2.21,21.2.89,29.03-9.38,1.92-2.52,2.22-4.65,1-7.56-4.1-9.84-11.54-16.39-20.55-21.46-9.62-5.41-14.88-16.49-12.45-26.98,1.88-8.12,8.06-12.09,15.48-13.9,8.19-2,16.63-1.46,24.96-.58,14.98,1.57,29.96,3.29,44.98.46,1.7-.32,3.42-.79,4.99-1.51,5.35-2.47,6.3-6.04,3.62-11.51-.46-.94-.94-1.75-1.62-2.43-12.41-12.25-22.18-27.1-36.51-37.44-6.43-4.64-13.36-8.47-20.93-11.13-2.88-1.01-5.9-1.54-7.83-5.25-1.76-3.39-6.29-.7-9.15.03-10.54,2.69-20.63,6.66-30.66,11.01-8.32,3.61-16.52,7.71-25.29,10.52-7.36,2.36-13.89,7.2-21.11,10.16-10.93,4.47-20.68,10.98-30.94,16.6-5.79,3.17-12.53,3.32-18.51,5.96-10.17,4.48-20.61,8.31-30.52,13.44-6.28,3.25-13.1,5.46-19.42,8.64-9.2,4.63-18.6,8.79-28,12.98-14.09,6.27-28.05,12.85-42,19.45-12.46,5.9-25.13,11.33-37.56,17.34-15.91,7.69-32.37,14.21-48.37,21.71-8.31,3.89-16.69,7.59-25.01,11.45-15.62,7.25-31.3,14.38-46.92,21.61-11.69,5.41-23.4,10.83-35.08,16.29-24.31,11.36-48.65,22.64-72.96,34-19.18,8.96-38.12,18.45-57.54,26.83-16.51,7.12-32.6,15.2-49.37,21.75-5.3,2.07-10.47,5-14.93,8.51-5.77,4.55-12.71,5.99-19.11,8.84-6.47,2.89-13.2,5.29-19.44,8.6-10.1,5.36-20.41,10.29-31.08,14.28-8.92,3.33-17.29,7.78-25.88,11.76-7.84,3.63-15.83,7.07-23.43,11.09-7.94,4.2-16.9,5.35-24.61,9.76-9.61,5.49-20.09,9.12-29.99,13.99-10.6,5.2-21.35,10.01-32.44,14.12-4.84,1.8-8.67,5.76-13.51,7.93-5.51,2.47-11.42,4.05-16.56,7.38-.59.38-1.76.33-2.44,0-3.71-1.73-7.28-.59-11.03-.46-5.37.17-9.24,2.83-13.39,4.7-14.19,6.38-27.4,14.82-42.03,20.39-3.29,1.25-6.2,3.49-9.5,4.98-10.59,4.79-20.96,10.06-31.54,14.88-17.44,7.95-35.08,15.46-52.42,23.61-8.3,3.9-16.66,7.66-25.04,11.38-15.56,6.91-30.98,14.08-46.87,20.27-6.63,2.58-13.02,6.22-19.6,9.21-13.3,6.05-26.65,12.01-39.98,18-15.16,6.83-30.32,13.65-45.48,20.49-18.83,8.49-37.48,17.41-56.54,25.33-12.15,5.04-23.89,10.9-35.92,16.16-17.02,7.44-34.01,14.93-50.98,22.49-12.19,5.43-24.32,11-36.49,16.47-12.31,5.53-24.68,10.95-36.98,16.51-13.06,5.9-26.24,11.52-39.45,17.06-8.85,3.71-17.27,8.45-26.05,12.35-9.55,4.24-19.51,7.63-28.91,12.16-11.56,5.57-23.67,9.84-35.13,15.71-11.6,5.94-23.94,10.4-35.89,15.69-11.38,5.04-22.63,10.39-34.01,15.44-12.28,5.44-24.61,10.76-36.98,15.99-11.2,4.74-22.17,10.01-33.38,14.75-4.82,2.03-9.74,5.41-11.63,11.25-.8,2.46-1.52,4.86-1.5,7.51.08,9.33-.12,18.66.07,27.98.19,9.2,3.2,17.9,6.09,26.44,6.09,17.96,14.63,34.82,25.36,50.51,9.99,14.61,20.85,28.56,34.09,40.35,4.67,4.16,10.07,7.71,16.34,9.74,4.13,1.34,7.71.67,11.54-.59,8.2-2.69,15.57-7.19,23.47-10.56,11.39-4.86,22.69-9.92,33.99-14.99,2.1-.94,3.96-2.41,6.02-3.45,21.76-10.98,43.86-21.24,65.96-31.51,5.88-2.73,11.71-5.57,17.47-8.55,1.1-.57,2.19-.62,3.01-.36,3.38,1.11,4.94-.65,7.15-2.96,5.32-5.55,12.49-8.52,19.4-11.53,9.85-4.28,19.87-8.19,29.44-13.1,13.41-6.88,26.99-13.34,40.96-19.05,7.71-3.15,15.02-7.25,22.53-10.9,11.47-5.56,22.79-11.39,34.08-17.31,13.33-6.98,27.56-12.26,41.22-18.53,12.08-5.55,24.51-10.53,36.2-17.05,8.92-4.98,18.35-8.98,27.92-12.63,2.97-1.13,5.63-3.06,8.53-4.42,11.81-5.55,23.68-10.95,35.47-16.53,13.2-6.25,26.19-12.95,39.55-18.84,7.12-3.14,13.75-7.16,20.91-10.17,11.69-4.92,23.23-10.23,34.87-15.27,9.94-4.3,19.75-9.11,29.63-13.67,11.84-5.47,23.65-11.01,35.49-16.48,12.32-5.69,24.72-11.2,36.96-17.05,6.52-3.11,12.77-6.77,19.51-9.46,13.03-5.19,25.63-11.46,38.59-16.72,12.42-5.04,24.26-11.19,36.49-16.51,9.16-3.98,18.66-7.32,27.87-11.28,9.73-4.18,19.63-7.98,29.02-12.93,6.65-3.51,6.99-4.65,2.49-10.01-.2-1.35.85-2.55,1.55-2.9,11.43-5.8,22.8-11.74,34.51-16.93,4.69-2.08,9.93-3,15.43-2.9,4.49.08,7.15,2.6,9.87,4.88,3,2.51,5.78,5.8,6.56,9.86,4.09,21.35,11.72,41.64,19.21,61.89,7.12,19.25,14.79,38.33,23.29,57.04.93,2.05,1.29,4.34,2.05,6.47,1.93,5.36,4.86,6.29,10,4.06,9.1-3.94,18.51-7.3,26.93-12.6,18.28-11.5,37.78-20.76,56.57-31.32,23.91-13.43,48.28-26.04,72.4-39.1,20.2-10.92,40.34-21.94,60.48-32.97,17.85-9.78,35.66-19.65,53.48-29.47,24.49-13.49,48.78-27.37,73.55-40.32,13.8-7.21,27.62-14.39,41.37-21.7,20.28-10.77,40.39-21.85,60.49-32.95,17.89-9.88,35.52-20.24,53.55-29.85,11.24-5.99,22.25-12.38,33.76-17.94,10.26-4.95,20.2-10.93,30.07-16.79,11.56-6.86,23.46-13.09,35.07-19.84,14-8.15,28.52-15.54,41.86-24.67,19.32-13.22,39.94-24.19,59.72-36.6,21.97-13.78,44.37-26.89,66.33-40.7,24.92-15.67,49.8-31.42,74.46-47.49,24.65-16.07,49.22-32.29,73.45-49,22.77-15.7,45.18-31.9,67.08-48.82,19.02-14.69,37.55-29.92,54.94-46.53,1.75-1.67,2.79-3.75,3.48-6,.95-3.11.74-5.28-2.91-7.13-7.89-4-16.29-6.45-24.53-9.43-7.48-2.71-14.94-5.47-22.46-8.08-13.99-4.86-28.37-8.19-42.56-12.26-14.09-4.03-28.54-6.55-42.98-8.99-13.93-2.36-27.88-4.64-41.95-6.27-9.33-1.08-18.73-2.1-28.02-2.53-19.96-.93-39.96-1.91-59.96-1.27-18.03.58-36,2.09-53.98,3.5"/>
      <path class="cls-1" d="M960.17,365.47c.03,1.82-.42,3.41-1.45,5.03-8.45,13.2-12.62,28.16-16.87,42.99-1.15,4-.58,8.66-.1,12.93,1.82,16.51,3.85,33,5.95,49.47,1.72,13.51,3.64,26.99,5.48,40.48,1.16,8.5,2.33,16.99,3.5,25.48"/>
      <path class="cls-1" d="M803.73,428.93c.83,5.66,1.75,11.32,2.48,16.99,2.31,17.8,7.7,34.78,14.05,51.45,9.67,25.35,21.4,49.7,35.28,73.07,3.98,6.71,8.28,13.31,11.66,20.39"/>
      <path class="cls-1" d="M836.22,414.94c-.17,1.17.05,2.6-.56,3.46-13.13,18.77-13.38,39.18-6.81,59.96,6.21,19.63,17.28,36.71,30.35,52.51,10.7,12.93,22.55,24.74,34.99,35.97"/>
      <path class="cls-1" d="M1749.86,12.2c.15,1.48-.52,1.89-1.99,2.05-4.68.52-9.32,1.38-14.01,1.89-1.82.2-3.07,1.2-4.49,2.05"/>
    </g>
  </g>
</svg>