<?xml version="1.0" encoding="UTF-8"?>
<svg id="Calque_2" data-name="Calque 2" xmlns="http://www.w3.org/2000/svg" viewBox="0 0 1069.27 1243.11">
  <defs>
    <style>
      .cls-1 {
        stroke-width: 0px;
      }

      .cls-2 {
        fill: none;
        stroke: #000;
        stroke-linecap: round;
        stroke-linejoin: round;
        stroke-width: 15px;
      }
    </style>
  </defs>
  <g id="Calque_1-2" data-name="Calque 1">
    <g>
      <path class="cls-1" d="M1026.04,463.58c-6.8,10.26-17.4,16.29-26.48,24.02-2.28,1.94-7.05,2.68-5.06,7.76.18.45-1.7,1.81-2.74,2.61-17.81,13.73-38.53,21.46-59.49,28.62-13.21,4.52-26.83,7.71-40.23,11.58-10.34,2.99-18.21-3.64-21.22-11.77-18.62-50.24-54.35-82.9-104.23-100.2-31.98-11.1-64.9-12.07-97.96-4.18-4.5,1.07-8.35,2.89-11.67,6.21-5.29,5.29-10.84,10.31-16.77,15.9.4-3.45,3.55-4.63,4.19-7.28-9.49.24-15.89-6.71-23.66-10.39-8.33-3.94-14.89-10.56-20.8-17.6-1.54-1.83-2.63-4.4-2.99-6.77-1.21-7.85-4.17-15.38-4.06-23.64-1.95.83-1.12,2.77-2.17,3.81-1.03-.09-.64-1-.57-1.44,3.38-21.73,2.7-43.44-.06-65.18-1.02-8.03-3.15-15.48-7.05-22.65-13.69-25.17-31.64-46.12-58.02-58.57-23.87-11.27-48.85-13.15-74.6-7.98-11.62,2.33-21.55-2.11-30.54-9.04-1.05-.81-1.53-2.52-2-3.9-5.57-16.09-8.57-32.67-10.63-49.56-2.05-16.76-2.71-33.49-2.06-50.3.77-20.2,4.15-39.6,16.82-56.4,23.48-31.13,54.75-46.91,93.51-46.38,18.27.25,35.98,5.83,53.61,10.6,50.41,13.65,98.54,33.2,145.11,56.65,40.05,20.17,78.19,43.56,115.12,68.94,51.5,35.41,100.7,73.77,146.72,116.09,23.15,21.29,44.93,43.9,62.72,70.06,12.85,18.9,21.14,39.21,19.81,62.49-1.18,20.77-10.28,38.22-23.22,54.03-2.82,3.44-7.42,5.9-7.17,11.34-5.48-2.1-5.89,3.61-8.81,5.52,2.09-1.34,4.65-1.57,6.63-2.99ZM431.72,184.07c9.4,3.6,18.86,7.05,28.17,10.86,3.51,1.44,6.65,3.75,9.99,5.6,1.22.68,2.64.96,3.7-.11.63-.63.15-1.64-.6-2.13-6.17-4.13-11.84-9.26-19.73-10.02-5.1-.49-9.64-2.34-13.73-5.83,2.98,3.55,5.12-2.14,7.97-.35,2.51,1.57,4.48,4.06,7.62,4.6.16.03.31.12.47.17,9.66,2.71,18.88,6.41,27.25,12.06,1.99,1.34,4.14,2.62,7.42,1.53-6.3-3.79-12.21-7.22-16.68-12.56,10.91,4.87,20.88,11.97,33.22,13.21-7.86-3.62-16.26-6.24-22.55-12.7,1.17-1.13,2.24-2.19,3.66-1.38,7.33,4.21,15.76,6.77,21.67,13.06,2.95,3.13,6.33,4.69,10.99,6.9q-5.99-5.5-6.9-8.22c24.29,11.81,48.94,23.23,71.58,40.86-4.29-.22-5.96-3.41-9.7-2.88,6.65,6.46,13.52,11.78,19.35,18.4-1.75.69-2.79-1.4-4.2-.08,1.37,4.23,6.34,5.33,7.98,9.26l.12-.12c-1.49.42-2.67-1.37-4.45-.56,1.9,4.69,6.33,7.04,9.61,10.41-1.68,1.29-3.21-.97-5.61,1.08,12.77,4.7,24.7,9.82,32.26,21.19-9.34-7.68-21.45-10.34-31.05-17.53,4.17,10.11,15.88,11.55,23.06,20.17-7.22-2.95-12.02-8.01-20.17-9.29,6.24,6.4,13.13,9.33,19.28,13.31l-.13-.12c.2.91,1.47,1.43.83,2.95-6.18-3.35-12.31-6.68-19.18-10.41,1.5,6.02,5.46,8.2,9.26,10.58,7.6,4.77,15.17,9.6,22.73,14.46,1.12.72,2.65,1.27,2.54,3.67-10.59-5.85-20.42-12.31-33.05-14.88,6.7,6.82,15.69,6.68,22.43,11.44,6.6,4.66,13.91,8.31,20.2,13.56,5.93,4.95,14.15,7.03,18.41,14.16-10.34-5.35-19.56-12.8-30.8-16.13-11.2-3.33-17.77-14.92-30.06-16.18,5.28,5.47,12.11,8.98,18.12,14.88-6.16-1.24-10.24-4.86-14.96-7.08-1.03-.48-2.2-1.31-3.17-.12-1.12,1.37-.14,2.59.83,3.47,1.1.98,2.5,1.63,3.69,2.52,3.17,2.36,6.78,4.28,9.16,8.34-5.02-.93-8.61-4.89-14.5-3.12,3.48,1.59,6.27,2.59,8.77,4.07,11.85,7,23.62,14.14,35.42,21.22,1.73,1.04,3.8,2.48,5.34.43,1.86-2.47-1.06-3.36-2.39-4.46-6.06-5.03-13.64-7.59-20.02-12.12-4.45-3.16-9.21-6-12.27-11.31,13.29,1.55,21.8,11.94,33.56,15.51-3.6-3.49-9.11-4.66-12.2-10.77,16.37,8.27,31.13,16.83,46.33,24.76-4.89-7.6-15.18-8.97-19.93-17.83,10.39,5.67,19.36,12.6,30.89,13.88-9.74-4.23-18.35-10.29-26.94-16.28-8.72-6.08-18.88-10.24-27.19-19.42,8.92,1.67,15.62,4.66,21.8,9.02,5.97,4.22,11.98,8.41,18.15,12.32,6.14,3.89,12.54,7.36,19.05,12.69-1.38-3.8-4.37-5.06-5.07-8.1,3.26.06,5.5,1.53,7.86,2.69,3.73,1.83,7.49,3.6,11.31,5.23,1.08.46,2.68,1.56,3.54-.08.78-1.48-.87-2.29-1.74-3.22-.45-.48-.94-1.02-1.52-1.28-12.57-5.64-19.66-18.24-31.4-25.05,14.26,8.76,28.5,17.48,43.86,26.52-1.13-4.09-4.77-4.77-5.22-7.96,3.59.57,5.75,3.11,8.49,4.57,2.65,1.42,5.09,3.3,9.46,4.13-6.73-6.37-12.61-11.59-20.39-14.16-1.94-.64-4.51-.95-3.9-4.12,0,0-.18.21-.18.21.63-.05,1.45-.39,1.86-.11,8.08,5.48,17.41,8.94,24.93,15.35,1.04.88,1.99,2.28,4.56,1.71-2.7-3.28-5.17-6.28-8.19-9.95,7.54,3.25,12.82,8.8,20.29,10.12-6.82-6.79-14.28-12.57-23.26-16.2-1.89-.76-4.48-.66-4.65-3.64l-.24.36c1.89-1.62,3.38-.27,4.94.65,10.31,6.08,20.95,11.68,29.4,20.45.44.45,1.05.85,1.99.09-2.91-6.46-9.12-9.9-13.51-15.24,14.48,8.99,28.95,17.99,43.43,26.98l.82-1.3c-3.45-2.98-6.9-5.96-10.35-8.95,11.65,3.07,54.42,33.91,65.42,46.3-1.36,1.26-2.91-.82-4.79.31,17.11,8.18,31.57,19.99,49.49,28.26-5.66-3.85-7.42-9.77-13.3-12.58-9.38-4.5-16.97-12.04-26.56-16.48-6.74-3.12-12.07-8.36-16.7-14.22,9.02,3.67,15.14,12.41,25.04,14.43-12.03-8.31-23.26-17.65-35.22-26.01-13.16-9.2-24.52-20.86-38.19-29.5-2.09-1.32-4.57-2.42-6.26-5.1,2.86.21,4.45,1.67,6.13,2.95,12.23,9.36,25.09,17.78,37.11,27.56,15.27,12.41,31.85,23.39,47.81,35.04,6.77,4.94,13.81,9.55,18.78,16.9,3.05,4.51,8.6,7.23,13.53,10.04,1.09.62,2.37.95,3.18-.16.88-1.2-.54-1.71-1.24-2.21-2.16-1.56-4.5-2.88-6.59-4.51-3.67-2.85-7.76-5.28-11.41-10.42,7.87,2.12,13.78,4.74,19.33,8.5,6.6,4.47,13.5,8.49,20.3,12.66,1.07.66,2.43,1.95,3.49.48,1.05-1.45-.48-2.34-1.55-3.11-6.61-4.75-12.56-10.33-19.5-14.71-5.44-3.43-11.16-6.81-15.03-12.2-3.11-4.34-7.26-7.1-11.76-9.78-5.65-3.36-12.07-5.87-15.73-11.96,16.76,10.99,34.92,20.04,49.02,34.7,6.71,6.97,15.7,9.99,23.35,15.31-31.52-27.95-65.11-53.25-98.37-79.01,6.35,2.36,10.86,7.5,16.98,10.06,6.53,2.73,11.84,7.28,17.48,11.4,3.12,2.28,4.36,6.06,7.02,8.08,10.3,7.81,20.18,16.13,30.9,23.46,9.27,6.34,17.35,14.43,26.46,21.13,2.35,1.73,4.73,3.3,7.73,3.87-6.91-6.07-13.54-12.38-20.97-17.79,9.17,2.66,17.47,6.72,25.2,12.03,3.54,2.43,7.03,5.1,11.31,6.23,1.01.27,2.08.3,2.52-.9.35-.93-.25-1.63-1.07-1.96-7.96-3.21-13.93-10.18-21.79-12.95-14.78-5.22-26.28-15.51-39.38-23.29-4.41-2.62-8.18-6.3-12.24-9.5,29.15,16.18,57.22,34.07,87.84,47.36-5.23-4.5-12.04-6.31-17.25-11-5.29-4.76-11.45-8.52-17.46-12.43-5.84-3.8-11.46-8-16.86-12.41-5.33-4.35-10.75-8.68-14.76-14.57,20.25,17.22,41.35,33.06,65.4,44.55-14.49-9.86-28.63-20.17-42.22-31.37,1.28.17,2.51.51,3.68,1,13.55,5.71,25.13,14.83,37.88,21.94,3.12,1.74,5.95,3.42,9.59,3.16-9.43-7.49-16.32-17.51-26.4-24.12,9.68,4.49,17.8,11.44,28.6,16.31-2.91-5-7.44-6.18-10.89-10.04,6.21,2,11.31,4.3,16.43,6.65-1.7-2.65-3.96-4.43-6.56-6-6.4-3.87-13.79-5.75-19.86-10.33-4.23-3.2-8.64-6.18-13.47-8.53-2.52-1.23-4.74-3.07-7.09-4.64-1.15-.76-2.56-1.76-1.42-3.12,1.21-1.43,1.92.46,2.66,1.11,1.75,1.53,3.61,2.89,5.47,4.27,6.92,5.15,15.56,6.74,22.68,11.44,8.05,5.31,16.25,10.39,24.32,15.67,2.85,1.86,5.59,2.6,8.67.52-12.36-7.37-23.08-16.94-35.07-24.68l-.08.11c1.89-2.36,3.85-2.65,6.39-.73,7.62,5.77,15.36,11.4,23.53,17.43-.71-4.78-5.95-5.6-7.19-9.85,6.58,1.1,11.57,5.41,17.61,6.83-5.02-6.4-12-9.33-19.03-12.28-5.65-2.37-10.73-5.63-13.83-11.02.28-.37.56-.74.85-1.12,13.43,8.26,26.86,16.52,40.44,24.86-3.24-8.86-12.5-11.31-18.16-17.71,6.2,1.04,10.15,5.97,15.48,8.34-2.22-3.99-6.17-6.11-10.38-9.83,8.42,2.13,12.67,9.29,20.58,10.77-4.65-7.96-9.67-14.45-17.99-17.68,11.68,5.5,14.3,6.13,22.5,4.84-4.86-6.1-11.05-10.79-15.81-16.93,6.3,4.3,12.6,8.61,18.9,12.91.26-.32.52-.65.77-.97-4.49-5.3-10.06-9.54-14.77-14.79,4.93,3.06,9.86,6.11,14.79,9.17-5.13-6.81-12.53-10.63-18.98-15.69,5.76,2.64,11.49,5.22,16.73,8.77,1.42.96,3.17,3.27,4.68,1.86,1.73-1.61.1-4-.83-5.89-.35-.72-.96-1.39-1.61-1.88-5.46-4.07-10.12-9.12-16.08-12.61-3.48-2.04-7.33-3.86-9.53-7.65,8.09,4.94,16.18,9.88,24.79,15.14-1.59-5.37-2.28-6.23-6.5-9.17-1.36-.95-3.58-3.35-2.87-3.58,3.72-1.17.79-2.66.24-3.42-1.15-1.59-2.76-2.86-4.17-4.27-6.89-6.88-14.63-12.76-23.24-19.4,6.98.67,10.21,5.9,16.3,8.37-8.41-10.05-20.52-12.63-30.09-20.73,5.83.98,9.24,5.65,15.66,4.85-18.39-10.21-33.76-22.8-50.43-33.51,14.24,3.02,24.15,14.39,37.98,19.78-2.66-4.9-7.27-5.88-10.63-8.47-15.39-11.85-34.21-17.92-49.46-29.89-4.95-3.88-10.84-6.5-15.19-11.21,6.05,3.41,11.73,7.34,17.55,11.06,5.82,3.73,11.37,8,18.05,10.21-17.69-13.12-36.66-24.49-52.16-40.33,7.62,2.31,13.38,7.72,20.27,11.26-3.95-3.69-7.84-7.36-12.56-10.04-8.47-4.8-18.52-6.33-26.09-13.1-5.32-4.75-11.15-8.89-17.63-12.13-4.13-2.06-7.77-5.1-11.61-7.74-.67-.46-1.62-1-1.78-1.66-.81-3.45-.79-3.4-2.83-4.99-3.4-2.64-8.85-4.22-9.67-8.21-.98-4.79-4.25-6.16-7.18-8.49-2.22-1.76-4.25-3.79-6.63-5.29-2.68-1.69-4.52-4.67-8.33-5.74,1.08,3.46,4.82,4.06,5.83,7.36-8.86-3.07-14.46-10.54-22.69-13.63,9.68,10.01,22.97,15.12,33.01,24.64-24.14-13.55-45.99-30.66-69.79-44.74,10.64,9.47,23.01,16.5,34.27,25.14-4.4-1.53-8.76-3.1-12.46-5.91-15.69-11.94-33.24-21.37-47.05-35.53,11.99,3,20.31,14.52,33.3,16.11-.51-1-1.17-1.77-2-2.14-13.88-6.19-26.03-15.37-39.24-22.71-2.17-1.21-4.43-2.32-8.31-1.87,5.02,3.61,8.9,6.39,13.11,9.41-2.31,1-3.18-.35-4.28-.92-11.25-5.79-20.62-14.52-33.3-18.37-13.19-4.01-23.5-14.29-35.8-20.61-3.81-1.96-8.53-4.04-10.38-7.41-2.16-3.95-5.49-5.28-8.59-7.39-.93-.64-2.45-2.01-3.45-.32-.99,1.66,1,2.23,1.91,2.95,5.07,4.07,10.24,8.03,15.37,12.03-1.04.46-1.66.3-2.21.03-14.95-7.35-29.1-16.06-43.21-24.86-1.57-.98-3.67-3.34-5.09-1.7-2.1,2.43-3.23.5-4.6-.17-2.38-1.17-4.59-2.69-6.93-3.94-2.29-1.23-4.66-2.31-7-3.45,9.04,6.96,19.27,12.12,26.36,21.31-19.3-10.05-37.25-22.23-54.77-35.13-.32.5-.64,1-.95,1.49,4.82,3.23,9.63,6.45,14.88,9.97-2.21.67-3.43-.17-4.49-.75-9.42-5.17-18.61-10.66-28.74-14.57-5.85-2.26-11.49-5.16-17.54-7.04-1.62-.51-3-.81-3.72,1.05-.65,1.67.58,2.41,1.89,2.94,3.19,1.3,5.66,3.53,8.69,6.27-9.74-3.32-16.7-11.03-27.68-12.53,2.4,4.03,6.47,3.57,8.55,6.92-1.72,0-2.83.07-3.94-.01-6.21-.49-11.28-7.42-18.32-3.24-5.89-2.86-10.31,2.35-15.63,3.01-5.57.69-10.14,5.46-15.39,6.91-6.95,1.92-11.94,6.45-17.34,10.29-1.98,1.41-5.31,2.87-5.99,5.97-.47,2.17-1.93,2.79-3.43,4.04-2.09,1.76-6.88,3.39-3.85,8.19-2.35.33-6.16-1.37-5.77,2.53.37,3.68-2.32,5.85-3.67,7.86-3.7,5.49-4.75,6.75-3.37,13.02.15.7-.15,2.09-.56,2.23-2.73.94-2.93,4.17-4.73,5.41-4.26,2.93,1.69,7.87-2.55,10.42.32.38.62.79.98,1.12,1.13,1.05,3.36,1.31,2.71,3.63-.68,2.42-3.47.36-4.59,2,.51,2.98,4.12,3.24,5.17,6-2.26.13-4.15-1.84-6.49-.62.48,3.32,4.91,3.67,5.66,7.02-2.1-.05-3.95-2.41-5.35-.28-1.49,2.26.27,3.97,1.88,5.56,2.7,2.66,5.29,5.45,7.98,8.24-3.1-.77-5.69-3.89-10.1-2.33,3.4,3.06,6.37,5.74,9.7,8.73-2.56.16-4.03-1.04-5.7-1.65-1.27-.46-2.63-2.18-3.91-.29-.85,1.25-.81,2.73-.02,4.25,2.13,4.13,3.94,8.41,8.99,9.97.99.3,2.54.82,2.25,3-2.34-.98-4.4-1.97-6.54-2.69-1.1-.37-2.6-1.79-3.48-.04-.76,1.5.99,2.23,1.82,3.19,1.61,1.86,4.34,2.46,5.56,4.91-2.68,1.28-4.54-2.03-8.94-.46,8.46,4.28,14.01,10.24,20.03,15.86-5.87-1.24-9.82-6.84-16.9-6.88,3.28,4.64,8.56,5.78,12.08,9.97-3.9.11-6.25-2.8-10.16-2.74,5.19,6.03,12.99,5.44,19.09,9.44-3.34,1.24-5.28-1.81-8.25-1.41,2.18,1.89,4.03,3.5,5.89,5.11-5.19-.56-8.56-5.85-14.21-5.28,10.86,8.86,23.18,14.64,36.89,17.52-7.85-3.72-15.9-7.02-22.85-12.38ZM635.82,362.09c-.03-1.43-.61-2.59-1.83-3.35-8.45-5.24-16.64-10.94-25.88-14.78-.94-.39-2.11-1.64-3.08-.19-.9,1.33-.33,2.6.9,3.45,8.77,6,17.86,11.5,27.1,16.74,1.85,1.05,2.8.17,2.79-1.86ZM418.73,186.6c8.39,6.41,16.79,12.85,27.84,13.95-8.52-6.14-17.62-11.12-27.84-13.95ZM602.16,359.95c2.87,7.7,8.91,11,16.1,13.13-1.3-10.07-10.74-8.9-16.1-13.13ZM980.09,273.49c.46-.19,1.1-.25,1.29-.57.57-.99-.4-1.37-.93-1.95-2.08-2.26-5.51-2.41-7.49-4.55-4.19-4.54-9.93-7.05-14.31-11.31-.64-.63-1.71-1.48-2.59-.53-1.18,1.26,0,2.11.94,2.77,3.64,2.58,6.89,5.61,10.32,8.43,3.79,3.11,8.43,5.16,12.77,7.72ZM662.13,66.42c11.32,5.07,20.17,14.75,32.81,17.45-11.37-5.03-20.65-13.81-32.81-17.45ZM854.19,177.71l-.81,1.23c5.14,4.75,10.99,8.4,17.34,11.3.22-.34.45-.68.67-1.02-5.73-3.84-11.47-7.67-17.2-11.51ZM623.35,366.21c-5.48-5.45-11.6-9.14-15.68-9.46,5.13,3.34,9.4,8.06,15.68,9.46ZM797.09,139.16c3.4,5.02,11.32,9.72,16.2,10.21-5.83-3.67-11.01-6.94-16.2-10.21ZM792.27,137.19c.29-.16.97-.35,1-.62.06-.59,0-1.52-.36-1.76-2.34-1.52-4.76-2.94-7.2-4.29-.81-.45-1.64-.16-2.02.78-.28.69-.11,1.4.52,1.73,2.61,1.4,5.27,2.72,8.07,4.16ZM951.33,253.21c-3.8-3.94-9-5.76-13.2-9.13,3.17,4.86,8.43,6.63,13.2,9.13ZM888.89,205.69c-3.78-2.79-7.56-5.58-11.34-8.37-.25.35-.49.7-.74,1.04,3.73,2.87,6.69,6.81,12.08,7.32Z"/>
      <path class="cls-1" d="M698.16,767.29c-.17.28-.28.74-.52.82-7.63,2.62-13.01,8.2-18.42,13.8-.89.93-2.18,1.51-2.67,2.82-.41,1.09-.92,2.36.37,3.12,1.05.62,1.96-.19,2.5-1.03,1.29-2,3.13-3.35,5.09-4.88-1.32,3.62-69.88,98.86-73.96,102.39,20.14-27.14,39.37-54.9,57.72-83.54-3-.91-5.01-.07-6.39,2.1-2.7,4.26-6.12,8.09-7.54,13.12-1.32,4.72-5.94,6.47-9.08,9.55-1.03,1.01-2.2.28-3.04-.66-1.06-1.19-1.11-2.49.15-3.5,7.78-6.26,9.95-16.49,16.78-23.62,2.28-2.38,2.94-6.46,5.96-9.67,4.71-5.01,1.58-17.41-3.46-22.65-2.12-2.21-3.61.54-5.73.05.11-3.13.05-6.18,2.8-8.49,2.88-2.42,1.76-5.26.12-7.57-1.62-2.27-3.6-4.64-5.98-5.95-11.95-6.57-22.62-15.33-35.3-20.65-1.66-.7-3.53-1.45-4.69-2.73-3.51-3.89-7.72-6.19-12.89-6.89-7.29-.98-12.95-5.75-19.46-8.56-2.76-1.19-5.14-2.96-8.39-2.27-.71.15-1.76-.18-2.34-.66-6.26-5.28-14.69-5.64-21.63-9.53-3.04-1.7-7.21-1.97-10.74-2.61-4.6-.83-8.34-2.55-12.3-4.67-2.94-1.57-6.21-3.28-9.96-2.55-.86.17-2.05-.2-2.8-.74-7.54-5.42-16.51-6.51-25.2-8.44-3.46-.77-6.83-2.07-9.33-4.35-4.07-3.73-9.37-1.21-13.59-3.45-7.03-3.73-15.96-2.73-22.03-8.89-.91-.93-2.52-1.47-2.08-3.05.48-1.72,2.1-1.23,3.39-1.19,17.37.55,34.36,3.88,51.26,7.53,38.55,8.31,76.59,18.65,114.65,28.91,13.97,3.77,27.9,7.7,41.91,11.29,5.65,1.45,11.56,1.84,17.21,3.28,10.45,2.66,20.81,5.71,31.19,8.65,3.68,1.04,7.29,2.3,10.96,3.35,3.64,1.04,4.81,3.79,6.16,7.07,6.21,15.1-2.46,25.17-11.33,35.29.06-.96.54-2.3.09-2.79-.9-.97-1.69.26-2.32.87-2.57,2.49-5.18,4.91-6.96,8.12-1.33,2.4-.68,3.29,1.81,3.46ZM668.16,795.21c-.73,1.72-.3,3.15,1.36,2.94,2.91-.36,2.36-3.5,3.41-5.34.6-1.05-.44-1.77-1.57-1.81-3.21-.13-2.91,2.41-3.2,4.22Z"/>
      <path class="cls-1" d="M540.08,530.98c-3.77,5.09-9.73,7.31-14.54,11.05-5.35,4.16-11.16,7.74-16.82,11.61.8,1.67,2.89.54,3.53,1.47-10.27,4.4-19.12,11.69-29.55,15.96.75-.89,1.8-1.88.37-2.88-1.43-1-2.86-.36-4.1.63-.7.55-1.24,1.4-.59,2.12,1.22,1.34,2.74.61,4.16.19-3.03,1.73-6.43,2.64-8.09-1.19-1.77-4.09,1.6-5.85,4.86-7.2,7.67-3.17,15.32-6.38,23.46-9.77-2.93-2.37-5.31-.64-7.5.18-2.67,1-5.43,2.03-6.9-1.16-1.5-3.23,1.32-4.68,3.63-6.09,9.36-5.7,19.13-10.76,27.56-17.92.97-.82,2.61-4.21,4.04.06.43,1.28,1.69-.13,2.49-.47.85-.35,1.27-1.24.92-2.07-.56-1.32-1.61-2.15-3.16-1.86-3.75.7-7.53,1.31-11.22,2.27-1.59.41-2.89.95-3.82-.82-.91-1.73.21-2.86,1.37-3.83.61-.51,1.49-1.12,2.19-1.06,5.54.48,10.76-.78,16.09-2.14,2.69-.69,3.86,1.76,2.81,4.25-1.7,4.04.37,3.23,3.15,3.24,7.14.03,12.56-3.13,17.56-7.78,3.66-3.41,7.86-6.14,12.39-8.33,1.1-.53,2.4-1.05,3.23-.04,1.11,1.36-.42,2.13-1.28,2.67-4.11,2.62-6,7.41-9.99,10.12,0,0,.26-.14.26-.14l-.09.18c-5.04,2.47-5.9,4.49-4.21,8.97,1.65,4.36,1.52,8.64-1.82,12.7,2.85-6.51-5.86-10.7-2.2-17.96-3.33,2.07-5.82,3.62-8.31,5.17-.81-2.04-2.4-1.87-4.15-1.57-6.5,1.12-12.97,2.26-18.11,7.52-.16-1.65,1.71-2.16.76-3.82-6.21,4.39-12.38,8.74-18.55,13.1,6.08.53,11.68.91,16.73-2.96,4.45-3.41,9.44-6.16,14.33-8.96,2.82-1.61,5.49-3.87,9.12-3.45Z"/>
      <path class="cls-1" d="M541.84,514.59c-1.81-2.76-.41-4.35.77-5.9,2.8-3.68,6.71-5.37,11.19-5.76,7.46-.65,14.85-1.69,22.05-3.79,2.43-.71,4.36-.08,5.55,2.06,1.21,2.19.57,4.37-1.33,5.78-2.37,1.76-5.02,3.15-7.52,4.7-.99-1.29-.16-1.82.41-2.34.86-.79,1.98-1.47,1.2-2.87-.72-1.3-1.9-.97-3.08-.73-6.68,1.37-13.39,2.25-20.23,2.43-3.98.1-6.81,2.88-9,6.4Z"/>
      <path class="cls-1" d="M544.91,532.53c3.4,5.8,2.79,11.24-1.15,15.09-3.25,3.18-7,5.35-11.36,6.88-4.15,1.45-9.1,2.58-9.61,8.45-1.33-.06-2.82-1.26-2.62-1.85,1.59-4.8-1.36-5.51-4.9-5.99-.76-.1-1.52-.93-1.27-1.85.14-.53.77-1.05,1.3-1.34,1.42-.77,2.84-.38,4.32.08,11.71,3.67,25.49-6.5,25.3-19.48Z"/>
      <path class="cls-1" d="M528.09,560.32c3.95-.22,7.75-1.15,11.52-2.19,1.62-.45,3.34-.48,4.45,1.21,1.04,1.58.72,3.17-.22,4.66-1.31,2.07-2.86.63-4.37.28-3.88-.91-7.78-1.76-11.67-2.63.09-.44.19-.89.28-1.33Z"/>
      <path class="cls-1" d="M691.05,321.03c9.26,2.4,17.82,6.22,25.14,12.52.78.67,1.44,1.38,1.38,2.51,0,0,.18-.21.18-.21-3.72,2.26-6.28-.7-8.8-2.34-6.08-3.96-11.87-8.37-17.77-12.59l-.12.11Z"/>
      <path class="cls-1" d="M733.11,333.35c-6.89-.05-11.06-4.09-15.06-10.49,3.86,1.5,7.47,1.31,7.93,5.65.11,1.05.73.91,1.34.8,3.51-.61,4.59,1.8,5.54,4.4,0,0,.24-.36.24-.36Z"/>
      <path class="cls-1" d="M898.8,410.2c-10.65-9.4-25.03-11.94-36.24-20.45-11.01-8.37-24.32-13.55-34.71-23.54,25.34,12.39,49.7,25.77,70.95,43.99Z"/>
      <path class="cls-1" d="M652.51,313.44c16.75,9.91,34.34,18.52,48.38,32.55-16.39-7.63-31.32-17.75-48.53-26.42,3.71-.96,4.97,1.59,7.47,1.06-1.87-3.29-5.93-3.75-7.32-7.19Z"/>
      <path class="cls-1" d="M709.68,98.81c17.32,11.2,36.89,18.86,51.68,33.86-18.37-9.55-36.65-19.22-51.68-33.86Z"/>
      <path class="cls-1" d="M864.33,197.46c-10.16-4.04-45.21-25.75-55.76-37.99,14.4,9.54,29.89,17.28,44.13,27.17-4.48-.14-7.52-3.75-11.79-4.54,6.77,6.71,16.81,8.45,23.42,15.36Z"/>
      <path class="cls-1" d="M931.29,400.37c-8.27-2.38-15.16-6.42-21.37-11.92-5.48-4.85-12.49-7.42-18.64-11.31-1.73-1.1-4.6-2.53-3.08-4.74,1.28-1.87,3.64.44,5.13,1.42,12.82,8.45,26.95,15.03,37.97,26.55Z"/>
      <path class="cls-1" d="M818.5,368.98c-6.24-2.85-10.98-5.89-15.44-9.58-6.48-5.36-14.82-7.3-22.11-11.22-3.39-1.83-6.47-4.03-9.16-6.76-.81-.82-2.79-1.47-1.47-3.07,1.07-1.29,2.52-.18,3.62.4,2.05,1.08,4.01,2.34,5.97,3.58,10.23,6.45,20.46,12.91,30.68,19.38,2.75,1.74,5.3,3.72,7.91,7.27Z"/>
      <path class="cls-1" d="M869.46,379.88c-16.4-10.58-33.24-20.42-48.01-33.15,19.59,6,31.27,23.25,48.01,33.15Z"/>
      <path class="cls-1" d="M678.45,90.68c14.35,9.06,30.41,15.51,41.92,28.69-13.9-9.72-30.43-15.44-41.92-28.69Z"/>
      <path class="cls-1" d="M621.71,302.99c.69-.73,1.37-1.48,2.54-.93,10.16,4.8,20.87,8.8,28.05,19.98-9.97-3.63-17.65-8.87-24.72-15.02-1.88-1.64-3.32-3.71-5.99-4.15,0,0,.12.11.12.11Z"/>
      <path class="cls-1" d="M711.13,105.6c-19.61-12.01-39.73-22.93-60.2-33.24,21.93,7.87,41.18,20.46,60.2,33.24Z"/>
      <path class="cls-1" d="M802.61,342.84c3.71,1.87,6.78,5.73,11.74,3.81.49-.19,1.59.54,2.1,1.12,8.75,9.94,20.53,15.68,31.41,22.66.66.42,1.18,1.05,1.76,1.58-.23.34-.46.67-.69,1.01-15.68-9.69-31.36-19.38-47.04-29.07.24-.37.48-.73.72-1.1Z"/>
      <path class="cls-1" d="M815.42,176.68c-5.7.04-8.08-4.55-11.97-6.41-5.96-2.86-11.29-7.02-16.88-10.65-.86-.56-1.79-1.31-.99-2.39.71-.95,1.76-.61,2.65,0,8.66,5.84,17.31,11.67,25.95,17.53.36.24.52.78,1.24,1.93Z"/>
      <path class="cls-1" d="M1040.03,379.77c-10.86-3.94-19.55-9.53-27.46-16.57,3.42-1.51,15.32,5.63,27.46,16.57Z"/>
      <path class="cls-1" d="M508.26,190.43c10.18,6.5,22.48,9.23,31.11,18.17-11.81-3.64-21.37-11.17-31.11-18.17Z"/>
      <path class="cls-1" d="M886.46,215.23c-10.01-8.89-24.35-9.82-34.08-19.11,11.48,6.19,24.9,8.79,34.08,19.11Z"/>
      <path class="cls-1" d="M897.59,229.04c-9.87-2.28-14.85-10.92-23.56-15.87,5.08,1.04,21.52,12.28,23.56,15.87Z"/>
      <path class="cls-1" d="M737.26,132.21c10.67,5.02,20.37,11.61,29.76,18.71-9.73-6.56-20.3-11.71-29.76-18.71Z"/>
      <path class="cls-1" d="M1047.39,361.05c-6.97-3.65-13.18-8.57-20.47-11.62-.9-.38-1.83-1.15-1.01-2.29.7-.97,1.82-.76,2.69-.21,6.67,4.14,13.31,8.34,18.79,14.11Z"/>
      <path class="cls-1" d="M956.72,397.19c8.46,4.74,16.29,10.38,23.67,16.66-8.76-4.32-17.26-9.01-23.54-16.79,0,0-.12.13-.12.13Z"/>
      <path class="cls-1" d="M644.45,68.53c-9.23-3.76-17.57-8.88-25.25-15.07,9.27,3.64,16.72,10.31,25.25,15.07Z"/>
      <path class="cls-1" d="M902.12,416.56c-8.96-2.79-14.96-10.15-23.79-14.47,5.07.4,19.32,9.08,23.79,14.47Z"/>
      <path class="cls-1" d="M1013.72,380.4c-2.39.28-4.14-.32-5.15-1.42-3.23-3.53-7.17-5.77-11.57-7.38-.95-.35-2.07-.82-1.6-2.03.51-1.31,1.72-.66,2.57-.32,5.93,2.35,10.65,6.42,15.75,11.14Z"/>
      <path class="cls-1" d="M540.1,21.94c7.32,2.46,14.19,5.73,19.84,11.19-7.41-2.3-13.29-7.35-19.84-11.19Z"/>
      <path class="cls-1" d="M772.61,143.41c-9.39-2.72-18.05-6.82-25.46-13.33l-.13.11c8.41,4.59,18.14,6.66,25.47,13.32l.12-.1Z"/>
      <path class="cls-1" d="M983.42,388.45c-1.95-2.76-5.09-4.15-7.43-6.42-1.19-1.15-1.76-2.94-2.88-4.94,8.54,3.45,11.14,6.49,10.24,11.45-.01.01.07-.09.07-.09Z"/>
      <path class="cls-1" d="M572.41,225.3c-6.85-1.76-11.53-6.79-17.15-10.34,7.05,1.29,12.03,6.04,17.15,10.34Z"/>
      <path class="cls-1" d="M729.41,132.08c3.67,2.21,7.36,4.39,11,6.65.78.48,1.93,1.06,1.21,2.3-.45.78-1.47,1.1-2.17.57-3.69-2.78-8.18-4.66-10.88-8.59.28-.31.56-.62.84-.93Z"/>
      <path class="cls-1" d="M575.86,41.7c6.42.78,9.09,6.34,14.65,9.89-7.71-.67-9.32-7.87-14.65-9.89Z"/>
      <path class="cls-1" d="M606.89,55.84c-6.56-2.49-12.87-5.39-17.69-10.76,5.9,3.59,11.8,7.17,17.69,10.76Z"/>
      <path class="cls-1" d="M912.25,232.05c-5.13-3.9-11.05-6.74-16.15-10.78,6.48,1.91,11.88,5.44,16.15,10.78Z"/>
      <path class="cls-1" d="M679.59,320.83c-4.64-3.19-9.28-6.39-13.93-9.58.33-.47.66-.94,1-1.41,4.58,3.39,9.16,6.79,13.74,10.18-.27.27-.54.54-.81.81Z"/>
      <path class="cls-1" d="M747.15,130.08c-6.51-2.8-12.45-6.54-17.88-11.12,6.36,3.02,12.36,6.62,17.75,11.23,0,0,.13-.11.13-.11Z"/>
      <path class="cls-1" d="M610.28,266.17c-4.8-1.32-9.04-3.68-12.77-7,4.71,1.44,8.98,3.77,12.77,7Z"/>
      <path class="cls-1" d="M598.67,264.33c5.8,1.58,10.19,5.51,14.83,9.01-5.65-1.83-10.51-4.94-14.7-9.13,0,0-.13.12-.13.12Z"/>
      <path class="cls-1" d="M806.35,164.44c-4.48-2.62-8.95-5.24-13.43-7.86,5.39,1.22,10.03,3.68,13.43,7.86Z"/>
      <path class="cls-1" d="M691.18,320.92c-4.98-1.08-8.65-4.19-11.92-7.89,4.1,2.41,8.61,4.2,11.79,8.01,0,0,.13-.11.13-.11Z"/>
      <path class="cls-1" d="M950.89,388.41c3.7-4.71,6.26-1.75,9.05,1.61-3.52,1.35-5.97-2.5-9.13-1.63l.07.03Z"/>
      <path class="cls-1" d="M772.49,143.51c5.58.5,9.24,4.27,12.84,8.11-4.23-2.74-8.47-5.48-12.71-8.22,0,0-.13.11-.13.11Z"/>
      <path class="cls-1" d="M541.6,203.75c.69-.87.86-2.48,2.47-1.71,1.27.6,2.98,1.02,2.85,2.88-.08,1.11-1.13,1.69-2.17,1.31-1.27-.46-2.94-.61-3.14-2.47Z"/>
      <path class="cls-1" d="M1020.93,331.33c4.53,1.36,7.51,4.35,10.03,7.93-3.34-2.64-6.69-5.28-10.03-7.93Z"/>
      <path class="cls-1" d="M950.82,388.39c1.97,2.94,3.93,5.87,5.9,8.81,0,0,.12-.13.12-.13-1.27-.68-2.49-1.45-3.81-2.01-3.31-1.41-3.61-3.7-2.11-6.62-.03-.02-.1-.05-.1-.05Z"/>
      <path class="cls-1" d="M911.2,237.16c-3.22-.61-5.65-2.39-7.79-4.66,3.5.04,5.36,2.88,7.79,4.66Z"/>
      <path class="cls-1" d="M968.44,381.74c-3.49.79-4.96-.24-5.76-2.33-.12-.3.32-1.17.59-1.22,2.54-.43,2.9,2.06,5.17,3.54Z"/>
    </g>
    <g>
      <path class="cls-2" d="M406.02,140.74c2.96,3.32,2.18,7.69,2.84,11.52,2.7,15.7,5.9,31.2,12.11,45.96,2.3,5.48,5.36,10.27,9.87,13.75,8.47-1.27,16.78-2.93,25.16-3.67,10.46-.93,20.99-1.65,31.47-1.48,18.26.3,36.17,2.47,53.54,9.21,25.32,9.82,42.95,26.85,52.34,52.16,7.71,20.79,9.84,42.3,7.73,64.45-1.35,14.21-3.21,28.24-7.16,41.95-.32,1.12-.32,2.16.52,2.99,7.36,7.36,11.82,17.16,20.43,23.56,12.24,9.11,25.42,12.72,40.56,9.56,4.81-1,7.83-4.19,11.43-6.69,20.13-13.96,41.52-25.17,65.5-30.93,42.85-10.29,78.4,1.16,106.48,35.45,13.42,16.39,22.63,35.02,30.47,54.49,4.47,11.12,7.56,22.69,11.39,34.01.61,1.79-.22,4.03.14,5.96,1.62,8.67,9.87,13.86,18.94,11.99,23.79-4.89,47.17-11.25,69.44-21.05,23.17-10.19,44.89-22.75,62.5-41.4,14.97-9.04,20.11-25.01,26.14-39.62,6.68-16.19,3.84-33.42-1.25-49.79-6.65-21.39-18.28-40.17-32.94-56.95-21.33-24.4-46.18-45.12-70.35-66.57-29.12-25.85-59.84-49.67-91.1-72.77-23.74-17.54-48.32-33.94-73.37-49.59-27.42-17.13-55.44-33.28-84.54-47.31-39.46-19.03-80.13-35.13-122.34-47.2-20.92-5.98-41.98-11.03-63.47-14.55-13.14-2.15-25.36,1.07-37.47,4.76-20.6,6.27-38.83,16.77-53.51,32.86-8.98,9.84-16.17,20.96-20.27,33.55-2.46,7.57-2.65,15.84-3.37,23.9-.83,9.17-1.34,18.31-1.38,27.5,0,1.59.26,2.95,1.53,4"/>
      <path class="cls-2" d="M661.89,425.56c-.89,1.9-2.41,3.15-3.93,4.57-22.71,21.18-42.23,44.83-56.05,72.88-11.27,22.87-16.89,47-14.84,72.45,1.56,19.4,8.74,36.89,21.34,51.99,22.02,26.37,51.02,41.02,83.46,49.98,4.21,1.16,7.87,3.67,10.42,7.04,7.21,9.51,12.25,20.01,14.79,31.87,1.04,4.83,2.51,9.69,3.77,14.54,1.57,6.03-.22,10.95-3.85,16.08-10.04,14.17-21.32,27.33-32.19,40.82-19.64,24.38-36.36,50.85-54.83,76.06-11.38,15.53-23.54,30.41-35.58,45.4-18.07,22.5-37.48,43.88-55.62,66.34-14.29,17.68-30.5,33.75-47.35,49.06-15.81,14.36-31.71,28.64-48,42.44-16.36,13.85-33.2,27.13-49.93,40.52-8.53,6.83-17.05,13.71-26.02,19.94-16.03,11.13-33.18,20.43-50.39,29.62-24.13,12.88-49.09,23.94-74.56,33.76-21.37,8.24-43.26,15.14-65.4,21.17-21.12,5.75-42.47,10.52-64,14.34-19.83,3.52-39.83,6.1-59.95,7.64-13.31,1.02-26.62,1.76-39.98,1.51-2.29-.04-4.83.23-5.39-2.55-.43-2.15-.74-4.41,1.34-6.53,32.54-33.26,57.79-72.14,84.47-109.91,15.17-21.47,29.41-43.58,44.28-65.25,7.15-10.42,14.15-21,21.58-31.26,7.35-10.16,13.59-21.14,20.12-31.88,14.95-24.62,27.84-50.34,41.08-75.89,13.77-26.57,23.84-54.61,34.46-82.46,17.55-45.99,33.48-92.55,49.89-138.94,5.81-16.44,11.47-32.93,16.91-49.49,1.03-3.13,2.73-4.29,5.6-5,11.45-2.82,21.53-7.92,29.02-17.43,5.2-6.6,9.86-13.91,16.14-19.31,10.55-9.07,15.18-21.84,22.84-32.66,10.07-14.22,18.57-29.47,28.77-43.62,1.39-1.93,2.35-2.29,4.18-2.37,35.91-1.65,67.3-14.42,94.49-37.93,19.96-17.26,35.64-37.69,48.12-60.9,4.71-8.75,10.43-16.98,13.26-26.6,3.35-11.39,5.42-23.03,5.56-34.96.2-16.9-.08-33.73-2.9-50.49-1.62-9.66-6.8-17.4-11.59-25.47-12.11-20.4-28.16-36.74-49.51-47.42-14.57-7.29-30.04-11.04-46.45-11.12-10.11-.05-20.05.8-29.99,2.53-11.97,2.09-22.04-2.83-31.42-9.52-1.07-.76-1.56-2.53-2.03-3.93-7.59-22.54-12.28-45.62-13.02-69.45-.05-1.56-.36-3.44.82-4.42,2.16-1.81.54-3.72.69-5.57"/>
      <path class="cls-2" d="M378.53,595.45c1.44,1.98.47,3.56-.42,5.53-10.1,22.23-19.71,44.67-28.53,67.43-8.31,21.43-17.69,42.57-24.11,64.56-5.57,19.09-12.54,37.5-19.97,55.82-5.13,12.64-10.81,25.06-16.44,37.49-13.83,30.55-28.49,60.71-42.79,91.03-12.79,27.11-25.53,54.15-44.19,77.83-15.12,19.2-32.01,36.58-53.38,49.08-1.69.99-3.22,1.46-5.04,1.42"/>
      <path class="cls-2" d="M716.36,717.37c-4.59,1.28-8.47-1.5-12.44-2.67-44.42-13.17-89.07-25.41-133.94-36.99-31.17-8.04-62.49-15.38-94.04-21.58-15.57-3.06-31.38-5.72-47.43-5.21"/>
      <path class="cls-2" d="M1038.21,449.54c-.18,6.38-5.15,10.03-8.57,14.43-9.72,12.52-20.88,23.72-32.93,34.01-9.55,8.15-20.6,13.97-32,18.93-24.15,10.51-49.4,17.74-74.92,24.09-4.19,1.04-8.06.67-11.49-2.03-4.85-3.83-8.8-8.03-10.66-14.43-3.85-13.3-11.72-24.63-19.32-36.03-16.81-25.22-40.45-41.99-67.51-54.4-19.31-8.85-39.73-13.33-60.94-14.6-17.63-1.06-34.71,2.05-52.03,4.72-17.48,2.69-34.86-.05-50.41-9.68-7.09-4.39-14.73-8.4-18.9-16.02-3.33-6.09-6.9-12.41-4.6-19.93"/>
      <path class="cls-2" d="M512.46,99.27c-11.55,3.29-12.43,13.71-8.45,19.46,3.61,5.21,10.22,6.96,15.45,4.53,5.17-2.41,8.8-8.91,7.45-13.98-1.54-5.82-7.15-11.04-13.95-10.01"/>
      <path class="cls-2" d="M938.26,369.09c-11.55,3.29-12.43,13.71-8.45,19.46,3.6,5.21,10.22,6.97,15.45,4.53,5.17-2.41,8.8-8.91,7.45-13.98-1.54-5.82-7.15-11.04-13.95-10.01"/>
    </g>
  </g>
</svg>