<?xml version="1.0" encoding="UTF-8"?>
<svg id="Calque_2" data-name="Calque 2" xmlns="http://www.w3.org/2000/svg" viewBox="0 0 1813.45 895.69">
  <defs>
    <style>
      .cls-1, .cls-2 {
        fill: none;
        stroke: #fff;
        stroke-linecap: round;
        stroke-linejoin: round;
      }

      .cls-2 {
        stroke-width: 20px;
      }
    </style>
  </defs>
  <g id="Calque_1-2" data-name="Calque 1">
    <g>
      <path class="cls-1" d="M1785.25,7.21c1.54,3.74-.61,5.22-3.75,5.99-7.71,1.89-15.13,4.99-22.64,6.99-7.86,2.09-15.94,3.83-23.86,6.01-12.16,3.36-24.34,6.65-36.5,10.01-21.67,5.98-43.45,11.63-64.97,18.11-18.29,5.51-36.69,10.58-55.03,15.89-24.17,6.99-48.38,13.84-72.49,21.04-22.73,6.79-45.42,13.72-68,21.01-37.56,12.14-75.09,24.38-112.49,37.02-27.46,9.28-54.69,19.27-82.03,28.92-24.16,8.52-48.33,17.02-72.51,25.48-2.74.96-5.37,1.92-7.5,4.01-5.96,5.85-13.28,8.65-21.48,9.58-1.88.21-3.9.93-5.47,1.99-5.51,3.75-11.44,5.17-18.05,4.48-4.86-.51-9.12,2.16-13.42,3.67-7.86,2.75-16.24,4.65-23.43,8.55-11.81,6.41-24.93,8.38-37.17,13.17-12.71,4.98-25.66,9.35-38.47,14.08-15.19,5.61-30.33,11.34-45.51,16.97-3.39,1.26-6.57,2.72-8.49,6.01"/>
      <path class="cls-1" d="M1669.5,98.21c6.25-1.66,11.6-5.16,16.95-8.58,1.67-1.07,3.22-1.48,5.05-1.41,1.7.06,3.35-.05,4.49-1.51,2.59-3.32,6.01-5.2,9.97-6.61,2.4-.86,4.44-2.8,6.53-4.4,3.43-2.64,6.99-4.96,11.51-4.96,2.27,0,4.35-.51,5.98-2.05,3.69-3.48,7.77-4.77,13.02-4.7,6.22.08,11.8-3.4,17.49-5.81,7.86-3.33,15.97-5.52,24.64-6.01,1.28,6.23-.37,11.52-3.47,17.12-8.34,15.04-16.14,30.32-26.06,44.48-11.68,16.67-24.29,32.49-38.02,47.5-6.69,7.32-13.45,14.56-20.6,21.41-26.87,25.75-56.2,48.41-87.51,68.46-21.64,13.85-44.09,26.31-66.91,38.16-25.54,13.27-51.28,26.12-77.09,38.82-10.77,5.3-21.98,9.71-32.96,14.59-6.2,2.76-12.14,6.26-18.54,8.37-17.83,5.86-34.94,13.51-52.41,20.25-32.51,12.54-64.69,25.93-97.06,38.85-29.46,11.76-59.02,23.29-88.49,35.03-41.69,16.61-83.3,33.41-125.02,49.95-22.41,8.88-44.99,17.36-67.48,26.05-1.92.74-3.45,2.11-5.06,3.42-3.75,3.04-8.03,3.07-10.85-.51-4.21-5.37-8.77-10.37-11.92-16.77-3.11-6.31-6.93-12.96-13.7-16.62-2.45-1.32-3.92-3.62-5.36-5.62-5.2-7.22-10.69-14.01-18.62-18.41"/>
      <path class="cls-1" d="M991,404.71c-1.67-1.73-3.45-2.93-5.95-3.68-3.2-.96-6.48-2.02-9.18-4.69-2.57-2.53-6.56-1.19-9.87-1.05-11.18.45-22.34,1.25-33.5,1.92"/>
      <path class="cls-1" d="M1758.5,21.21c-.03,4.31-2.43,6.79-5.95,9.08-13.79,8.97-27.4,18.24-41.02,27.46-.73.49-1.35.36-2.03.46"/>
      <path class="cls-1" d="M1055.5,381.21c1.89,3.27,5.73,4.69,8.5,4.73,9.54.15,17.35,5.18,26.01,7.73,5.71,1.68,11.49,3.18,17.49,3.54"/>
      <path class="cls-1" d="M1266,355.21c-.17,0-.34-.02-.5,0-6.36,1.09-8.65-2.77-10.7-7.92-.92-2.32-.15-4.31.42-5.47,1.62-3.29,1.52-6.77,2.21-10.12.45-2.22-.04-4.43-1.39-6.51-3.87-5.98-5.42-6.19-9.47-.42-1.15,1.64-2.38,2.01-4.07,1.95"/>
      <path class="cls-1" d="M1037.5,315.21c-1.04-8.23-3.35-15.96-10.55-20.93-5.15-3.56-10.49-7.47-18.12-4.64,3.77,3.2,8.35,3.68,11.76,6.46,3.14,2.56,6.24,4.36,7.23,9.04.54,2.55,2.32,5.41,3.66,8.08,3.28,6.51,1.58,11.35-5.48,12.99"/>
      <path class="cls-1" d="M1232.5,357.21c-5.02-5.53-12.07-7.44-18.48-10.54-7.85-3.79-15.73-7.41-24.52-8.46"/>
      <path class="cls-1" d="M1768.5,78.21c-4.17,3.71-8.09,7.99-14.5,6.98-2.7-.42-4.25,2.37-6.5,2.43-10.22.29-18.9,5.77-28.49,8.11-7.75,1.89-15.65,2.79-23.51,3.98"/>
      <path class="cls-1" d="M1248,321.21c-3.23-2.85-4.84-7.12-9.2-9.11-6.12-2.78-12.22-.57-18.3-.82-2.98-.12-6,.59-9,.92"/>
      <path class="cls-1" d="M1125.5,358.21c-5,2.08-10.83,1.04-15.59,4.37-1.04.73-3.51.29-4.86-.45-7.29-3.97-15.06-1.58-22.55-1.74-7.32-.16-14.66,1.15-22,1.82"/>
      <path class="cls-1" d="M983.5,480.21c-4.42.85-8.76,1.55-13.1,3.23-5.01,1.94-10.59-.74-15.86-1.49-2.93-.41-5.66-.75-8.54-.25"/>
      <path class="cls-1" d="M952.5,325.71c7.41,2.83,15.25,3,23,3.43,5.65.31,11.27.85,17.04-.15,2.93-.51,6.8,1.02,8.95,4.22"/>
      <path class="cls-1" d="M1068.5,297.21c-3.17,4.5-5.87,9.45-9.65,13.36-3.04,3.14-6.29,6.07-8.84,9.65-2.54,3.57-4.2,7.45-3.52,11.99"/>
      <path class="cls-1" d="M1204.5,215.21c-11.45.33-22.6-2.69-34-3.06-1.02-.03-2-.94-3-1.44"/>
      <path class="cls-1" d="M1207.5,323.21c-12.18,2.8-25.02.72-37,5"/>
      <path class="cls-1" d="M1367.5,153.21c-7.74,3.52-14.8,8.27-22.86,11.36-4.57,1.75-7.49,7.33-10.66,11.63-.34.45-.98.68-1.48,1.02"/>
      <path class="cls-1" d="M935.5,356.21c.02,4.77-3.84,7.48-6.1,10.93-5.47,8.32-14.21,12.54-22.95,16.45-1.62.73-3.95,1.57-5.95.12"/>
      <path class="cls-1" d="M1038.5,324.21c6.95-12.98,1.8-28.06-10-33"/>
      <path class="cls-1" d="M1755.5,77.71c-6.88-.53-13.77.75-19.35,4.24-6.53,4.08-13.94,5.12-20.65,8.26"/>
      <path class="cls-1" d="M1285,301.71c5.83,3.74,12.18,6.64,16.57,12.45,3.67,4.86,6.96,9.68,6.93,16.05"/>
      <path class="cls-1" d="M1762.5,39.21c-4.99,3.02-10.04,6-15.12,8.79-6.45,3.55-9.13,8.18-8.38,15.21"/>
      <path class="cls-1" d="M1054.5,429.21c.93,7.01,3.21,13.7,5.04,20.49,1.14,4.23-.33,8.34-.04,12.51"/>
      <path class="cls-1" d="M1246.5,258.21c-1.65.18-2.77-1.27-3.38-2.09-2.3-3.12-5.32-2.91-8.09-1.82-5.21,2.05-10.16,2.45-15.02-.62-2.08-1.32-3.76-.5-5.52.53"/>
      <path class="cls-1" d="M1394.5,142.21c-10.76,3.06-14.75,13.26-21.39,20.6-3.15,3.48-6.35,6.72-10.66,8.25-2.48.88-4.37,2.31-6.45,3.65"/>
      <path class="cls-1" d="M1128.5,394.21c-10.92,1.18-21.24-3.22-32-3.5"/>
      <path class="cls-1" d="M1070.5,393.71c9.66,6.64,21.21,6.14,32,8.5"/>
      <path class="cls-1" d="M1204.5,275.21c2.33-7,2.44-13.77.29-21.08-1.33-4.53-3.15-6.02-7.29-5.92"/>
      <path class="cls-1" d="M1097.5,246.21c-5.24,2.71-10.31,5.65-15.96,7.61-7.09,2.45-10.77,7.56-9.06,16.39.19.96.03,2,.03,3"/>
      <path class="cls-1" d="M923,415.71c-11.45-2.1-21.83.2-31,7.5"/>
      <path class="cls-1" d="M1031.5,261.21c5.36,4.13,11.61,7.12,16.02,12.48.84,1.02,1.76,1.64,3.03.06,1.78-2.21,4.32-3.78,5.45-6.54"/>
      <path class="cls-1" d="M1111.5,363.71c3.34,4.36,8.6,3.27,13.02,4.41,4.22,1.09,8.64,1.46,12.98,2.07,1.71.24,3.02,1.21,3.7,2.55,3.82,7.56,10.2,10.5,18.3,10.47,5.09-.02,9.56,2.64,14.5,3.26"/>
      <path class="cls-1" d="M1352,189.71c-3.42-.14-5.29,1.27-6.63,4.7-2.31,5.92-5.36,11.54-11.36,14.82-5.09,2.79-4.96,9.11-8.51,12.98"/>
      <path class="cls-1" d="M928.5,300.21c-8.98-2.35-16.93,2.84-25.5,3.52-.18.01-.32.33-.5.48-8.49,7.3-20.65,5.39-29.6,11.86-2.66,1.92-6.57,2.11-10.51,3.27.78,9.54-1.17,19.22.63,28.88.65,3.48,7,5.52,10.96,3.46,1.46-.76,2.69-1.96,4.02-2.96"/>
      <path class="cls-1" d="M1266.5,300.71c5.66,2.15,10.13,6.56,16.44,7.79,2.63.51,6.02,3.13,6.06,7.21.01,1.32,1.31,1.19,2,1.75"/>
      <path class="cls-1" d="M1087.5,419.21c.4,1.6,1.57,2.49,3.01,2.98,7.83,2.67,15.69,5.23,23.99,6.02"/>
      <path class="cls-1" d="M972,421.71c1.18.18,1.96-.46,1.45-1.47-1.37-2.67-3.47-4.98-6.46-5.44-6.53-1.02-12.59-4.65-19.49-3.58"/>
      <path class="cls-1" d="M864,351.71c-1.34,4.06-.49,8.01.48,12.01,1.78,7.4,3.36,14.82,5.94,22.02,2.7,7.54,4.74,15.31,7.08,22.97,1.62,5.3,6.95,6.71,10.5,10"/>
      <path class="cls-1" d="M1219.5,224.21c-7.47-2.56-14.4.91-21.46,2.2-2.17.4-3.85,3.19-4.54,5.8"/>
      <path class="cls-1" d="M1287,218.71c-8.33,7.71-12.89,17.96-18.5,27.5"/>
      <path class="cls-1" d="M1079.5,289.21c-5.04,13.27-13.92,24.25-22.7,36.84,12.6.87,22.51-4.13,32.7-7.84"/>
      <path class="cls-1" d="M1060.5,400.21c6.78,6.86,14.49,12.43,22.96,17.08,4.38,2.4,8.71.61,13.04.92"/>
      <path class="cls-1" d="M1163.5,241.21c1.51,3.92,1.48,7.57-2.55,9.91-1.01.59-1.93,1.88-1.84,2.04,2.48,4.65-2.2,7.59-2.8,11.53-.49,3.19-3.07,5.64-6.81,6.04-4.5.47-6.94,2.98-7.52,7.49-.69,5.42-5.1,7.83-9.03,10.43-2.15,1.42-4.14,2.9-5.43,5.08-4.56,7.75-10.14,14.68-16.52,20.99"/>
      <path class="cls-1" d="M997.5,474.71c-3.65.15-6.14-2.84-9.5-3.51-2.06-.41-3.8-.77-6.08.34-3.59,1.76-7.4,2.02-11.01-1.23-2.78-2.51-6.92-3.21-10.34-1.92-3.28,1.23-5.69.94-8.61-.59-2.25-1.18-4.91-1.58-7.28-2.3-4.72,5.8-5.05,10.24-.61,15.66,2.93,3.58,2.33,7.2,1.43,11.05"/>
      <path class="cls-1" d="M1446.5,173.21c-2.92-1.34-5.32-1.51-8.62.28-4.84,2.62-10.17,4.65-15.87,5.31-2.23.26-4.34,1.57-6.51,2.41"/>
      <path class="cls-1" d="M1344.5,300.71c2.94,1.94,6.21,1.61,9.5,1.54,5.83-.12,11.67-.04,17.5-.04"/>
      <path class="cls-1" d="M923.5,433.21c-.17-.33-.36-.66-.5-1-2.87-7.36-5.77-8.69-12.98-5.44-3.09,1.39-6.24,2.32-9.52,2.94"/>
      <path class="cls-1" d="M1207.5,327.21c-3.03.34-5.84,1.4-7.96,3.54-2.92,2.95-6.68,1.83-10.05,2.38-2.6.42-5.32.08-7.99.08"/>
      <path class="cls-1" d="M876.5,320.71c.78,2.22,4.44,1.55,4.5,4.5.09,4.32-1.86,8.17-4.65,10.85-3.68,3.54-7.57,7.46-13.36,7.65"/>
      <path class="cls-1" d="M1000.5,287.21c-1.63,2.87,1,3.49,2.52,4.46,3.59,2.29,7.25,4.47,10.99,6.51,2.91,1.58,4.7,3.7,5.57,7.01.96,3.63,4.13,5.75,6.91,8.02"/>
      <path class="cls-1" d="M1131,223.21c1.3,4.72.79,9.29-3.08,12.41-4.4,3.54-7.09,8.29-10.42,12.59"/>
      <path class="cls-1" d="M1611.5,73.21c-3.75,8.54-6.77,17.5-14,24"/>
      <path class="cls-1" d="M930.5,357.21c-3.54,8.36-9.57,11.02-17,7.51-1.93-.91-2.85-2.28-3.05-4.5-.76-8.39-6.76-11.35-14.48-7.57-2.78,1.36-5.8,2.5-7.86,4.67-2.35,2.48-5.38.18-7.6,1.9"/>
      <path class="cls-1" d="M994.5,309.21c2.74,2.98,7.01,2.66,9.99,2.61,4.94-.08,8.72,2.19,13.01,3.39"/>
      <path class="cls-1" d="M1309.5,193.21c-4.49,11.76-13.12,20.62-21,30"/>
      <path class="cls-1" d="M962.5,426.21c-6.91-1.78-13.46-4.02-19.19-8.77-1.96-1.62-6.14-.56-9.31-.73"/>
      <path class="cls-1" d="M1147.5,243.21c-10.53,7.85-22.84,13.24-32,23"/>
      <path class="cls-1" d="M1046.5,386.21c7.69,1.32,12.4,7.8,19,11,1.34.65,2.67,1.33,4,2"/>
      <path class="cls-1" d="M979.5,333.71c-10.09,1.26-19.56-1.56-29-4.5"/>
      <path class="cls-1" d="M1297,317.71c4.58,7.23,5.07,14.73,1.5,22.5"/>
      <path class="cls-1" d="M1087.5,259.21c-4,3.51-5.32,8.68-7.91,13.05-1.31,2.22-2.85,4.12-4.58,5.96-1.55,1.64-3.01,1.17-4.51,0"/>
      <path class="cls-1" d="M1077.5,377.71c-4.44,2.58-9.28,1.36-13.97,1.8-5.45.51-10.67.64-16.04-.2-1.9-.3-3.98.57-5.98.9"/>
      <path class="cls-1" d="M937.5,329.21c-6.23,1.67-12.71.95-19,2.01-1.52.26-2.24-1.22-3.5-1.51"/>
      <path class="cls-1" d="M1005.5,382.21c5.06,1.93,10.34.86,15.5.88,3.97.02,7.5,2.13,11.51,1.72.98-.1,2.14.79,2.56,2.38,1.68,6.32,6.86,10.86,8.93,17.02"/>
      <path class="cls-1" d="M1044.5,288.21c-.27-3.97-1.28-7.39-6-7.99-1.76-.22-3.45-1.04-4.93-1.68-5.35-2.31-9.93-3.28-15.72-.1-4.78,2.62-10.68,3.66-16.35,4.27"/>
      <path class="cls-1" d="M1058,326.21c-11.89,5.77-21.7,14.37-31.5,23"/>
      <path class="cls-1" d="M995,287.71c-1.26.83-2.33,2.63-1.86,3.41,1.2,1.98,2.14,4.53,4.38,5.52,3.9,1.73,7.97,3.06,11.97,4.56"/>
      <path class="cls-1" d="M1136.5,378.21c-4.58.09-9.3-.98-13.53,1.96-1.94,1.35-4.42.76-6.45.4-2.83-.5-5.41-.33-8.02.63"/>
      <path class="cls-1" d="M1243.5,187.21c-3.7.73-2.7,3.42-1.92,5.47,1.14,2.98,3.19,5.54,4.67,8.4,1.21,2.35,1.22,4.35,1.25,6.63"/>
      <path class="cls-1" d="M954.5,293.71c-1.64.92-2.62,2.46-3.47,4.02-1.28,2.36-1.87,4.9-4.95,6.17-1.79.74-1.59,3.68-1.59,5.81,0,2.67,2.48,6.13-2.01,7.45-2.63.78-4.51,3.32-8.04,2.2-3.64-1.15-5.6,2.88-8.45,4.34"/>
      <path class="cls-1" d="M1039,411.21c-4.55,6.01-8.1,12.49-9.5,20"/>
      <path class="cls-1" d="M1190.5,399.21c5.01-.25,9.76-1.55,15.1.18,4.68,1.51,10.23.32,15.4.32"/>
      <path class="cls-1" d="M976.5,324.21c-.83.17-1.8.69-2.48.45-9.26-3.33-18.37-.38-27.52.55"/>
      <path class="cls-1" d="M1321,222.71c-6.16,3.53-12.06,7.43-17.48,12.02-.8.68-1.35,1.64-2.02,2.48"/>
      <path class="cls-1" d="M1306.5,209.21c-4.75,5.82-10.14,11.81-12.96,18.24-3.54,8.05-10.21,12.42-15.04,18.76"/>
      <path class="cls-1" d="M1157.5,281.21c.02,4.81-.41,9.41-3.42,13.56-1.5,2.07-2.26,4.61-5.58,3.44"/>
      <path class="cls-1" d="M1025,317.21c2.93,5.54.62,10.93-1.18,15.94-1.67,4.63-4.82,8.73-7.32,13.06"/>
      <path class="cls-1" d="M949,339.46c-1.5-.08-3.31.34-4.44-.35-3.5-2.14-6.03-.51-8.55,1.6-7.71,6.45-15.47,12.81-25,16.49"/>
      <path class="cls-1" d="M1151.75,373.71c-.08-.17-.23-.33-.24-.5-.67-9.89-2.33-11.14-12.01-9"/>
      <path class="cls-1" d="M1075.5,241.71c5.89,4.18,12.35,4.07,19,2.5"/>
      <path class="cls-1" d="M1025.5,326.21c-2.73-.65-4.88-2.38-6.96-4.05-3.57-2.87-7.51-4.54-12.04-4.95"/>
      <path class="cls-1" d="M1155.5,346.21c-6.11,2.77-12.72.78-19,2"/>
      <path class="cls-1" d="M970.5,290.71c-.5.5-.97,1.04-1.51,1.49-6.77,5.7-12.15,4.62-15.91-3.53-1.16-2.5-2.7-3.04-5.08-2.98-6.88.15-23.19,8.12-27.5,13.52,0,.33-.1.7.01.99,3.97,10.28,3.84,10.89-4.55,17.46-.61.47-1.36.65-1.46,1.55"/>
      <path class="cls-1" d="M1073.5,330.21c-5.81,2.82-12.41,4.25-16.56,9.95-1.16,1.6-2.49,2.94-2.44,5.05"/>
      <path class="cls-1" d="M952,444.21c.12-2.03-.38-3.65-2.49-4.52-5.14-2.1-10.19-4.56-16.01-2.98"/>
      <path class="cls-1" d="M1402.5,184.21c-6.59,3.39-10.83,8.55-12,16"/>
      <path class="cls-1" d="M1239.5,265.21c-7.41-.65-13.84-4.14-20.53-6.92-.93-.39-2.3.26-3.47.42"/>
      <path class="cls-1" d="M1161.5,353.71c-4.98,3.39-5.39,4.12-3.42,11.48,1.04,3.87,1.24,7.43-.58,11.02"/>
      <path class="cls-1" d="M1146,217.71c.96,8.18-3.47,13.51-9.5,18"/>
      <path class="cls-1" d="M1177,232.21c7.15,2.04,10.62,7.55,10.08,15.01-.37,5.02-.42,10.13,1.42,14.99"/>
      <path class="cls-1" d="M1169.5,332.21c-3.65,1.9-7.35,2.11-11.52,1.71-4.41-.43-8.98.79-13.48,1.29"/>
      <path class="cls-1" d="M1224.5,325.21c-2.31-.27-4.62.34-5.92,2.06-2.86,3.76-6.55,5.33-11.08,5.44"/>
      <path class="cls-1" d="M1181.75,352.71c1.52-2.34,1.71-2.54,3.73-1.47,5.43,2.86,9.87,6.78,12.52,12.47"/>
      <path class="cls-1" d="M1062,244.21c-.92,6,2.02,12,0,18"/>
      <path class="cls-1" d="M962.5,418.71c-4.17-1-8.38-1.85-12.48-3.06-2.18-.64-3.94-.65-5.52,1.06"/>
      <path class="cls-1" d="M1333.5,166.21c-7.64,5.25-10.02,14.49-16,21"/>
      <path class="cls-1" d="M921.5,403.21c-4.91-.76-9.67.54-14.5.98-1.16.11-2.33.02-3.5.02"/>
      <path class="cls-1" d="M1007.5,336.21c4.52,8.5-.68,14.08-6.03,19.47-1.99,2.01-4.3,3.69-6.47,5.53"/>
      <path class="cls-1" d="M1217.5,342.21c7.83,1.09,14.67,3.65,19.09,10.95,1.91,3.16,5.26,5.02,8.91,6.05"/>
      <path class="cls-1" d="M1011,491.71c-2.44.79-5.07,1.51-7.47.9-4.37-1.1-6.05.91-7.61,4.57-2.9,6.76-8.89,8.04-15.48,4.67-4.31-2.2-9.27-3.13-13.93-4.63"/>
      <path class="cls-1" d="M932,439.71c-3.94.29-7.4-2.2-11.52-1.61-4.05.58-7.9.96-10.48,4.61"/>
      <path class="cls-1" d="M1054.5,415.21c.87,3.88,3.92,6.46,6.14,9.39,3.39,4.47,6.4,8.87,6.86,14.61"/>
      <path class="cls-1" d="M1152,270.71c1.06,2.84.44,5.41-.96,8.02-1.66,3.08-3.04,6.31-4.54,9.48"/>
      <path class="cls-1" d="M1283,328.21c-.78-2.43-.88-5.03-2.95-7.05-2.91-2.85-5.43-2.82-7.8.55"/>
      <path class="cls-1" d="M1029,286.21c5.88,2.23,10.96,5.65,15.53,9.97,2.14,2.02,1.1,3.97.47,6.03"/>
      <path class="cls-1" d="M1237.5,219.21c-3.93-.21-7.44-1.13-10.62-3.87-1.54-1.32-3.93-2.39-6.38-2.13"/>
      <path class="cls-1" d="M1228.5,316.71c-5.67-.17-11.33-.33-17-.5"/>
      <path class="cls-1" d="M1138.5,262.71c-6.39,1.39-11.18,5.98-17,8.5"/>
      <path class="cls-1" d="M1709.5,72.71c-2.48-.72-4.58-.72-7.1.85-2.92,1.82-6.57,2.49-9.9,3.65"/>
      <path class="cls-1" d="M1093.5,291.21c-2.5,2.83-5.19,5.53-7.43,8.55-1.49,2.01-1.97,5.09-3.29,6.78-4.28,5.46-10.87,8.2-16.81,11.62-.43.25-1.3-.28-1.97-.45"/>
      <path class="cls-1" d="M1176.5,252.21c-.5-1.33-1.23-2.63-1.46-4.01-.95-5.61-4.2-11.46,2.08-16.89-6.81-.35-13.14-1.65-19.08.98-6.83,3.01-14.04,5.47-19.53,10.92"/>
      <path class="cls-1" d="M1164,250.21c2.77.83,4.06,3.12,4.94,5.52.83,2.26,1.86,4.46,3.61,5.91,4.24,3.52,3.66,7.38,1.45,11.56"/>
      <path class="cls-1" d="M1168,347.21c.8,1.6.96,3.54.4,4.96-1.6,4.02-4.07,7.69-4.9,12.04"/>
      <path class="cls-1" d="M991.5,435.71c5.1,1.95,7.31,6.33,8.91,11.03.42,1.25.56,2.53,1.59,3.47"/>
      <path class="cls-1" d="M1051,425.46c-3.46-3.84-4.1-9.67-8.55-12.67-3.21-2.16-4.41-5.08-4.95-8.58"/>
      <path class="cls-1" d="M997,494.21c-5.26-2.3-10.73-3.47-16.5-3"/>
      <path class="cls-1" d="M1163,261.71c3.71,10.23,4.09,20.41-.5,30.5"/>
      <path class="cls-1" d="M1043.5,422.21c0,4.89-.08,9.79,3.98,13.52,1.64,1.51.86,3.62,1.02,5.48"/>
      <path class="cls-1" d="M1776.5,74.71c-3.9-2.68-8.07-1.45-11.95-.32-1.48.43-2.62.93-4.05.32"/>
      <path class="cls-1" d="M967,508.21c.27,7.16,5.05,10.34,11,12.5"/>
      <path class="cls-1" d="M1184.5,342.21c5.57.17,8.05,5.41,12.34,7.79,2.87,1.59,5.46,2.94,8.66,3.21"/>
      <path class="cls-1" d="M1154.5,241.21c-4.91,4.12-9.06,9.18-15,12"/>
      <path class="cls-1" d="M982,504.21c-2.28,2.07-4.71,2.56-7.97,2.82-5.88.47-11.73-1.38-17.53.18"/>
      <path class="cls-1" d="M1028.5,395.21c-1.55,3.25-3.48,6.31-4.04,9.99-.5,3.31-3.33,5.33-4.88,8.05-1.24,2.19-3.57,3.85-3.59,6.7"/>
      <path class="cls-1" d="M959,475.71c1.23,3.88,4.8,2.9,7.51,3.43,2.05.4,4.32-.28,5.99,1.57"/>
      <path class="cls-1" d="M1160.75,341.71c-3.42-3.76-6.87-.24-10.23.18-1.19.15-2.49,1.36-4.02,1.32"/>
      <path class="cls-1" d="M1126.5,248.71c-5.54,3.13-8.15,8.87-12,13.5"/>
      <path class="cls-1" d="M960,338.71c-4.3-3.54-8.99-6.31-14.5-7.5"/>
      <path class="cls-1" d="M1235,231.21c-3.94-4.57-9.61-2.86-14.5-4"/>
      <path class="cls-1" d="M1207.5,236.21c-4.37.71-8.22,2.19-11.05,5.96-2.27,3.02-5.54,1.3-8.45,1.04"/>
      <path class="cls-1" d="M934.5,443.71c6.01-.4,9.58,3.42,13,7.5"/>
      <path class="cls-1" d="M1007,468.21c.5,1.5,1.05,2.99,1.49,4.5,1.88,6.49,1.38,5.85-4.33,9.26-3.7,2.21-6.78,1.2-10.16,1.18-2.91-.02-5.76-.04-8.5,1.06"/>
      <path class="cls-1" d="M1123,225.21c-1.61,5.32-4.56,8.78-10.45,10.21-4.2,1.02-8.4,3.36-10.55,7.79"/>
      <path class="cls-1" d="M1197.5,272.21c1.15,5.38-1.07,9.79-4,14"/>
      <path class="cls-1" d="M1712.5,86.21c-4.38,2.31-8.5,5.68-14,3.5"/>
      <path class="cls-1" d="M996.5,306.21c-6.72-3.63-13.94-1.95-21-2-1.33,0-2.67,0-4,0"/>
      <path class="cls-1" d="M1297.5,244.21c-4.6,1.42-9.13,2.99-13,6"/>
      <path class="cls-1" d="M1214.5,406.21c-1.83,1-3.78,1.84-5.48,3.03-4.21,2.94-8.71,3.42-13.52,1.97"/>
      <path class="cls-1" d="M992,406.21c4.17,7.12,4.41,15.1,5,23"/>
      <path class="cls-1" d="M992.5,354.21c-.46,5.9-4.56,9.08-9,12"/>
      <path class="cls-1" d="M917.5,336.21c-4.59-.12-8.63,2.18-13,3"/>
      <path class="cls-1" d="M935,299.21c-.56,6.51-2.08,12.92-2,19.5"/>
      <path class="cls-1" d="M944.5,389.71c-4.2-.07-8.25,1.7-12.5,1"/>
      <path class="cls-1" d="M899.5,371.21c2.75,6.52,1.64,11.77-3.5,16.5"/>
      <path class="cls-1" d="M938.5,289.71c1.18,4.46,1.92,9.1,5.5,12.5"/>
      <path class="cls-1" d="M1173.5,294.21c-6.17,3.28-11.71,7.46-17,12"/>
      <path class="cls-1" d="M979,275.21c1.79,5.25,6.41,4.57,10.5,5"/>
      <path class="cls-1" d="M909.5,386.21c-3.67,1.5-7.26,3.24-11.02,4.44-3.96,1.26-4.93,3.9-4.48,7.56"/>
      <path class="cls-1" d="M991,331.71c1.88,5.13,8.1,4.27,11,8"/>
      <path class="cls-1" d="M959.5,453.21c-2.81-1-1.27-2.61-.48-3.99,1.46-2.55,4.03-2.89,6.46-2.42,2.17.42,4.22,1.27,6.49,1.58,1.52.21,3.04.06,4.52.33"/>
      <path class="cls-1" d="M1271.5,248.21c-2.67,4-5.33,8-8,12"/>
      <path class="cls-1" d="M910,361.71c-3.32,2.85-7.49,4.41-10.23,8.34-1.55,2.23-5.48,2.74-8.25,4.19-1.65.87-3.09,2.1-3.77,3.97"/>
      <path class="cls-1" d="M1237.5,215.21c.15,3.56,4.51,13.52,7,16"/>
      <path class="cls-1" d="M849,376.96c-5.47,1.46-5.02,6.35-5.34,10.26-.29,3.5-.49,6.85-2.16,9.99"/>
      <path class="cls-1" d="M1374.5,184.21c.78,4.34-2.22,7.84-2.77,11.96-.26,1.92-2.96,4.58-6.23,2.54"/>
      <path class="cls-1" d="M942,453.21c1.45,3.89,3.6,7.6,3,12"/>
      <path class="cls-1" d="M1741.5,64.71c-.32,3.69,1.17,7.9-3,10.5"/>
      <path class="cls-1" d="M1290.5,330.21c-.61,3.82-2.24,7.34-1.72,11.53.39,3.12-2.54,5.77-4.28,8.47"/>
      <path class="cls-1" d="M1194.5,223.71c-4.2,1.04-7.64,3.3-10.5,6.5"/>
      <path class="cls-1" d="M1140.5,352.21c-5.81,2.42-12.08.62-18,2"/>
      <path class="cls-1" d="M892.5,310.71c.08,3.91.11,7.81-1.5,11.5"/>
      <path class="cls-1" d="M931,379.21c-1.7,7.21,1.17,14.28.71,21.51-.17,2.69,3.23,4.83,5.82,5.3,3.05.56,5.86,1.98,8.97,2.18"/>
      <path class="cls-1" d="M912.5,364.71c-.42,4.15.05,8.61-4,11.5"/>
      <path class="cls-1" d="M1317.5,195.71c-2.18,4.47-6.31,7.42-9,11.5"/>
      <path class="cls-1" d="M904,350.71c-.5-6.46-1.07-12.92,1.88-19.05-4.44-1.78-8.75-.17-11.88,4.55"/>
      <path class="cls-1" d="M895,348.71c-4.39-3.75-7.71.67-11.5,1.5"/>
      <path class="cls-1" d="M1013,328.71c-3.92-2.89-8.69-4.53-11.6-8.94-1.72-2.6-4.68-4.05-7.9-4.56"/>
      <path class="cls-1" d="M1327,227.21c.96,6.57,2.44,13.21-2.5,19"/>
      <path class="cls-1" d="M1061.5,270.21c2.33,3.3,3.04,7.05,3,11"/>
      <path class="cls-1" d="M1141.5,275.21c-4.07-1.53-7.54.22-11,2"/>
      <path class="cls-1" d="M986.5,341.21c-4.14-.39-6.65,2.16-9,5"/>
      <path class="cls-1" d="M888.5,375.71c-4.95-2.08-9-1.13-12.01,3.5-1.42,2.18-3.88,2.84-5.99,4"/>
      <path class="cls-1" d="M1080.5,430.21c7.79,2.88,10.82,10.52,16,16"/>
      <path class="cls-1" d="M1372.5,180.21c-2.78,3.05-4.51,6.71-6,10.5"/>
      <path class="cls-1" d="M1108.5,351.21c-3.53,1.87-7.24,1.73-11,1"/>
      <path class="cls-1" d="M874.5,327.71c-3.58,1.21-7.13,2.57-11,2.5"/>
      <path class="cls-1" d="M973.5,361.71c-5.51.46-10.93,1.14-15,5.5"/>
      <path class="cls-1" d="M1292,318.71c2.21,3.17,2.65,6.77,2.5,10.5"/>
      <path class="cls-1" d="M1223,355.71c2.47,3.07,7.22,4.45,7,9.5"/>
      <path class="cls-1" d="M1106.5,374.21c-3.81-.2-7.1,1.1-10,3.5"/>
      <path class="cls-1" d="M1694.5,164.21c-3.32,2.35-6.25,5.26-10,7"/>
      <path class="cls-1" d="M1140.5,296.21c.14,1.09.27,2.17.4,3.22,2.83,1,5.12-.63,7.6-1.22"/>
      <path class="cls-1" d="M1098.5,369.21c-3.39-.16-6.91.64-10-1.5"/>
      <path class="cls-1" d="M1172.5,237.71c-3.24.28-6.89-1.02-9.13,2.92-.4.7-2.53.41-3.87.58"/>
      <path class="cls-1" d="M964,307.21c-.36,5.26,4.66,3.68,7,5.5"/>
      <path class="cls-1" d="M1142.5,308.71c-1.69,3.54-4.43,5.97-8,7.5"/>
      <path class="cls-1" d="M1107.5,246.71c1.07,5.02-3.35,7.66-5,11.5"/>
      <path class="cls-1" d="M1177.5,379.21c-4.1-4.54-8.8-6.05-14.52-3.03-1.05.55-2.32.7-3.48,1.03"/>
      <path class="cls-1" d="M1029.5,413.21c-2.81,4.76-5.63,9.29-12.52,7.06-3.14-1.01-4.41,2.74-6.98,3.44"/>
      <path class="cls-1" d="M1188.5,275.21c-5,2.22-7.73,6.93-11.5,10.5"/>
      <path class="cls-1" d="M1144.5,339.21c-5.61,1.14-11.29,1.53-17,1.5"/>
      <path class="cls-1" d="M1104.5,443.71c.04,3.32.37,6.69-2,9.5"/>
      <path class="cls-1" d="M994,461.71c2.92,1.83,5.85,3.65,9.5,3.5"/>
      <path class="cls-1" d="M1071,265.71c-1,.5-2.01.98-3,1.5-6.04,3.23-11.31,1.81-15.01-4-1.09-1.71-2.32-3.34-3.49-5.01"/>
      <path class="cls-1" d="M1022.5,490.21c-2.84,1.57-4.9,5.17-9,3.5"/>
      <path class="cls-1" d="M882.5,388.71c-3.5-.51-6.06,1.81-9,3"/>
      <path class="cls-1" d="M1248.5,364.21c-.33.17-.65.43-1,.49-8.89,1.27-9.48,2.11-8,11.51"/>
      <path class="cls-1" d="M1225.5,334.21c-3.04-.24-6.31.84-9-1.5"/>
      <path class="cls-1" d="M1005.5,453.46c-1.45,2.08-2.19,10.62-.99,12.24,1.49,2.01,3.17,2.87,5.52,1.05.92-.71,2.06-1.54,3.46-1.05"/>
      <path class="cls-1" d="M1036.5,397.71c-3.17,2.15-5.37,5.08-7,8.5"/>
      <path class="cls-1" d="M952.5,362.21c.71,2.96,1.22,5.94,1,9"/>
      <path class="cls-1" d="M1176.5,388.71c1.4.25,1.9,2.45,3.49,1.96,7.42-2.29,13.31,1.77,19.51,4.54"/>
      <path class="cls-1" d="M1208,268.71c1.47,1.21,2.93,2.43,4.4,3.64,1.64-.72,2.61-2.59,4.6-2.14"/>
      <path class="cls-1" d="M945.5,311.21c3.69-.12,5.66,2.34,7.5,5"/>
      <path class="cls-1" d="M1341.5,292.21c3.84,2.83,4.04,6.56.5,9.25"/>
      <path class="cls-1" d="M933,416.71c-2.83,1.31-5.67,1.73-8.5,0"/>
      <path class="cls-1" d="M1349.5,180.21c-5.76.15-9.56,4.21-14,7"/>
      <path class="cls-1" d="M1003,322.71c-2.83.5-5.67,1-8.5,1.5"/>
      <path class="cls-1" d="M1159,252.21c-3.1-1.93-5.74.04-8.5,1"/>
      <path class="cls-1" d="M996,346.71c-2.91,1.09-5.68-.06-8.5-.5"/>
      <path class="cls-1" d="M905.5,320.21c-1.16.17-2.2-.19-2.16,2,.05,2.77,1.39,5.26,1.16,8"/>
      <path class="cls-1" d="M1035.5,433.71c-3.09.33-5.02,2.45-7,4.5"/>
      <path class="cls-1" d="M1437,132.21c1.03,2.78.52,5.66.5,8.5"/>
      <path class="cls-1" d="M1260,269.71c-2.83,1.83-5.67,3.67-8.5,5.5"/>
      <path class="cls-1" d="M934.5,411.21c-1.11,4.27-2.16,8.55-1.01,13,.5,1.95-1.39,3.31-1.42,5-.07,3.33-.49,6.93.59,9.94,1.94,5.41-.98,8.82-3.66,12.56"/>
      <path class="cls-1" d="M1117,346.71c-2.96-2.04-5.65.6-8.5.5"/>
      <path class="cls-1" d="M875.5,371.71c-2.67.51-5.11,2.17-8,1.5"/>
      <path class="cls-1" d="M1125.5,344.21c-5.65.8-9.91,3.45-12,9"/>
      <path class="cls-1" d="M873.5,359.21c-2.88.68-4.74,3.69-8,3.5"/>
      <path class="cls-1" d="M964.5,453.71c4.35,1.81,9.27,3.09,8.57,9.51-.03.28.93.66,1.43.99"/>
      <path class="cls-1" d="M1362.5,171.71c.95,3.22.82,6.05-2.47,8.05-.86.52-1.29,1.69-2.04,2.44-3.3,3.34-6.64,6.55-4.59,12.05.39,1.06-.56,2.63-.9,3.96"/>
      <path class="cls-1" d="M982.5,316.71c-2.52,1.3-5.05,2.49-8,1.5"/>
      <path class="cls-1" d="M978.5,311.21c1.17.67,3.24,1.21,3.36,2.02.84,6.06,5.89,4.91,9.64,5.98"/>
      <path class="cls-1" d="M985.5,417.21c-1.43-2.19-.85-6.07-5-6"/>
      <path class="cls-1" d="M1042.5,425.71c-4.16-.52-7.83,4.9-5.87,9.44,1.14,2.65.86,4.72-.13,7.06"/>
      <path class="cls-1" d="M1051,276.21c1.17,2.67,2.33,5.33,3.5,8"/>
      <path class="cls-1" d="M898,365.71c-2.19-.15-4.67-3.98-6.5.5"/>
      <path class="cls-1" d="M1078.5,304.21c-.93,2.53-4.17,4.13-3,7.5"/>
      <path class="cls-1" d="M999,269.71c.61,2.47,4.03,4.75.5,7.5"/>
      <path class="cls-1" d="M1218.5,205.21c4.72-.5,7.6,2.53,10.5,5.5"/>
      <path class="cls-1" d="M1147,381.21c-2.04,2.39-5.13.84-7.5,2"/>
      <path class="cls-1" d="M896.5,390.21c-.36-2.39-1.39-3.86-3.98-2.47-1.38.74-3.09.98-4.02,2.47"/>
      <path class="cls-1" d="M1216.5,263.21c4.83-1.04,7.03,2.46,9.47,5.61-.33,1.39-2.59,1.54-2.47,3.39"/>
      <path class="cls-1" d="M1195.5,244.21c1.17,5,2.33,10,3.5,15"/>
      <path class="cls-1" d="M1577.5,108.38c-1.65.18-2.77-1.27-3.38-2.09-2.3-3.12-5.32-2.91-8.09-1.82-5.21,2.05-10.16,2.45-15.02-.62-2.08-1.32-3.76-.5-5.52.53"/>
      <path class="cls-1" d="M1535.5,125.38c2.33-7,2.44-13.77.29-21.08-1.33-4.53-3.15-6.02-7.29-5.92"/>
      <path class="cls-1" d="M1570.5,115.38c-7.41-.65-13.84-4.14-20.53-6.92-.93-.39-2.3.26-3.47.42"/>
      <path class="cls-1" d="M1528.5,122.38c1.15,5.38-1.07,9.79-4,14"/>
      <path class="cls-1" d="M1539,118.88c1.47,1.21,2.93,2.43,4.4,3.64,1.64-.72,2.61-2.59,4.6-2.14"/>
      <path class="cls-1" d="M1547.5,113.38c4.83-1.04,7.03,2.46,9.47,5.61-.33,1.39-2.59,1.54-2.47,3.39"/>
      <path class="cls-1" d="M1526.5,94.38c1.17,5,2.33,10,3.5,15"/>
      <path class="cls-1" d="M1149,299.21c1.18,3.17.37,5.58-2.47,7.54-2.61,1.8-4.68,1.95-7.14-.42-.74-.71-2.42-.65-2.88-2.12"/>
      <path class="cls-1" d="M1047.5,342.21c-1.98,1.69-2.42,5.11-6,5.14-.51,0-1,1.86-1.5,2.86"/>
      <path class="cls-1" d="M1055.5,340.71c-2.55-.61-5.11-1.33-7.5.5"/>
      <path class="cls-1" d="M1488.58,182.27c-1.04-8.23-3.35-15.96-10.55-20.93-5.15-3.56-10.49-7.47-18.12-4.64,3.77,3.2,8.35,3.68,11.76,6.46,3.14,2.56,6.24,4.36,7.23,9.04.54,2.55,2.32,5.41,3.66,8.08,3.28,6.51,1.58,11.35-5.48,12.99"/>
      <path class="cls-1" d="M1519.58,164.27c-3.17,4.5-5.87,9.45-9.65,13.36-3.04,3.14-6.29,6.07-8.84,9.65-2.54,3.57-4.2,7.45-3.52,11.99"/>
      <path class="cls-1" d="M1489.58,191.27c6.95-12.98,1.8-28.06-10-33"/>
      <path class="cls-1" d="M1530.58,156.27c-5.04,13.27-13.92,24.25-22.7,36.84,12.6.87,22.51-4.13,32.7-7.84"/>
      <path class="cls-1" d="M1495.58,155.27c-.27-3.97-1.28-7.39-6-7.99-1.76-.22-3.45-1.04-4.93-1.68-5.35-2.31-9.93-3.28-15.72-.1-4.78,2.62-10.68,3.66-16.35,4.27"/>
      <path class="cls-1" d="M1509.08,193.27c-11.89,5.77-21.7,14.37-31.5,23"/>
      <path class="cls-1" d="M1524.58,197.27c-5.81,2.82-12.41,4.25-16.56,9.95-1.16,1.6-2.49,2.94-2.44,5.05"/>
      <path class="cls-1" d="M1480.08,153.27c5.88,2.23,10.96,5.65,15.53,9.97,2.14,2.02,1.1,3.97.47,6.03"/>
      <path class="cls-1" d="M1544.58,158.27c-2.5,2.83-5.19,5.53-7.43,8.55-1.49,2.01-1.97,5.09-3.29,6.78-4.28,5.46-10.87,8.2-16.81,11.62-.43.25-1.3-.28-1.97-.45"/>
      <path class="cls-1" d="M1559.58,218.27c-3.53,1.87-7.24,1.73-11,1"/>
      <path class="cls-1" d="M1529.58,171.27c-.93,2.53-4.17,4.13-3,7.5"/>
      <path class="cls-1" d="M1498.58,209.27c-1.98,1.69-2.42,5.11-6,5.14-.51,0-1,1.86-1.5,2.86"/>
      <path class="cls-1" d="M1506.58,207.77c-2.55-.61-5.11-1.33-7.5.5"/>
      <path class="cls-1" d="M953.5,430.21c1.66,5.42,6.51,6.46,11,8"/>
      <path class="cls-1" d="M938.5,321.71c2.18,2.36,4.66.36,7,.5"/>
      <path class="cls-1" d="M1238.5,332.21c-4.16-1.74-7.97-5.26-13-2.5"/>
      <path class="cls-1" d="M993.5,341.21c4.11,3.61,5,7.44,3,13"/>
      <path class="cls-1" d="M1050,426.21c-2.11,1.92.11,5.08-2,7"/>
      <path class="cls-1" d="M919.5,409.21c-2.45-.03-4.83.26-7,1.5"/>
      <path class="cls-1" d="M1219.5,246.21c-2.81.77-6.82-3.55-8.5,2"/>
      <path class="cls-1" d="M1148,229.71c-1.23,2.18-2.03,4.45-1.5,7"/>
      <path class="cls-1" d="M907,313.21c-2.4,1.73-2.85,4.3-3,7"/>
      <path class="cls-1" d="M1356.5,182.21c-2.52-.95-4.88-.84-7,1"/>
      <path class="cls-1" d="M1042.5,384.21c-2.31.44-4.81-1.72-7,.5"/>
      <path class="cls-1" d="M979.5,459.21c-1.57-3.08-4.26-1.33-6.5-1.5"/>
      <path class="cls-1" d="M1440.5,141.21c-3.43-.65-6.55,1.88-10,1"/>
      <path class="cls-1" d="M1338.5,217.21c-5.17,2.16-3.48,7.14-4.5,11"/>
      <path class="cls-1" d="M1189.5,384.21c.94,2.11.33,4.33.5,6.5"/>
      <path class="cls-1" d="M953.5,359.71c-.5-1-.92-2.05-1.52-2.99-1.03-1.61-1.16-4.34-3.98-3.97-3.14.41-3.65,2.78-3.53,5.46.01.33-.31.67-.48,1"/>
      <path class="cls-1" d="M1166.5,340.21c1.16,2.33,2.62,4.67,0,7"/>
      <path class="cls-1" d="M1098.5,439.21c3.3,4.2,7.59,3.64,12,2.5"/>
      <path class="cls-1" d="M848,428.71c4.97.62,7.54,4.24,10,8"/>
      <path class="cls-1" d="M876,361.71c-2.68,3.64-6.61,3.51-10.5,3.5"/>
      <path class="cls-1" d="M1269.5,340.71c-1.83,2-3.67,4-5.5,6"/>
      <path class="cls-1" d="M979.5,420.21c-2.39-.05-4.66.28-6.61,2.1.71,1.96,1.06,4.2,3.61,4.9"/>
      <path class="cls-1" d="M956.5,352.21c-2.21-.91-3.96.9-6,1"/>
      <path class="cls-1" d="M1327.5,192.21c-2,1.67-4,3.33-6,5"/>
      <path class="cls-1" d="M957.5,312.21c2.07.65,4.12,1.07,6-.5"/>
      <path class="cls-1" d="M1348.5,175.21c-2.06,1.31-3.82,2.83-4,5.5"/>
      <path class="cls-1" d="M1200,353.21c-.21,2.43,1.43,4.1,2.5,6"/>
      <path class="cls-1" d="M1184.5,218.71c-2.12.77-4.39,1.21-6,3"/>
      <path class="cls-1" d="M1329.5,163.21c-.07,2-1.16,4,0,6"/>
      <path class="cls-1" d="M950.5,304.71c1.68,1.72,3.93,2.46,6,3.5"/>
      <path class="cls-1" d="M1243.5,207.21c5.29-.56,6.12,3.01,6.5,7"/>
      <path class="cls-1" d="M964.5,338.21c-1.81.01-3.49-.06-5.07,1.42-1.3,1.23-2.67,2.93-4.93,2.58"/>
      <path class="cls-1" d="M1202.5,363.71c-3.35-.75-5.56.02-5.52,4,.01,1.17.39,2.43-.48,3.5"/>
      <path class="cls-1" d="M996.5,401.21c-1.83.67-3.67,1.33-5.5,2"/>
      <path class="cls-1" d="M953.5,346.21c-2.45-.47-5.22-.98-6.85,1.12-.8,1.03-.88,3.49.85,4.88"/>
      <path class="cls-1" d="M1125,383.71c1.45,1.92,3.54,1.46,5.5,1.5"/>
      <path class="cls-1" d="M1048.5,402.21c-2.16-.12-2.93-3.28-5.5-2.5"/>
      <path class="cls-1" d="M1395.07,241.49c3.46,1.52,7.39.39,9.65-1.22,7.78-5.53,17.06-6.09,25.54-9.16,5.6-2.02,11.15-4.23,16.19-7.49"/>
      <path class="cls-1" d="M1422.67,280.78c4.9,5.1,10.69,9.15,16.19,13.53,3.42,2.73,4.67,6.92,7.37,10.11"/>
      <path class="cls-1" d="M1461.62,208.78c-8.11,7.41-19.02,9.97-27.87,16.11"/>
      <path class="cls-1" d="M1414.56,242.7c11.71-.36,20.73-7.59,30.83-12.08"/>
      <path class="cls-1" d="M1443.36,253.2c1.27,1.05,2.74,1.08,4.19.63,7.89-2.48,15.74-5.07,22.9-9.35"/>
      <path class="cls-1" d="M1410.35,253.85c9.53,1.52,19.03,1.45,28.61.18,4.95-.65,7.38-4.66,11.06-6.97"/>
      <path class="cls-1" d="M1390.78,250.85c6.98-3.49,14.61-1.05,21.83-2.37,1.47-.27,2.94-.51,4.41-.76"/>
      <path class="cls-1" d="M1410.74,225.65c-2.05,4.71-6.68,6.59-10.2,9.72-4.09,3.64-8.22,6.83-13.05,9.33-1.71.88-2.88,2.81-4.29,4.27"/>
      <path class="cls-1" d="M1355.36,271.88c5.22-1.44,8.85-5.43,13.02-8.46,3.21-2.33,7.31-2.72,10.3-5.42.73-.66,2.19-.62,3.47.4,5.1,4.1,11.96,4.7,17.27,8.44"/>
      <path class="cls-1" d="M1458.6,191.15c-3.64,2.79-8.08,4.71-9.74,9.59-.76,2.24-3.11,3.23-4.96,4.14-2.58,1.27-4.55,2.93-6.09,5.26"/>
      <path class="cls-1" d="M1399.52,275.44c-.11,7.54.86,14.87,4.17,21.74"/>
      <path class="cls-1" d="M1414.38,269.5c3,2.61,6.98,2.89,10.51,3.94,5.38,1.6,10.41,3.36,14.17,7.72"/>
      <path class="cls-1" d="M1417.63,279.83c-5.05-1.05-9.03-5.37-14.39-5.16-3.87.15-6.56-1.48-9.06-3.99"/>
      <path class="cls-1" d="M1409.66,281.65c2.9,3.94,5.73,7.94,11.21,8.54,2.22.24,2.83,2.41,4.06,3.82"/>
      <path class="cls-1" d="M1381.59,268.75c.67,3.53.93,7.15,2.66,10.45,1.55,2.96.47,6.27.83,9.38.3,2.5-.6,5.22,1.07,7.52"/>
      <path class="cls-1" d="M1444.22,266.2c7.98-2.29,14.94,2.08,22.37,3.43"/>
      <path class="cls-1" d="M1393.05,282.67c.55,5.5.96,10.82-5.92,13.1-3.13,1.04-1.94,4.82-3.59,6.9"/>
      <path class="cls-1" d="M1471.56,262.89c1.99,2.65,4.26,5.17,4.01,8.84"/>
      <path class="cls-1" d="M1389.52,266.04c-1.28,3.6-1.33,7.28-.61,10.99"/>
      <path class="cls-1" d="M1410.01,295.65c-2.3,2.09-2.59,4.95-2.98,7.77"/>
      <path class="cls-1" d="M1410.92,285.06c-3.65,2.04-3.41,8.58.86,11.09,2.48,1.46,3.49,3.3,4.07,5.77"/>
      <path class="cls-1" d="M1417.27,281.03c-.56,2.8,3.09,4.03,2.53,6.83"/>
      <path class="cls-1" d="M1386.37,251.6c-1.6,1.73-4.9,1.46-5.35,4.54"/>
      <path class="cls-1" d="M1464.06,262.81c5.15,1.44,8.27-1.56,11.15-5.08"/>
      <path class="cls-1" d="M1401.86,262.56c-1.81,1.18-4.31-.91-5.91,1.24"/>
      <path class="cls-1" d="M1237.5,320.21c.94,4.12-3.84,5.22-4.5,8.5"/>
      <path class="cls-1" d="M936.5,377.21c-2.67.51-5.33,2.03-8,0"/>
      <path class="cls-1" d="M1134.5,354.71c.11,2.24-1.08,3.61-3,4.5"/>
      <path class="cls-1" d="M1108,243.21c.17,1.84-.04,3.29-2.5,3.02-1.32-.14-2.66-.02-4-.02"/>
      <path class="cls-1" d="M1288,319.21c-1.06,1.58-.23,3.34-.5,5"/>
      <path class="cls-1" d="M1510.08,279.37c-.17,0-.34-.02-.5,0-6.36,1.09-8.65-2.77-10.7-7.92-.92-2.32-.15-4.31.42-5.47,1.62-3.29,1.52-6.77,2.21-10.12.45-2.22-.04-4.43-1.39-6.51-3.87-5.98-5.42-6.19-9.47-.42-1.15,1.64-2.38,2.01-4.07,1.95"/>
      <path class="cls-1" d="M1529.08,225.87c5.83,3.74,12.18,6.64,16.57,12.45,3.67,4.86,6.96,9.68,6.93,16.05"/>
      <path class="cls-1" d="M1510.58,224.87c5.66,2.15,10.13,6.56,16.44,7.79,2.63.51,6.02,3.13,6.06,7.21.01,1.32,1.31,1.19,2,1.75"/>
      <path class="cls-1" d="M1541.08,241.87c4.58,7.23,5.07,14.73,1.5,22.5"/>
      <path class="cls-1" d="M1527.08,252.37c-.78-2.43-.88-5.03-2.95-7.05-2.91-2.85-5.43-2.82-7.8.55"/>
      <path class="cls-1" d="M1534.58,254.37c-.61,3.82-2.24,7.34-1.72,11.53.39,3.12-2.54,5.77-4.28,8.47"/>
      <path class="cls-1" d="M1536.08,242.87c2.21,3.17,2.65,6.77,2.5,10.5"/>
      <path class="cls-1" d="M1513.58,264.87c-1.83,2-3.67,4-5.5,6"/>
      <path class="cls-1" d="M1532.08,243.37c-1.06,1.58-.23,3.34-.5,5"/>
      <path class="cls-1" d="M1694.5,80.21c1.67.5,3.33,1,5,1.5"/>
      <path class="cls-1" d="M902.5,321.21c-1.67,1-3.33,2-5,3"/>
      <path class="cls-1" d="M1200.5,334.71c1.21,2.03,3.21,1.42,5,1.5"/>
      <path class="cls-1" d="M975.5,299.21c2.64-.4,4.63.9,6.5,2.5"/>
      <path class="cls-1" d="M1292,228.71c-2.26-.54-2.72,2.16-4.5,2.5"/>
      <path class="cls-1" d="M935.5,405.71c-.27,1.49.62,3.11-.5,4.5"/>
      <path class="cls-1" d="M945,430.71c.61,1.61,2.96.79,3.5,2.5"/>
      <path class="cls-1" d="M1311.5,198.21c-.74,1.51-2.11,1.53-3.5,1.5"/>
      <path class="cls-1" d="M960.5,432.21c-.33,1.33-.67,2.67-1,4"/>
      <path class="cls-1" d="M943,343.21c-1.51,1.72-4.08,2.99-2.5,6"/>
      <path class="cls-1" d="M1623,141.88c7.41,2.83,15.25,3,23,3.43,5.65.31,11.27.85,17.04-.15,2.93-.51,6.8,1.02,8.95,4.22"/>
      <path class="cls-1" d="M1606,172.38c.02,4.77-3.84,7.48-6.1,10.93-5.47,8.32-14.21,12.54-22.95,16.45-1.62.73-3.95,1.57-5.95.12"/>
      <path class="cls-1" d="M1601,173.38c-3.54,8.36-9.57,11.02-17,7.51-1.93-.91-2.85-2.28-3.05-4.5-.76-8.39-6.76-11.35-14.48-7.57-2.78,1.36-5.8,2.5-7.86,4.67-2.35,2.48-5.38.18-7.6,1.9"/>
      <path class="cls-1" d="M1650,149.88c-10.09,1.26-19.56-1.56-29-4.5"/>
      <path class="cls-1" d="M1608,145.38c-6.23,1.67-12.71.95-19,2.01-1.52.26-2.24-1.22-3.5-1.51"/>
      <path class="cls-1" d="M1625,109.88c-1.64.92-2.62,2.46-3.47,4.02-1.28,2.36-1.87,4.9-4.95,6.17-1.79.74-1.59,3.68-1.59,5.81,0,2.67,2.48,6.13-2.01,7.45-2.63.78-4.51,3.32-8.04,2.2-3.64-1.15-5.6,2.88-8.45,4.34"/>
      <path class="cls-1" d="M1647,140.38c-.83.17-1.8.69-2.48.45-9.26-3.33-18.37-.38-27.52.55"/>
      <path class="cls-1" d="M1619.5,155.63c-1.5-.08-3.31.34-4.44-.35-3.5-2.14-6.03-.51-8.55,1.6-7.71,6.45-15.47,12.81-25,16.49"/>
      <path class="cls-1" d="M1630.5,154.88c-4.3-3.54-8.99-6.31-14.5-7.5"/>
      <path class="cls-1" d="M1605.5,115.38c-.56,6.51-2.08,12.92-2,19.5"/>
      <path class="cls-1" d="M1644,177.88c-5.51.46-10.93,1.14-15,5.5"/>
      <path class="cls-1" d="M1623,178.38c.71,2.96,1.22,5.94,1,9"/>
      <path class="cls-1" d="M1616,127.38c3.69-.12,5.66,2.34,7.5,5"/>
      <path class="cls-1" d="M1609,137.88c2.18,2.36,4.66.36,7,.5"/>
      <path class="cls-1" d="M1624,175.88c-.5-1-.92-2.05-1.52-2.99-1.03-1.61-1.16-4.34-3.98-3.97-3.14.41-3.65,2.78-3.53,5.46.01.33-.31.67-.48,1"/>
      <path class="cls-1" d="M1627,168.38c-2.21-.91-3.96.9-6,1"/>
      <path class="cls-1" d="M1635,154.38c-1.81.01-3.49-.06-5.07,1.42-1.3,1.23-2.67,2.93-4.93,2.58"/>
      <path class="cls-1" d="M1624,162.38c-2.45-.47-5.22-.98-6.85,1.12-.8,1.03-.88,3.49.85,4.88"/>
      <path class="cls-1" d="M1613.5,159.38c-1.51,1.72-4.08,2.99-2.5,6"/>
      <path class="cls-1" d="M1235.5,358.21c-2.44-1.27-4.27-.07-6,1.5"/>
    </g>
    <g>
      <path class="cls-2" d="M857.76,311.04c-.5,2-1.48,4.01-1.42,5.99.33,10.83.88,21.66,1.43,32.48.57,11.41,4.47,21.88,8.29,32.55,5.44,15.21,9.51,30.91,14.2,46.4,2.63,8.67,5.14,17.38,8.03,25.97,4.43,13.19,7.07,26.75,8.95,40.49,1.87,13.65,4.29,27.27,5.3,40.99.73,9.92-.35,19.98-.85,29.96-.18,3.54-1,7.04-1.57,10.76-6.7.3-10.57,8.02-18.12,6.14-2.8,4.66-2.6,10.61.82,14.16,6.26-1.18,12.56-2.59,18.93-3.49,3.04-.43,4.62-1.33,5.04-4.58,1.7-13.01,4.01-25.95,5.34-38.99,1.87-18.39.43-36.73-2.43-54.95-1.03-6.52-2.44-12.97-3.73-19.74,7.51-2.5,14.85-4.95,22.95-7.65,15.12,19.53,27.67,41.42,46.97,57.83,19.04-7.6,37.65-15.05,56.28-22.44,35.31-14.01,70.63-27.99,105.95-41.98,35.32-13.99,70.67-27.88,105.94-42,38.36-15.37,76.7-30.81,114.94-46.49,31.57-12.94,63.22-25.74,94.39-39.61,21.42-9.53,42.17-20.6,63.02-31.35,22.78-11.75,45.58-23.51,67.94-36.03,28.09-15.73,54.87-33.58,79.45-54.44,14.38-12.2,28.4-24.88,41.98-37.97,24.78-23.89,45.66-51.01,63.49-80.41,14.64-24.14,25.65-49.97,33.99-76.93.42-1.37.05-2.98.05-5.71-4.83,1.2-8.94,2.12-12.99,3.25-30.33,8.47-60.67,16.88-90.95,25.49-50.66,14.41-101.32,28.86-151.92,43.48-35.7,10.32-71.42,20.59-106.92,31.58-23.04,7.13-45.68,15.55-68.51,23.35-40.97,14.01-82.05,27.74-122.92,42.04-47.74,16.71-95.3,33.95-142.96,50.88-20.95,7.44-42.08,14.38-62.93,22.09-22.46,8.3-44.63,17.36-67.01,25.87-34.44,13.1-68.95,26.01-103.44,38.99-1.28.48-2.63.79-3.4,1.02-4.66-2.85-8.96-5.29-13.06-8.04-3.35-2.25-6.66-1.77-10.02-.44-24,9.46-47.96,19.03-71.98,28.45-28.63,11.23-57.28,22.38-85.96,33.48-32.8,12.71-65.68,25.19-98.43,38.02-33.55,13.15-67.03,26.5-100.45,39.97-30.21,12.17-60.37,24.5-90.45,36.98-26.06,10.81-51.98,21.97-77.98,32.94-22.98,9.69-46.13,18.97-68.93,29.07-34.68,15.37-68.78,31.97-102.52,49.31-25.64,13.18-51.61,25.7-77.42,38.55-20.47,10.19-40.93,20.43-61.97,30.94,0,2.04-.44,4.63.07,7.02,5.69,26.63,16.23,51.33,30.46,74.44,15.51,25.2,34.31,47.72,55.86,68.05,20.51,19.35,42.84,36.25,66.57,51.35,9.76,6.21,19.87,11.85,29.51,17.56,5.14-.27,7.61-3.76,9.87-7.06,6.59-9.62,13.45-19.1,22.64-26.32,7.72-6.06,16.1-11.32,24.42-16.56,21.08-13.28,42.2-26.5,63.46-39.48,29.4-17.96,58.8-35.94,88.48-53.42,26.1-15.37,52.34-30.53,79.01-44.88,17.17-9.24,35.06-17.21,52.98-24.92,5.41-2.33,10.04-4.4,14.05-9.09,11.56-13.54,25.6-24.21,41.33-32.61,27.15-14.5,54.08-29.43,81.52-43.35,28.03-14.22,56.39-27.83,84.97-40.94,15.8-7.25,31.86-14.64,49.42-16.52,20.11-2.15,39.83-.54,56.88,11.97,4.99,3.66,9.1,8.53,13.55,12.9,1.6,1.57,3.01,3.32,4.51,4.98"/>
      <path class="cls-2" d="M880.75,558.38c-1-4.66-1.31-9.62-3.11-13.94-9.51-22.76-27.51-34.04-51.35-37.6-18.39-2.75-36.2-.64-53.45,5.66-21.3,7.78-42.17,16.72-63.55,24.26-23.32,8.23-45.46,19-67.37,30.21-26.2,13.4-51.79,28.02-78.11,41.17-13.03,6.51-21.16,15.95-24.9,29.68-.26.94-.55,1.9-1.03,2.73-.3.52-1,.8-1.35,1.06.36,2.52.69,4.85,1.09,7.62-6.9,5.8-15.01,9.82-23.72,11.39-16.03,2.88-31.3,8-45.87,14.83-22.25,10.43-44.42,21.16-65.94,33.01-25.57,14.08-50.62,29.12-75.5,44.39-26.42,16.22-52.45,33.08-78.48,49.93-12.87,8.33-25.45,17.13-37.99,25.97-11.31,7.97-15.84,19.6-16.47,32.94-.36,7.63-.39,15.3,2.95,22.48"/>
      <path class="cls-2" d="M393.99,493.92c20.67,1.25,38.82,9.61,55.38,21.11,26.34,18.29,45.73,42.77,61.21,70.74,9.27,16.75,16.76,34.16,23.38,52.04.41,1.1,1.3,2.01,1.97,3.01"/>
      <path class="cls-2" d="M767.81,341.52c3,3,5.88,6.13,9.02,8.97,16.89,15.28,27.12,34.12,31.58,56.46,3.07,15.39,6.26,30.84,5.17,46.48-1.2,17.24-2.69,34.43-2.28,51.73"/>
    </g>
  </g>
</svg>