<?xml version="1.0" encoding="UTF-8"?>
<svg id="Calque_2" data-name="Calque 2" xmlns="http://www.w3.org/2000/svg" viewBox="0 0 1506.35 1182.32">
  <defs>
    <style>
      .cls-1 {
        stroke-width: 2px;
      }

      .cls-1, .cls-2 {
        fill: none;
        stroke: #fff;
        stroke-linecap: round;
        stroke-linejoin: round;
      }

      .cls-2 {
        stroke-width: 20px;
      }
    </style>
  </defs>
  <g id="Calque_1-2" data-name="Calque 1">
    <g>
      <path class="cls-2" d="M904.65,252.29c-1.94-5.8-7.19-7.7-12.02-9.95-4.36-2.03-8.39-5.17-12.6-6.7-9.7-3.52-16.76-11.67-26.86-14.09-.84-.2-1.82-.28-2.48-.77-13.43-10.05-29.17-15.99-43.59-24.3-7.19-4.14-14.47-8.23-22.22-11.56-5.62-2.41-11.42-5.56-16.61-9.16-8.53-5.91-18.01-9.99-26.97-15.04-9.95-5.6-20.87-9.75-29.45-17.48-3.82-3.44-6.47-8.18-9.6-12.37-25.35-33.98-55.93-62.44-91.52-85.35-23.43-15.09-48.65-26.62-75.43-34.5-7.87-2.31-13.43-.91-19.11,6.83-9.83,13.38-19.24,27.05-28.8,40.61-6.77,9.59-14.03,18.8-20.17,28.87-4.82,7.91-11.04,14.95-16.32,22.59-9.82,14.21-19.31,28.69-29.31,42.74-7.61,10.69-14.86,21.65-22.57,32.28-9.73,13.41-19.13,27.17-27.39,41.51-5.46,9.47-12.97,17.23-18.76,26.33-5.06,7.95-10.55,15.6-14.06,24.46-.83,2.1-3.03,3.61-4.38,5.55-8.73,12.56-16.8,25.57-25.22,38.32-15.3,23.14-29.86,46.72-44.7,70.14-13.61,21.47-26.78,43.23-40.01,64.94-7.15,11.73-14.14,23.57-20.99,35.48-9.44,16.42-18.64,32.99-28.03,49.45-13.62,23.9-26.98,47.95-39.38,72.5-14.14,28-27.86,56.2-40.67,84.85-11.52,25.77-22.71,51.67-32.84,78.01-9.23,24-17.25,48.43-24.99,72.95-4.74,15.03-8.51,30.35-12.85,45.51-3.26,11.39-4.62,23.32-7.25,34.91-2.4,10.57-3.24,21.35-4.74,32.02-1.92,13.69-2.03,27.6-2.21,41.45-.07,5.5-1.04,11.09-.28,16.46.73,5.17.47,10.4,1.72,15.54,2.09,8.6,3.64,17.33,5.6,25.96,1.82,8.02,5.19,15.48,8.42,23.01,6.66,15.55,16.48,28.61,28.94,40.06,10.75,9.88,22.45,18.09,35.57,24.39,10.59,5.09,21.47,9.56,32.58,13.21,4.68,1.54,9.87,2.44,14.9,3.31,2.11.36,4.52.61,5,3.46"/>
      <path class="cls-2" d="M612.79,356.22c5.87-1.34,9.44-6.38,8.5-11.99-2.51-14.89-15.99-27.25-30.98-28.52-2.57-.22-4.28.75-4.95,3.05-1.07,3.69-3.76,6.13-5.93,9.07-5.2,7.05-9.95,14.47-14.57,21.92-5.19,8.38-10.46,16.75-14.9,25.52-3.54,6.99-8.02,13.04-12.93,19.08-3.37,4.15-4.3,10.21-7.34,14.73-3.61,5.36-7.59,10.59-12.35,15.09-10,9.45-16.16,21.63-23.49,32.98-5.43,8.41-10.91,16.76-15.12,25.92-1.66,3.62-1.53,7.5-3.18,11.14-2.25,4.97-4.25,9.67-9.66,11.95-.8.34-1.53,1.18-1.99,1.97-7.33,12.49-16.18,24.13-21.92,37.5-3.28,7.63-7.91,14.47-12.29,21.31-13.77,21.49-25.01,44.33-36.04,67.2-8.35,17.32-16.14,35.03-22.19,53.36-4.37,13.26-9.99,26.39-12.08,40.03-2.09,13.7-8.55,25.67-11.86,38.8-1.64,6.51-3.37,12.82-4.4,19.54-1.37,8.9-1.51,17.7-1.07,26.53.35,7-2.85,12.73-6.28,17.88-12.31,18.53-23.95,37.47-35.24,56.62-5.44,9.23-10.73,18.66-14.93,28.5-7.95,18.6-17.86,36.35-23.75,55.87-2.57,8.52-5.77,16.84-7.91,25.51-1.14,4.62-2.16,9.08-1.62,14.02.6,5.53-.27,11.2-2.4,16.45-1.33,3.26-2.45,6.53-1.9,10.01,1.09,6.85-.24,13.66-.06,20.49.14,5.26-1.87,10.21-2.36,15.45-.41,4.36-.3,8.73-.45,13.03-.35,9.7-.37,19.38-2.1,28.99-.7,3.87.3,7.76,1.5,11.46.65,2,1.15,3.98.91,6.01-1.23,10.51-.15,20.77,2.45,31,1.23,4.82-1.06,7.19-6.42,7.46-5.49.27-10.98-.05-16.5.44-14.65,1.31-29.34.6-43.96-.52-12.53-.96-25-2.74-37.49-4.15"/>
      <path class="cls-2" d="M970.61,287.26c1.36-3.18,3.6-1.14,4.95-.41,9.92,5.33,19.72,10.88,29.53,16.41,13.84,7.8,27.66,15.64,41.48,23.48,21.99,12.48,44.23,24.57,65.84,37.69,7.98,4.85,15.49,10.73,23.15,16.24,14.06,10.13,28.36,19.93,42.43,30.05,13.25,9.53,25.95,19.89,39.62,28.77,12.07,7.85,23.64,16.45,35.16,24.95,18.61,13.73,38.03,26.32,56.35,40.47,8.2,6.33,17.19,11.84,25.77,17.77,17.49,12.09,34.84,24.39,51.97,36.97,10.4,7.64,21.16,14.76,31.67,22.22,17.94,12.73,35.4,26.12,53.67,38.42,6.78,4.56,13.11,9.93,20.13,14.29,3.16,1.97,4.2,5.32,4,8.94-.2,3.66-3.23,4.45-5.97,5.51-6.01,2.31-11.98,4.71-18.01,6.93-.85.31-2.14.87-2.36,1.15-7.67,9.53-19.62,8.29-29.61,11.88-1.29.46-2.73.52-3.98,1.04-7.69,3.25-16.06,3.72-24,5.95-1.18.33-1.04,1.16-1,2.01"/>
      <path class="cls-2" d="M615.29,356.72c7.02,6.64,12.25,14.83,20.28,20.77,6.58,4.87,13.36,9.5,20.82,11.82,6.48,2.02,12.32,5.72,19.33,6.67,4.7.63,9.32,3.59,13.47,6.3,8.88,5.78,19.09,8.91,28,14.47,13.57,8.47,28.37,14.57,42.17,22.67,17.9,10.5,36.95,19.03,55.28,28.81,9.42,5.02,18.68,10.46,27.39,16.6,4.04,2.85,8.56,3.07,12.73,4.53,10.46,3.65,19.97,9.09,29.96,13.62,13.73,6.24,26.84,13.63,40.37,20.22,9.89,4.82,20.03,9.41,28.06,17.37,3.7,3.67,9.24,3.68,13.5,6.47,13.48,8.81,28.83,13.65,43.45,20.03,9.31,4.06,18.1,9.12,26.97,14.03,7.9,4.37,15.34,9.78,23.6,13.22,7.39,3.07,14.83,6.14,21.8,9.9,13.14,7.08,27.12,12.35,40.2,19.59,6.69,3.7,14.23,6.15,21.41,9.12,3.85,1.59,6.92,3.99,9.95,6.61,6.89,5.97,15.17,8.41,23.99,9.51,1.17.15,2.31-.37,3.53.45,6.47,4.35,14.32,4.31,21.45,6.58,7.57,2.41,15.38,3.91,22.95,6.14,10.42,3.07,20.94,5.57,31.54,7.8.99.21,2.46-.03,2.92.56,3.57,4.57,8.91,3.4,13.57,4.45,6.51,1.46,13,2.99,19.49,4.49"/>
      <path class="cls-2" d="M523.33,12.44c3.44,4.59,3.27,10.35,4.88,15.53,8.6,27.63,23.18,51.36,44.58,70.94,20.68,18.92,45.11,30.61,72.01,37.36,13.89,3.48,28.12,5.22,42.45,6.19,5.51.37,11,.22,16.5.4"/>
      <path class="cls-2" d="M339.42,278.02c8,2.42,16.06,4.62,23.98,7.28,33.93,11.39,63.89,29.57,90.46,53.43,16.93,15.21,31.45,32.47,44.03,51.43,5.67,8.55,10.49,17.58,15.32,26.58,1.28,2.39,2.8,4.59,4.13,6.92"/>
      <path class="cls-2" d="M366.91,235.8c2.93,2.82,7.04,2.8,10.54,3.83,33.39,9.83,63.28,26.28,90.9,47.14,31.13,23.51,56.36,52.23,76.03,85.9.91,1.56,1.92,3.38,3.94,4.03"/>
      <path class="cls-2" d="M744.22,214.81c-3,3.5-5.73,7.28-9.05,10.43-6.95,6.6-9.74,15.91-15.85,23.12-21.27,25.15-42.95,49.88-67.56,71.87-5.98,5.35-11.99,10.66-17.99,15.99"/>
      <path class="cls-2" d="M726.23,235.3c-2.63-.47-3.95,1.48-5.5,3-11.66,11.49-23.34,22.96-34.98,34.48-19.84,19.64-39.65,39.3-59.48,58.96"/>
      <path class="cls-2" d="M1293.46,681.01c-.28-2.58,1.72-2.29,2.98-1.94,11.79,3.27,24.13,1.84,36.08,4.6,5.71,1.32,12.35-.52,18.39-1.77,8.12-1.68,16.36-1.46,24.52-2.28,10.35-1.04,20.8-1.06,30.99-3.54,1.4-.34,2.98.11,4.48.19"/>
      <path class="cls-2" d="M905.15,250.54c4.63-1.15,7.09,2.41,9.95,4.81,1.98,1.66,4.22,2.21,6.45,3.17,6.27,2.69,12.89,5.03,18.03,9.83.58.54,1.31,1.94.06,2.94"/>
      <path class="cls-2" d="M940.63,269.28c4.06-.11,6.92,2.5,9.97,4.53,5.74,3.83,11.85,6.92,18,9.99.93.46,1.68,1.3,2.51,1.97"/>
      <path class="cls-2" d="M854.17,222.81c.17,1.17.33,2.33.5,3.5"/>
      <path class="cls-2" d="M361.91,424.67c-9.54,3.49-13.36,8.18-13.53,15.99-.16,7.25,6.08,15.48,15.53,16.03,7.24.42,15.93-5.69,16.54-15.53.43-7.02-5.48-16.02-15.53-16.49-.83-.04-1.67,0-2.5,0"/>
      <path class="cls-2" d="M562.81,149.85c-9.54,3.49-13.36,8.18-13.53,15.99-.16,7.25,6.08,15.48,15.53,16.03,7.24.42,15.93-5.69,16.54-15.53.43-7.02-5.48-16.02-15.53-16.49-.83-.04-1.67,0-2.5,0"/>
      <path class="cls-2" d="M120.03,1009.29c-9.54,3.49-13.36,8.18-13.53,15.99-.16,7.25,6.08,15.48,15.53,16.03,7.24.42,15.93-5.69,16.54-15.53.43-7.02-5.48-16.02-15.53-16.49-.83-.04-1.67,0-2.5,0"/>
    </g>
    <g>
      <path class="cls-1" d="M996.39,306.41c12.16,7.33,24.42,14.5,36.45,22.04,8.55,5.36,17.35,10.3,25.97,15.52,12.36,7.49,24.43,15.49,36.52,23.42,13.06,8.56,26.27,16.93,38.93,26.05,17.29,12.46,34.97,24.34,52.44,36.53,5.13,3.58,9.76,8.18,15.2,11.16,8.21,4.5,14.76,11.12,22.49,16.02,15.63,9.91,30.3,21.18,45.72,31.38,12.23,8.09,24.16,16.74,36.16,25.22,8.41,5.95,17.01,11.63,25.45,17.54,2.81,1.97,6.16,3.69,6.02,7.96"/>
      <path class="cls-1" d="M961.41,507.78c-1.31-.81-2.27-.11-3.55.36-1.59.58-3.48.39-4.51-1.83-.91-1.94-.7-4.87-3.44-5.48-3.43-.76-6.96-1.6-10.48-1.01-6.57,1.11-12.24.47-15.35-6.89-8.58.86-16.14-4.2-24.63-4.7-.69-.04-1.34-.94-2-1.44"/>
      <path class="cls-1" d="M860.46,490.29c-9.63-3.13-18.66-7.52-27.54-12.4-9.93-5.45-19.3-11.86-29.87-16.24-6.84-2.83-13.01-7.25-19.58-10.79-2.35-1.27-4.93-2.17-7.48-3.02-7.37-2.46-12.9-8.48-20.48-10.52"/>
      <path class="cls-1" d="M949.41,355.38c-5.7,1.53-13.26-1.43-15.7-6.52-3.57-7.42-6.99-14.92-10.26-22.48-5.74-13.23-13.65-24.88-23.97-35.01-8.27-8.13-17.36-15.11-26.96-21.55-1.93-1.3-3.57-1.32-5.57-1.43-6.46-.36-12.84.28-17.76-6.25-2.98-3.95-6.96-8.25-12.73-9.2-4.87-.81-9.75-1.95-14.42-3.26-7.12-1.99-12.75,1.82-19.05,2.88-.61.1-1.2.63-2.02.4-9.32-2.59-17.45,1.01-25.47,5-1.07.53-2.82,1.25-2.88,1.99-.62,7.45-7.72,9.39-11.76,13.86-1.72,1.9-3.23,3.93-4.86,5.87"/>
      <path class="cls-1" d="M856.46,307.91c.11-2.02-1.11-3.37-2.52-4.48-5.67-4.47-11.35-8.84-16.6-13.88-7.15-6.87-15.67-8.74-25.41-4.74-7.61,3.13-15.33,5.82-21.44,11.61-6.74,6.39-13.83,12.42-16.67,21.93-.68,2.29-1.31,4.71-.67,6.5,2.88,8.09,5.68,16.36,11.4,22.99,5.83,6.76,14.08,8.5,22.42,10.11,9.44,1.82,19,1.7,28.47,2.68,5.2.54,10.22,1.72,15.53.81,4.21-.72,8.33-1.18,11.54-4.51.97-1.01,2.54-1.63,3.95-2.01,4.44-1.2,6.18-3.83,6.02-8.54-.41-12.6-4.36-23.8-12.51-33.49-1.15-1.37-2.02-2.98-3.02-4.48"/>
      <path class="cls-1" d="M924.42,493.29c1.83-1.83,3.83-3.53,5.47-5.52,4.75-5.78,10.95-7.17,18.03-6.52,2.69.25,5.41.96,7.99.89,6.46-.16,10.12,3.63,13.48,8.16,1.38,1.85,2.99,3.23,4.84,4.7,8.37,6.63,18.96,9.74,26.66,17.27"/>
      <path class="cls-1" d="M826.47,352.38c-.1,1.53,1.03,1.48,2,1.49,6.44.02,12.96.35,18.97-2.52,4.36-2.09,6.78-6.2,9.56-9.92.66-.89.69-2.21.39-2.45-3.27-2.72-1.82-6.21-2.12-9.55-.3-3.24-1.8-6.53-3.37-9.48-4.95-9.23-11.38-17.35-19.95-23.48-7.98-5.7-16.74-6.59-25.42-1.96-9.92,5.29-18.78,11.93-24.16,22.34-.62,1.2-.44,2.58-1.37,3.56"/>
      <path class="cls-1" d="M1121.33,414.84c2.44,11.19,10.34,18.49,18.54,25.43,5.26,4.45,11.92,7.58,16.17,12.77,4.23,5.17,6.7,11.97,8.28,18.76.77,3.31,2.41,6.48,1.96,9.99-.68,5.31,1.08,9.97,3.52,14.49"/>
      <path class="cls-1" d="M952.41,284.42c.67,1.17,2.13,2.56,1.88,3.46-2.89,10.08,4.31,15.5,9.51,22.11,3.72,4.72,6.39,10.27,9.61,15.4,5.15,8.19,11.36,15.48,18.99,21.48,4.11,3.23,8.98,4.8,13.98,6.01"/>
      <path class="cls-1" d="M886.44,261.44c-10.36-6.62-18.03-16.36-27.58-23.87-7.1-5.58-13.87-11.93-22.9-14.61-3.5-1.04-6.69-.11-10.02.94-3.56,1.13-7.31,2.28-10.97.07"/>
      <path class="cls-1" d="M895.44,386.36c-2.88.08-4.41-1.3-2.92-3.95,2.05-3.63.92-7.3-1.27-9.34-3.04-2.84-2.95-5.12-1.32-8.2.24-.46.47-.99.49-1.49.54-10.46,1.8-20.92-4.39-30.54-3.33-5.18-5.66-10.99-8.61-16.42-3.27-6-7.75-11.33-12.63-15.83-8.67-8-17.02-16.48-26.86-23.11-7.37-4.97-15.43-7.05-23.94-3-8.54,4.07-17.34,7.54-25.61,12.27-4.12,2.36-7.46,5.15-10.39,8.68-2.04,2.46-3.67,5.39-6.07,7.42-7.78,6.59-8.06,14.89-5.33,23.52,2.58,8.14,5.52,16.23,11.82,22.59,2.13,2.15,2.37,5.42,2.03,8.42-.53,4.68-1.3,9.33-1.96,14"/>
      <path class="cls-1" d="M816.48,304.41c-3.01-1.16-5.87-.2-8.47,1.05-9.66,4.65-20.63,12.23-20.1,22.94.18,3.57,4.4,13.09,7.61,13.84,3.66.86,6.95,2.68,10.36,3.93,11.08,4.06,20.27-.63,29.53-4.92,4.74-2.19,5.6-6.09,4.06-11.36-.86-2.96-1.92-5.79-2.19-8.98-.2-2.33-1.87-4.7-4.3-6.03-.72-.4-1.7-.85-1.95-1.5-2.41-6.25-8.15-7.07-13.55-8.47"/>
      <path class="cls-1" d="M733.52,421.34c5.31.72,10.55,2.62,15.99.99,2.51-.75,4.61,1,6.96,1.32,9,1.25,18.2,1.15,27.05,3.6,1.31.36,2.8.28,3.96,1.1,3.32,2.34,6.86,3.68,11.01,3.02.79-.12,1.7-.36,2.51.44,4.67,4.57,11.11,6.29,16.27,9.81,4.24,2.9,9.94,4.53,12.34,10.13.74,1.73,3.34,2.58,4.83,4.09,4.53,4.62,7.6,9.97,9.25,16.4.71,2.78,1.07,6.66,4.78,8.05"/>
      <path class="cls-1" d="M1097.34,378.36c-1.81-1.04-3.53-2.18-5.45-3.09-5.01-2.37-8.87-2.31-14.22.77-9.11,5.25-18.37,10.57-28.32,14.26-6.67,2.47-12.31,6.85-18.22,10.46-3.25,1.99-6.37,6.12-9.12,9.8-3.18,4.25-3.32,10.19-8.08,13.33-.99.66-1.12,2.09-1.08,3.44.09,2.82.51,5.69-1.89,8.06-.71.7-1.13,2.53-.73,3.38,2.28,4.81,1.95,10.37,4.63,15.05,1.76,3.08.21,6.33-.04,9.47-.13,1.69-.93,3.34-1.43,5"/>
      <path class="cls-1" d="M713.03,160.01c5.93-.64,9.26,4.04,12.83,7.18,4.62,4.06,8.03,9.23,15.15,9.52,1.72.07,3.59,2.59,4.96,4.32,5.52,6.99,13.56,8.93,21.56,10.32,8.18,1.43,16.4,2.37,23.98,6.1,1.37.67,2.05,1.54,1.98,3.03"/>
      <path class="cls-1" d="M1166.31,545.25c-4.19,6.98-11.45,8.43-18.47,10.58-5.27,1.61-10.76,1.58-16.01,2.95-5.99,1.57-11.71-.37-17.52-.61-6.27-.27-11.54-1.97-17-4.36-3.44-1.5-6.36-3.72-8.35-6.63-2.25-3.3-4.95-5.83-8.65-6.79-2.29-.59-1.98-2.47-3.02-3.58-8.7-9.32-16.42-20.23-29.96-22.88-6.89-1.35-12.73-5.07-19.39-6.91-3.74-1.03-7.2-4.31-9.98-7.31-7.94-8.56-15.03-17.84-24.47-25.04-5.37-4.09-9.39-9.59-12.79-15.75-5.16-9.34-8.73-9.77-18.24-5.48-6.06,2.73-12.69,3.94-18.47,7.02-5.35,2.86-11.05,4.57-16.54,6.91-11.16,4.75-22.67,2.81-31.6-5.47-.93-.86-2.58-1.66-3.76-2.35-3.05-1.8-6.4-3.15-8.15-7.53-1.13-2.82-5.66-5.32-8.57-8.11-2.49-2.39-4.6-5.06-6.97-7.53-1.1-1.15-1.45-2.14-.95-3.55"/>
      <path class="cls-1" d="M713.03,169.5c2.93-.07,4.61,1.77,5.99,4,2.8,4.53,6.73,7.78,11.51,9.96,4.57,2.08,8.71,4.69,12.51,7.99,5.16,4.49,12.21,5.24,17.91,8.61,4.58,2.71,9.66,2.76,14.54,3.91"/>
      <path class="cls-1" d="M671.55,393.85c-6.43-1.7-11.78-5.75-17.96-8.09-7.22-2.73-13.43-7.45-20.02-11.41-5.48-3.29-9.12-8.54-13.42-13.06-1.38-1.45-2.34-3.04-4.58-2.92"/>
      <path class="cls-1" d="M1350.72,554.25c1.63,6.66-1.24,12.39-4.14,17.91-.98,1.86-2.27,3.58-1.79,5.55,1.99,8.08-1.32,14.64-5.57,21"/>
      <path class="cls-1" d="M860.96,282.93c.1,2.16.22,3.99,2.44,5.58,9.92,7.13,17.26,16.8,24.44,26.48,2.98,4.02,4.54,9.06,7.21,13.35,1.26,2.03,2.36,4.52,4.9,5.56"/>
      <path class="cls-1" d="M1197.79,505.78c-3.66,7.5-6.64,15.44-11.18,22.37-5.29,8.06-11.35,15.76-19.29,21.62-1.73,1.28-3.63.92-5.51.98"/>
      <path class="cls-1" d="M703.03,309.41c-4.48,7.96-.79,11.29,2.99,16,7.73,9.64,19.32,15.26,26.51,25.47,1.51,2.13,3.93,1.73,5.97,1.44,4.53-.62,9-1.6,13.5-2.43"/>
      <path class="cls-1" d="M1119.33,396.35c.17,1-.03,2.44.56,2.93,6.54,5.48,8.72,13.67,13.14,20.42,4.55,6.95,9.87,13.59,17.25,18.19,5.85,3.65,10.3,8.67,12.56,15.42,1.82,5.45,6.51,3.89,10.47,4.01"/>
      <path class="cls-1" d="M1024.88,477.3c4.52,6.42,8.98,12.82,16.96,15.59,1.9.66,3.19,2.95,5.07,3.83,5.74,2.69,11.54,5.31,17.48,7.5,6.2,2.28,12.01,4.6,16.61,9.94,5.33,6.19,11.31,11.63,14.56,19.52,1.48,3.58,4.73,6.63,9.26,7.7,2.61.62,5.09,2.02,4.7,5.89-.16,1.56,1.66,3.31,2.57,4.98"/>
      <path class="cls-1" d="M779.5,320.4c2.76-.13,1.66,2.27,1.39,2.96-1.86,4.71,0,9.34,1.86,12.9,4.06,7.72,10.45,13.86,19.26,16,7.8,1.9,15.88,2.44,23.96,1.62"/>
      <path class="cls-1" d="M1199.29,448.32c2.26,6.65,2.04,13.59,2.7,20.47.68,7.07-.89,13.7-1.72,20.5-.54,4.4-2.55,8.58-4.28,12.35-4.6,9.98-9.14,20.23-15.86,28.99-3.82,4.99-7.57,10.31-12.82,14.12"/>
      <path class="cls-1" d="M969.4,291.42c-.51,3.31.86,6.72-.49,10-.68,1.64.89,2.49,1.56,3.45,5.21,7.42,10.26,14.99,16.07,21.91,2.83,3.37,7.14,5.52,10.86,8.1,6.77,4.7,14.66,4.87,22.47,5.58,6.19.56,12.33-1.51,18.5-.06"/>
      <path class="cls-1" d="M984.89,535.26c4.18,2.39,8.44,4.66,11.99,8,.34.32.62.89,1.01.96,7.66,1.55,14.69,5.24,22.09,7.13,5.77,1.47,10.62,4.29,15.85,6.5,8.53,3.6,14.52,10.39,19.45,17.94,3.35,5.13,8.46,8.23,12.58,12.44"/>
      <path class="cls-1" d="M949.41,537.26c10.43,4.95,19.96,11.68,30.96,15.55,4.56,1.6,7.83,5.98,13.02,6.43"/>
      <path class="cls-1" d="M1151.31,637.19c13.65,8.1,29.19,11.02,43.98,15.99"/>
      <path class="cls-1" d="M1066.85,543.76c2.37-3.94,1.13-6.5-1.76-10.18-5.67-7.23-12.87-11.22-21.24-13.78-3.56-1.09-7.08-3.4-10.99-1.02"/>
      <path class="cls-1" d="M1399.69,602.22c-1.31,5.42-3.04,10.79-2.49,16.49.18,1.88-.57,3.78-1.6,4.91-4.28,4.77-5.59,10.53-6.44,16.57-.26,1.87-.96,3.67-1.46,5.5"/>
      <path class="cls-1" d="M1186.3,438.32c.25,3.5,2.77,6.14,3.54,9.49,2.16,9.39,3.34,18.89,2.38,28.48-.57,5.67-.41,11.41-1.84,17.02-.47,1.85-.77,3.52-2.58,4.48"/>
      <path class="cls-1" d="M941.92,364.37c-3.04-2.34-6.97-3.26-9.55-6.45-3.72-4.61-7.13-9.48-8.81-15.07-2.19-7.31-5.4-14.09-8.45-21.02-3.69-8.38-9.03-15.45-14.71-22.37-1.85-2.26-3.73-4.92-7.46-4.05-2.39.55-2.8-1.89-3.94-3.03-4.41-4.38-8.61-8.99-15.54-8.94-.33,0-.91.11-.96-.02-2.33-5.1-8.74-7.57-9.03-13.98"/>
      <path class="cls-1" d="M1264.76,574.24c-.67-1.83-1.26-3.7-2.01-5.49-2.01-4.78-3.4-5.22-7.45-1.97-3.04,2.43-7.76,4.34-7.64,8.45.07,2.39,4.3,4.44,6.05,7.05,5.41,8.05,12.53,14.18,20.53,19.47,5.16,3.41,7.75,3.52,11.94-1.09,2.94-3.24,5.89-6.42,8.92-9.57,1.65-1.71,2.98-2.61,5.14-2.34,2.22.27,4.19-.46,5.98-1.55,3.22-1.96,6.47-2.73,10.01-.97"/>
      <path class="cls-1" d="M959.41,332.89c2-.5,4.06-.83,5.99-1.53,6.22-2.27,6.33-2.16,9.54,4.01,3.63,6.98,7.54,13.85,12.53,19.95,3.1,3.79,7.28,6.27,12.43,5.97,2.15-.12,3.21,2.76,5.5,1.57"/>
      <path class="cls-1" d="M679.54,273.93c-1.01,8.25-3.62,15.37-10.87,20.65-4.49,3.27-8.39,7.76-11.48,12.41-5.29,7.95-13.01,6.96-20.62,6.86-2.17-.03-4.33-.62-6.5-.95"/>
      <path class="cls-1" d="M1134.32,410.84c3.68,7.64,8.07,15.09,14.66,20.28,5.89,4.64,10.89,11.67,19.83,11.2"/>
      <path class="cls-1" d="M937.42,299.91c5.18-1.08,8,1.76,10,6,2.54,5.41,6.65,9.62,11.1,13.37,1.76,1.48,2.12,2.86,1.85,4.61-.49,3.19-1.2,6.36-1.98,9.5-.74,3-3.01,4-5.42,2.42-4.85-3.17-9.88-5.61-13.99-10.54-4.02-4.82-8.54-9.25-11.49-14.89-1.04-1.97-2.36-4.11-2.01-6.46.81-5.36-.99-9.59-5.05-13"/>
      <path class="cls-1" d="M1097.34,387.36c-2.12-6.44-8.37-5.21-13.38-7.14-1.91,2.82-5.22,3.91-8.12,5.63-1.99,1.17-4.01,1.99-5.08,4.47-1.41,3.23-5.28,2.76-7.97,3.88-8.9,3.71-15.79,10.08-22.87,16.21-1.29,1.12-2.57,2.1-4.02,2.99-.86.52-2.03,1.71-1.92,2.43.66,4.35-1.45,5.11-5.12,4.6-.75-.1-1.65.91-2.49,1.41"/>
      <path class="cls-1" d="M938.92,274.93c3.51,3.23,4.29,7.67,4.93,12,.95,6.42,4.14,11.64,7.43,17.06,4.33,7.12,11.87,11.36,15.74,18.85,1.34,2.59,1.66,4.62.38,7.06"/>
      <path class="cls-1" d="M877.45,284.92c1.36,3.63,4.27,6.08,7.04,8.44,9.01,7.67,15.73,17.15,21.86,27.09.73,1.18,1.5,1.86,2.58,2.45"/>
      <path class="cls-1" d="M827.47,215.47c-6.17-1.36-10.4,1.05-15.27,5.17-4.91,4.16-10.35,9.21-18.23,8.47-3.4-.32-6.74,1.46-9.5,3.83-2.44,2.1-5.22,3.33-8.45,4.14-6.33,1.59-11.95,5.14-17.44,8.5-7.2,4.41-15.09,5.33-23.07,6.37"/>
      <path class="cls-1" d="M1099.34,383.36c5.5,6.75,8.62,14.92,12.12,22.65,1.79,3.96,1.75,9.5,1.75,14.32,0,6.95,2.47,12.93,6.76,17.87,3.29,3.78,7.47,7.24,11.95,9.42,5.92,2.88,11.07,7.13,17.39,9.22,2.56.85,3.14,3.56,4.47,5.5,6.6,9.66,7.71,20.69,7.43,31.95-.03,1.23,0,3-1.39,4"/>
      <path class="cls-1" d="M812.48,266.44c-9.4,5.57-20.22,8.17-29.46,14.04-5.51,3.5-10.96,7.45-14.37,13.04-2.62,4.3-5.69,4.4-9.65,3.4"/>
      <path class="cls-1" d="M756.51,431.33c11.34,4.29,23.39,5.88,34.72,10.97,9.13,4.1,16.24,10.29,24.21,15.57,5.35,3.55,10.38,7.59,13.53,13.43"/>
      <path class="cls-1" d="M666.05,333.39c-2.73,5.6-2.4,10.45,1.86,15.61,4.39,5.32,6.27,12.15,7.87,18.87.27,1.12.15,1.14-1.23,2.74"/>
      <path class="cls-1" d="M1044.87,490.79c3.44-2.74,6.08-6.74,11.51-6.18,1.22.13,2.35-.04,3.49.66,3.23,1.98,6.48,2.71,10.51,2.18,7.33-.96,19.6,7.45,23.09,14.26,1.46,2.84,2.81,5.67,6.63,7.55,3.01,1.49,6,6.17,6.29,11,.28,4.52-3.45,5.24-6.08,6.95-1.67,1.09-3.63,1.71-5.47,2.55"/>
      <path class="cls-1" d="M853.96,439.32c2.73-10.62,3.3-9.74-6.5-16.98-2.3-1.7-4.6-3.44-7.01-4.98-3.68-2.36-7.51-3.47-11.48-.52"/>
      <path class="cls-1" d="M1259.76,537.76c-7.01,1.69-14.14,2.82-19.39-3.58-3.3-4.01-7.13-2.1-10.57-1.72-2.87.32-5.64,1-8.52.3"/>
      <path class="cls-1" d="M1188.3,550.75c-4.4,3.04-8.45,6.33-12.22,10.27-3.58,3.73-8.9,6.96-14.26,6.99-8.32.04-14.73,4.2-21.44,7.82-3.86,2.09-7.82,3.25-12.05,3.9"/>
      <path class="cls-1" d="M1069.35,372.37c-3.43-.71-7-.72-9.58-3.93-1.4-1.75-3.73-1.16-5.92-.63-9.15,2.22-18.08,5.31-27.46,6.62-2.89.4-5.06,2.33-6.51,4.94"/>
      <path class="cls-1" d="M803.98,232.96c5.1,2.13,9.72,4.36,15.67.8,3.34-2,8.85-.79,12.75.03,10.62,2.24,20.24,7.29,28.05,15.17,6.81,6.87,14.3,12.83,22.44,18.07,2.7,1.74,6.02,3.39,5.8,7.91-.06,1.26,2.78,2.63,4.26,3.99,4.5,4.17,9.47,7.79,13.57,12.42,1.48,1.66-.14,1.78-.57,2.56"/>
      <path class="cls-1" d="M905.43,256.44c4.95,4.09,9.03,8.94,13.11,13.89,4.51,5.48,3.11,11.59,3.22,17.59.01.6-.83,2.33-2.82,2.64-3.67.56-7.2,2.01-11.02,1.86"/>
      <path class="cls-1" d="M627.57,315.4c.71,7.29-1.12,14.37-2.16,21.46-.87,5.95,1.83,9.92,5.14,14.03,1.3,1.62,2.99.85,4.52.95,1.82.13,3.66.03,5.5.03"/>
      <path class="cls-1" d="M1068.85,511.28c-2.76,5.78-1.52,10.41,3.42,14.58,2.48,2.1,4.81,4.64,7.25,6.7,3.36,2.84,7.64,1.27,11.32-.8"/>
      <path class="cls-1" d="M1052.36,347.38c-5.05,0-9.7-3.75-15-1.52-1.94.81-4.37.87-5.92,2.11-6.19,4.94-13.38,4.39-20.56,4.5-1.51.02-4.31-1.71-4.5,1.91"/>
      <path class="cls-1" d="M797.99,266.69c-5.05-1.24-9.5,2.2-14.5,1.98-.89-.04-2.35,1.16-3.45.22-1.48-1.27-3.51-.15-3.91.19-5.61,4.74-13.35,6.8-17.18,13.81-1.11,2.02-4.3,2.33-4.93,5.03"/>
      <path class="cls-1" d="M844.96,266.94c-.83-.5-1.74-.91-2.49-1.51-9.81-7.88-20.07-6.38-30.5-1.49"/>
      <path class="cls-1" d="M972.9,365.12c5.82,1.22,8.65,5.13,8.41,10.74-.39,8.86,2.83,15.97,9.05,22.03.92.9,1.37,2.29,2.04,3.46"/>
      <path class="cls-1" d="M1443.17,633.2c-1.54-5.74-.5-11.83-2.87-17.54-1.45-3.5-3.07-6.85-5.18-9.9-2.92-4.22-7.85-3.88-11.9-3.28-3.11.47-6.02.43-9.03.24"/>
      <path class="cls-1" d="M1014.88,524.77c-1,4.33-2.06,8.65-2.98,13-.65,3.06.75,5.71,3.5,6.38,10.83,2.64,20.36,7.55,29.03,14.51,2.86,2.3,6.59,2.48,9.92.09"/>
      <path class="cls-1" d="M715.53,154.51c6.82,4,13.36,8.36,19.02,13.96,1.99,1.97,4.41,3.1,7.46,3.13,2.88.02,5.78,1.53,6.37,4.43,1.02,4.99,5.26,6.27,8.7,7.79,5.09,2.24,10.81,2.74,16.41,3.19,1.01.08,2,.32,3,.49"/>
      <path class="cls-1" d="M1203.29,451.32c4.98,5.88,7.82,12.14,4.62,20.04-.67,1.66.7,4.06.28,5.93-1.07,4.81.25,9.69-1.26,14.56-1.57,5.07.98,8.85,5.86,10.95"/>
      <path class="cls-1" d="M943.42,435.83c-2.33-1.17-4.78-2.14-6.97-3.54-3.09-1.98-6.17-2.34-9.53-.96-2.93,1.2-5.92.75-9,.62-5.98-.24-11.99.21-17.99.38"/>
      <path class="cls-1" d="M809.48,205.98c-2.19-.22-3.44,1.42-5,2.49-8.78,6-18.21,10.93-28.52,13.31-7,1.62-13.69,3.91-20.48,6.07-2.27.72-4.96.11-7.18.11-2.03-3.49-2.76-6.99-1.91-11.02.72-3.45-1.87-5.31-5.37-4.45-1.53.38-3,.98-4.5,1.48"/>
      <path class="cls-1" d="M1102.84,382.86c7.99,8.73,13.83,18.73,17.47,29.99.76,2.35,2.62,1.18,4.02,1.49"/>
      <path class="cls-1" d="M1179.8,473.8c-1.36,3.66.35,7.32.05,11-.22,2.69-.1,5.38-1.03,8-1.21,3.42-1.68,6.65-.77,10.54,1.17,4.97-2.16,9.63-4.44,13.83-3.07,5.65-6.97,11.1-13.81,13.09"/>
      <path class="cls-1" d="M858.46,231.46c9.09,5.78,15.22,14.8,23.44,21.54,1.72,1.41,3.13,2.89,5.55,2.44"/>
      <path class="cls-1" d="M1054.36,350.38c-5,1.17-10.11.61-14.95-.22-3.78-.65-6.18,1.2-8.45,2.84-7.56,5.46-16.3,7.38-25.07,9.38"/>
      <path class="cls-1" d="M1337.72,646.69c3.99,5.01,9.32,8.71,14.66,11.69,4.23,2.37,8.9,6.6,14.83,3.8"/>
      <path class="cls-1" d="M1192.79,443.82c4.38,4.57,3.01,10.62,3.88,16.01,1.47,9.14.93,18.43-1.05,27.43-1.11,5.08-1.82,10.48-4.83,15.03"/>
      <path class="cls-1" d="M916.43,368.37c-2-6.36-6.07-11.93-7.37-18.51-.4-2.03-2.11-2.65-2.81-4.4-1.63-4.14-1.05-8.42-1.42-12.77-4.03,2.13-6.29,7.68-4.26,11.63,1.38,2.69,1.93,5.72,4.16,8.24,1.72,1.94,2.33,5.15,2.35,8.32.03,4.73.93,9.51,4.83,13,1.7,1.53.97,3.61.99,5.49.03,2.06-.48,4.49,1.08,5.93,3.7,3.42,2.37,7.2,1.43,11.06"/>
      <path class="cls-1" d="M850.46,239.95c-1.46-8.55-17.63-16.78-27.49-9.99"/>
      <path class="cls-1" d="M870.95,278.93c2.62-1.7,4.84-1.48,7.56.4,5.21,3.6,9.25,8.5,14.41,12.11.46.32.97.98.97,1.48-.03,6.96,6,10.35,9.03,15.5,2.88,4.91,5.97,9.41,7.42,15.39,1.69,7,3.32,13.99,4.75,21.05.24,1.18.79,3.75,3.34,3.53"/>
      <path class="cls-1" d="M1298.24,632.7c1.87,1.96,4.22,3.42,5.54,5.97,1.62,3.13,4.13,5.06,7.95,4.53.49-.07,1.29-.21,1.45.02,4.33,6.3,13.57,7.25,16.47,14.98.79,2.1,2.68,2.41,4.09,3.43,5.94,4.26,12.84,6.63,19.46,9.54"/>
      <path class="cls-1" d="M933.92,478.8c-2.63-3.34-5.93-3.55-10.01-3.17-5.46.52-11.18,2.51-16.56-1.21-1.22-.84-3.64-.44-4.91,1.37"/>
      <path class="cls-1" d="M1092.34,394.35c-.96-5.68-1.01-5.43-7-5.1-4.51.25-7.8,1.55-11.2,4.88-2.91,2.85-8.2,2.5-11.79,5.2-3.6,2.71-8.19,4.14-10.53,8.48-.73,1.35-2.51.41-3.38.72-2.51.92-4.67,2.76-6.59,4.78-1.95,2.04-3.6,4.64-6.97,4.52"/>
      <path class="cls-1" d="M871.45,287.42c-1.81-.01-3.59.19-5.03-1.48-3.12-3.63-7.26-5.32-11.97-5.47-1.6-.05-2.15-1.23-2.97-2.07-2.96-3.02-6.65-5.05-9.93-7.59-7.64-5.92-16.01-7.04-25.06-5.27-.83.16-2.15.66-2.45.33-3.76-4.08-7.76.32-11.57-.43-1.02-.2-1.71.3-2.53.95-7.32,5.8-17.17,7.33-23.92,14.07-2.06,2.05-4.06.04-6.03.46"/>
      <path class="cls-1" d="M783.99,419.84c3.61,4.63,13.94,7.84,19.49,5.98,2.7-.91,5.34-1.98,8-2.98"/>
      <path class="cls-1" d="M1220.28,463.31c1.83,2.66.78,5.66.96,8.5.16,2.43-.06,4.99,1.57,6.96,3.24,3.92,1.37,7.46-.54,11.02-7.05,13.15-11.76,27.03-12.96,41.98-.03.32.31.66.48,1"/>
      <path class="cls-1" d="M989.89,453.31c-3.26,6.91-2.16,9.87,6.31,17.33,3.46-.78,7.16.41,10.18-1.84"/>
      <path class="cls-1" d="M919.93,286.42c-1.44-7.75-4.96-14.31-10.98-19.5-2.35-2.02-4.67-3.81-8.01-2.48"/>
      <path class="cls-1" d="M748.01,427.83c10.5-1.32,20.62,2.21,30.99,2.47,2.8.07,4.9,1.68,6.95,3.09,5.19,3.57,11.83,2.97,17.06,6.4,10.17,6.68,21.67,11.61,28.93,22.04,2.47,3.54,3.03,8.16,6.03,11.47"/>
      <path class="cls-1" d="M812.48,206.47c-3.21,3.56-6.8,6.76-11.03,8.92-5.51,2.8-8.09,7.01-7.96,13.07"/>
      <path class="cls-1" d="M1021.88,486.79c-.5,1.5-1.36,2.98-1.42,4.5-.12,3.11-.39,5.9,3.28,8.22,3.75,2.36,7.33,4.59,11.62,5.84,3.43,1,6.67,2.64,10.02,3.92,4.38,1.66,8.75,2.14,12.99-.49"/>
      <path class="cls-1" d="M905.43,333.39c5.66,1.23,4.2,6.56,5.31,10.05,1.99,6.25,5.48,11.89,6.88,18.39.38,1.76,2.25,3.74,4.75,4.67,2.81,1.05,5.84,2.55,6.04,6.37"/>
      <path class="cls-1" d="M961.41,390.36c-2.54-4.51-4.34-9.17-4.6-14.49-.15-3.04-6.82-7.39-9.89-7-4.61.59-3.27,4.19-3.5,6.99"/>
      <path class="cls-1" d="M1041.37,570.24c-4.51-1.92-7.78-5.96-12.5-7.48-7.47-2.4-15.14-4.29-22.43-7.15-4.93-1.93-9.86-3.16-15.03-3.95-1.59-.24-3.37-1.25-4.45-2.46-4.5-5.03-10.24-6.15-16.55-5.97-.99.03-2-.31-3-.47"/>
      <path class="cls-1" d="M1162.31,504.28c-.09,2.65-.03,5.06-1.87,7.59-4.11,5.65-3.66,12.32-2.63,18.89"/>
      <path class="cls-1" d="M923.42,373.87c6.81-2.4,12.74,3.11,19.51,2.17,2.11-.29,4.13,2.59,4.81,4.38,2.53,6.69,7.26,13.09,4.16,20.92"/>
      <path class="cls-1" d="M1217.28,564.74c-1.04,1.52-2.81,2.84-1.97,4.99,1.58,4.04,2.27,8.79,6.03,11.42,5.62,3.93,11.06,7.88,14.47,14.06,1.13,2.05,2.61,2.5,5.01,1.1,4.91-2.86,11.35-1.6,15.94-5.58"/>
      <path class="cls-1" d="M1306.74,621.7c1.87,1.1,1.63,5.33,5.53,3.57,1.13-.51,1.4,1.28,1.89,1.97,4.8,6.73,11.82,10.88,18.05,15.95.61.5,1.05,1.18,2.01,1,.48-.09,1-.02,1.64-.02-.47-5.66-7.33-7.14-8.14-12.49"/>
      <path class="cls-1" d="M872.45,283.92c-1.25,2.71-.46,4.94,1.49,7,3.48,3.69,7.33,7.2,11.23,10.19,4.18,3.21,7.45,6.95,10.74,10.81,5,5.86,7.45,12.81,8.03,20.46"/>
      <path class="cls-1" d="M820.48,400.85c9.13,3.71,17.91,8.46,26.2,13.47,5.13,3.1,8.57,3.36,13.29,1.52"/>
      <path class="cls-1" d="M703.03,291.92c-5.65.51-11.39-.73-17.01.94-1.87.56-4.1.88-4.89,2.6-1.76,3.86-4.74,5.01-8.59,4.95"/>
      <path class="cls-1" d="M1013.88,434.83c.74,1.98,1.78,3.74,2.14,5.97.63,3.95,2.76,6.78,5.95,9.93,4.28,4.23,8.03,10.85,3.53,18.15-1.22,1.98-3.37,4.58-.86,7.69,5.59-2.15,11.62-3.28,17.72-2.68,5.97.59,12.53-.1,17.29,5.58,2.97-3.02,7.16-.8,10.7-2.17"/>
      <path class="cls-1" d="M755.01,248.95c1.5,2.66,2.89,5.4,4.52,7.98,2.33,3.69,2.36,10.14-1.53,13.5-1.79,1.55-3.7,2.96-5.48,4.52-1.99,1.74-4.14,3.42-4.01,6.48"/>
      <path class="cls-1" d="M956.41,336.89c4.53,4.36,6.29,11.07,11.15,14.78,4.72,3.6,6.21,7.95,6.84,13.2"/>
      <path class="cls-1" d="M1037.37,343.39c-5.36-.79-9.74,2.74-14.95,3.35-5.99.7-11.45.4-17.03-1.35q-1.76-.55-4-4.5"/>
      <path class="cls-1" d="M1090.84,557.75c-4-3.5-8.43-6.62-11.87-10.6-3.41-3.93-6.92-3.91-11.12-2.39"/>
      <path class="cls-1" d="M927.92,268.93c5.76,4.82,6.23,12.23,8.88,18.54,1.04,2.47-1.7,4.82-1.88,7.45"/>
      <path class="cls-1" d="M1146.32,413.34c5.35,8.2,11.85,15.36,19.49,21.49"/>
      <path class="cls-1" d="M1337.22,604.72c-7.16,1-14.31,2.15-21.5,2.91-2.39.25-4.26.82-4.93,3.1-.61,2.1.3,4.01,1.94,5.48,3.16,2.84,6.21,5.81,9.54,8.44,1.84,1.45,3.86,2.11,6.51.67,4.11-2.24,8.6-3.77,12.93-5.61"/>
      <path class="cls-1" d="M989.89,416.34c4.66,1.17,9.27,2.73,14.01,3.37,3.84.52,5.95,3.88,9.48,4.62"/>
      <path class="cls-1" d="M1149.31,600.72c-6.04,2.13-11.74,5.44-18.49,5.05-1.14-.07-2.61.28-3.44,1-2.95,2.54-6.31,1.53-9.54,1.39-1.34-.06-2.75-1.09-3.99-.87-5.83,1.01-11.69-.29-17.51.42"/>
      <path class="cls-1" d="M654.06,331.39c.81,2.98,2.29,5.85,3.16,8.6,2.8,8.77,6.95,17.34,6.79,26.88-.02,1.34-.62,2.67-.96,4"/>
      <path class="cls-1" d="M694.04,352.88c-4.13,7.21-3.74,13.8.77,21.13,3.47,5.63,5.24,12.42,7.05,18.9.72,2.58,1.69,4.46,3.68,5.93,4.68,3.47,9.54,6.68,14.03,10.45,6.29,5.29,14.44,4.92,21.92,6.65,4.03.93,7.42.69,10.52-2.1"/>
      <path class="cls-1" d="M1319.23,671.17c-4.92-1.76-8.53-5.52-11.87-9.11-6.66-7.17-14.4-12.77-23.7-15.02-3.71-.9-9.22-4.95-12.91,1.14-10.01,1.08-17.43,7.76-26,11.97-.4.2-.99.03-1.49.03"/>
      <path class="cls-1" d="M885.44,302.41c.17.83-.17,1.64.46,2.53,4.78,6.8,8.75,14.25,15.53,19.46"/>
      <path class="cls-1" d="M1350.72,635.2c-1,2.66-1.87,5.39-3.04,7.98-1.05,2.34-.37,5.15,1.12,5.83,5.93,2.7,11.09,7.82,18.41,6.67.51-.08,1-.32,1.5-.49"/>
      <path class="cls-1" d="M1156.81,503.28c-3.26,5.16-5.69,10.86-10.44,15.06-1.9,1.68-2.08,4.39-2.06,6.93.02,3.33,0,6.66,0,9.99"/>
      <path class="cls-1" d="M925.92,296.92c5.14-.04,11.13,0,12.24,6.04,1.22,6.63,5.27,13.4,1.26,20.44"/>
      <path class="cls-1" d="M864.95,409.84c-3.4,4.93-5.85,9.83-2.58,16.03,2.65,5.02,7.46,7.41,11.72,10.23,1.97,1.3,5.56.4,7.85-1.78"/>
      <path class="cls-1" d="M1190.29,609.21c-8.38-1.13-15.8,2.06-19.89,9.05-1.06,1.81-2.77,3.02-3.6,4.94-2.44,5.62.82,11.41,7.01,11.94,3.87.33,7.79.21,11.5-1.43,6.23-2.75,13.13-3.36,19.42-5.69,5.38-2,9.96-.38,14.5,1.35,2.84,1.08,5.62,1.87,8.56,2.33"/>
      <path class="cls-1" d="M673.05,337.39c-2.4,3.46-1.92,6.15.19,10.16,3.21,6.07,7.41,11.8,8.9,18.81.83,3.91,4.8,6.68,4.87,11.01.08,4.17,2.48,8.34-.34,12.58-.62.93-.65,3.02.81,4.47,1.24,1.24,1.23,3.17,1.06,4.93"/>
      <path class="cls-1" d="M811.48,236.96c-1.89,2.94-5.19,2.71-8.01,3.46-4.8,1.29-9.65,2.37-14.48,3.53"/>
      <path class="cls-1" d="M1060.86,566.74c-.5,1.67-1.13,3.3-1.47,5-.62,3.15,1.32,6.61,3.48,6.7,5.6.23,5.13,5.15,7.48,7.79"/>
      <path class="cls-1" d="M780.49,270.93c-1.67,1.5-3.13,3.37-5.04,4.41-3.06,1.66-5.37,3.59-6.55,7.05-.71,2.07-2.1,4-3.87,5.57-1.49,1.32-3.13,2.76-3.94,4.5-1.96,4.21-4.89,6.51-9.57,7.09-1.4.17-3.26.89-4.05,2.85-2.96,7.26-8.14,13.42-10.46,21"/>
      <path class="cls-1" d="M758.01,301.91c.9,1.9,1.9,3.61,1.08,6.02-1.48,4.36-1.74,8.9-.63,13.48.18.75-.28,1.65-.45,2.49"/>
      <path class="cls-1" d="M1310.24,672.17c-5.84-3-10.93-6.84-14.53-12.47-.42-.66-1.44-1.57-1.94-1.44-5.98,1.58-11.57-2.79-17.51-1.08"/>
      <path class="cls-1" d="M675.05,323.9c-12.73.46-23.21,8.48-35.48,10.49"/>
      <path class="cls-1" d="M1378.7,587.23c-4.24-4.13-6.78-9.41-9.39-14.54-1.46-2.86-1.84-6.25-.12-9.45,1.05-1.96.53-3.75-.72-5.5-2.9-4.03-6.99-7.16-11.69-5.74-5.69,1.71-11.56-.59-17.16,2.04-2.1.99-3.64,1.92-4.91,3.7-2.39,3.38-5.53,3.47-7.91-.04-.98-1.44-1.73-2.74-3.57-2.95"/>
      <path class="cls-1" d="M880.45,436.33c-.88,3.63-1.28,6.92,2.94,9.1,1.66.86,2.9,2.77,4.01,4.42,1.51,2.27,3.45,3.76,6.04,4.47"/>
      <path class="cls-1" d="M1136.82,408.84c5.83,6.83,11.66,13.66,17.49,20.49"/>
      <path class="cls-1" d="M889.44,483.79c-.5,2-1.08,3.98-1.49,6-1.73,8.55-1.23,9.56,6.48,13.49"/>
      <path class="cls-1" d="M1075.35,400.35c-7.51,1.64-12.37,8.36-19.95,10.17-3.72.89-7.35,3.2-9.49,6.85-.42.71-.71,1.2-1.54,1.5-8.22,3-8.94,10.34-10.01,17.46"/>
      <path class="cls-1" d="M800.48,394.85c5.57,2.65,12.06,2.28,17.55,5.4,1.49.85,2.31-1.13,2.94-2.4"/>
      <path class="cls-1" d="M1371.21,671.17c-11.06-1.49-20.31-6.58-29.13-13.31-4.91-3.74-8.94-8.92-15.3-10.84-1.2-.36-2.72-1.66-3.63-3.29-1.82-3.28-4.68-5.43-8.38-6.64-1.85-.61-3.58-2.02-4.99-3.44-3.83-3.86-8.31-5.08-13.53-3.96"/>
      <path class="cls-1" d="M1035.37,454.31c3.39.57,4.32,3.6,5.41,6.04,2.02,4.53,3.83,8.74,10.1,7.53,1.26-.24,3.12.12,2.48,2.42"/>
      <path class="cls-1" d="M1097.84,388.36c3.36,4.45,3.73,10.09,5.96,15.01,1.56,3.45,3.04,7,2.55,10.98-.08.66.19,1.42-.04,1.98-2.78,6.68-1.8,12.83,2.57,18.47.68.88.73,2.02.4,2.48-3.26,4.42-.13,7.86,1.55,11.55.28.61.35,1.33.52,1.99"/>
      <path class="cls-1" d="M905.43,509.78c5.88.49,11.19,4.99,17.49,2.49,1.04-.41,2.3-.39,3-1.49"/>
      <path class="cls-1" d="M915.43,422.83c-4.83,0-9.66.08-14.49-.03-2.26-.05-4.4.24-6.5,1.03"/>
      <path class="cls-1" d="M973.9,312.91c-.81.53-1.63,1.06-2.76,1.8,3.06,4.77,5.92,9.8,9.74,14.21,1.75,2.01,3.35,2.07,5.01-.01"/>
      <path class="cls-1" d="M826.97,248.95c8.57-1.8,16.88-2.5,23.5,4.99,3.9,4.41,9.96,6.85,11.98,13,.05.15,0,.33,0,.5"/>
      <path class="cls-1" d="M1199.29,545.75c3.63,4.51,3.45,9.47,1.44,14.47-.81,2.01-.92,3.97-.94,6.02"/>
      <path class="cls-1" d="M1370.21,562.24c6.86-1.24,12.7,2.99,15.14,9.44,2.66,7.05,3.44,14.17,3.36,21.54"/>
      <path class="cls-1" d="M1054.36,417.84c-2.88-1.46-4.49.26-5.45,2.52-2.33,5.44-6.67,6.84-12.04,6.48"/>
      <path class="cls-1" d="M1351.22,552.75c.14-4.77-.9-8.64-5.39-11.65-3.54-2.37-6.19-3.49-9.62-.36-2.55,2.32-5.94,2.65-7.81-.09-2.15-3.16-5.29-3.54-8.21-5.18-2.05,2.37-1.4,5.36-2.45,7.79"/>
      <path class="cls-1" d="M1280.25,674.17c-6.78-.24-13.38-1.66-19.99-3"/>
      <path class="cls-1" d="M1389.7,647.19c-2.45,6.52-1.19,13.31-1.5,19.99"/>
      <path class="cls-1" d="M801.48,253.94c-1.92,4.4-4.51,6.72-10.04,5.76-2.9-.5-6.59,1.22-9.37,2.87-3.18,1.89-5.52,1.28-8.08-.64"/>
      <path class="cls-1" d="M980.4,468.8c3.17,3.16,6.37,6.29,9.48,9.51,2.39,2.47,5.22,4.09,8.51,4.98"/>
      <path class="cls-1" d="M919.93,264.44c1.67,3.16,3.16,6.44,5.04,9.47,2.15,3.45,1.75,6.69-.05,10.02"/>
      <path class="cls-1" d="M1076.85,585.23c.07,7,1.95,8.6,9.99,9.03,4.32.23,8.57,1.04,12.46,3.03.73.37,1.54.66,2,.39,5.7-3.35,11.69-.67,17.52-.88.31-.01.66.93,1,1.43"/>
      <path class="cls-1" d="M835.47,218.47c-3.84-.82-7.41-.53-11.05,1.39-2.67,1.41-5.64-.3-8.44-.89"/>
      <path class="cls-1" d="M809.98,367.87c7.56-4.84,15.37-1.62,22.95-.27,2.3.41,4.6,1.23,7.04,1.28,9.18.19,18.23,2.68,27.49,1.49"/>
      <path class="cls-1" d="M849.96,388.86c8.74-6.58,16.14-7.25,24.02-2.55,2.88,1.72,3.89,4.4,3.32,7.02-1.08,5.01-1,10.3-3.36,15.02"/>
      <path class="cls-1" d="M1402.19,648.69c0,4.83-.01,9.66,0,14.49,0,1.64-.51,3.58,1.99,4"/>
      <path class="cls-1" d="M1000.39,373.87c-5.61-5.65-12.73-3.97-19.49-4"/>
      <path class="cls-1" d="M1433.68,639.69c.17,6.5.33,12.99.5,19.49"/>
      <path class="cls-1" d="M1076.1,471.8c-.25-.67-.67-1.93-.73-1.91-3.78,1.09-8.08-3.42-11.49.94-1.18,1.51-2.66.91-4.03.94-1.56.04-3.07-.06-4,1.53"/>
      <path class="cls-1" d="M749.51,176.49c4.96,1.5,9.08,5.19,14.49,5.51,1.5.09,3,.32,4.5.49"/>
      <path class="cls-1" d="M964.4,466.81c4.7.98,8.11,3.42,11.15,7.38,4.09,5.33,11,7.2,16.39,11.05,1.88,1.34,4.21,2.37,4.82,4.59.46,1.67,1.55,2.24,2.64,2.94,9.67,6.15,9.94,8.15,6.48,17.51"/>
      <path class="cls-1" d="M969.9,333.89c5.6,7.03,6.17,12.46,2,18.99"/>
      <path class="cls-1" d="M1406.19,604.22c5.26,11.71,8.69,23.99,11.49,36.48"/>
      <path class="cls-1" d="M1240.77,614.21c-1.51-2.12-3.34-3.32-5.99-1.99-1.02.51-2.03.62-3-.01-3.87-2.55-9.84-1.35-12.11-6.94-.4-.98-2.19-1.89-3.39-1.96-6.83-.4-12.22-4.68-18.43-6.75-4.91-1.64-9.74-.14-14.62-.89-2.5-.39-5.81,3.63-9.43,4.03-6.3.7-11.44,4.57-17.4,6.34-3.02.9-5.1,5.01-7.58,7.69-1.04,1.13-2.15,2.23-2.98,3.51-2.02,3.11-4.78,3.49-8.02,2.48-3.12-.97-6.29-1.02-9.49-.5"/>
      <path class="cls-1" d="M913.93,330.89c3.18,1.28,3.94,4.38,3.82,6.99-.16,3.64,2.16,6.86,1.24,10.52-.14.55.43,1.55.96,1.95,8.14,5.97,10.37,18.27,21.96,20.53.51.1,1,.32,1.5.49"/>
      <path class="cls-1" d="M1082.85,406.34c.17.67.11,1.6.53,1.96,4.66,3.96,4.98,8.85,4.16,14.56-.43,3.01,1.7,6.3,1.69,9.47-.02,7.51-.53,15.02-3.89,21.99"/>
      <path class="cls-1" d="M1059.86,394.35c-.33-.83-.67-1.66-1.05-2.63-5.84,1.68-10.96,4.82-14.26,9.74-2.22,3.31-6.03,1.96-8.17,4.38"/>
      <path class="cls-1" d="M836.97,369.37v18.49"/>
      <path class="cls-1" d="M1140.82,536.76c-.85,6.14-.42,12.32-.5,18.49"/>
      <path class="cls-1" d="M969.9,294.42c6.1,3.18,10.92,8,15.97,12.52,2.04,1.82,1.38,4.63,2.05,6.96,1.95,6.85,7.6,9.78,13.45,12.52,4.62,2.17,9.12,3.87,14.51,3.64,6.06-.26,11.71,2.62,17.48,4.33"/>
      <path class="cls-1" d="M1205.79,501.28c-3.43,2.72-4.49,6.96-6.3,10.59-1.12,2.25-.41,5.46,1.31,7.9"/>
      <path class="cls-1" d="M1302.74,589.23c1.48,4.92,3.09,9.69,7.44,13.06,1.61,1.25,2.62,3.29,3.05,5.43"/>
      <path class="cls-1" d="M1228.78,508.28c-3.28,2.73-4.55,6.35-5.06,10.49-.31,2.54-1.27,5-1.93,7.5"/>
      <path class="cls-1" d="M1397.69,648.69c0,4.5-.11,9,.04,13.49.11,3.31-1.24,4.8-4.54,4.5"/>
      <path class="cls-1" d="M1068.35,589.23c4.79,3.23,8.99,7.38,14.5,9.47,2.74,1.04,5.71.06,8.48.58,4.15.79,7.92,5.84,12.51.94,5.05,2.06,10.34.34,15.5.93,2.7.31,5.71,1.11,7.99-1.43"/>
      <path class="cls-1" d="M916.43,397.85c1.24,3.04.1,6.38,1.8,9.6,1.49,2.83-1.63,6.11-5.77,7.95-2.66,1.18-5.9,1.03-8.02,3.44"/>
      <path class="cls-1" d="M846.46,265.44c-7.55-10.6-16.38-12.45-28.42-7.81-3.99,1.54-8.09,2.79-12.11,4.17-1.93.66-3.57.87-3.95,3.14"/>
      <path class="cls-1" d="M1150.31,599.72c2.01-1.18,4.28-1.5,6.49-1.42,1.42.05,2.57-.4,3.47-1.12,4.85-3.96,10.38-4.82,16.5-5.28,3.35-.25,6.79-2.95,10.52-3.67,8.21-1.58,15.23-.2,22.74,4.6,6.66,4.25,12.68,11.02,21.74,10.89"/>
      <path class="cls-1" d="M963.91,402.85c2.35-3.56,4.85-4.46,9.09-2.18,3.52,1.89,7.9,2.18,11.9,3.18"/>
      <path class="cls-1" d="M844.46,248.45c.35-3.77-2.54-5.65-5.06-6.87-7.36-3.6-16.21-1.24-22.43,5.38"/>
      <path class="cls-1" d="M1241.77,477.8c-3.72,7.52-10.23,5.86-16.49,5"/>
      <path class="cls-1" d="M680.54,298.91c4.23,1.24,6.47,5.25,10.4,7.19,5.64,2.78,9.71,3.35,15.09-.19"/>
      <path class="cls-1" d="M950.91,533.26c3.59-1.66,7.89-1.5,10.63-5.4,1.72-2.45,5.34-.48,7.89-.65,4.29-.29,9.21-.95,13.56,1.9,1.9,1.24,4.89,1.04,7.4,1.07,1.41.01,1.95.62,2.5,1.59"/>
      <path class="cls-1" d="M1149.81,590.72c-3.86,4.01-9.51,2.25-14.07,4.32-2.25,1.02-4.28-1.13-4.93-3.81-.94-3.85-1.98-7.67-2.98-11.5"/>
      <path class="cls-1" d="M1137.07,474.8c1.13,2.93,3.71,1.69,5.95,2.03,1.07,2.59,2.2,5.27,3.29,7.97,1.94,4.82-.79,9.32-1.15,13.98-.14,1.86-.11,3.4.65,5.01"/>
      <path class="cls-1" d="M1262.76,617.71c.69,2.21,1.19,3.99,4.54,3.15,3.01-.75,6.36-.03,9.47-1.12,1.11-.39,1.67.28,1.49,1.47"/>
      <path class="cls-1" d="M991.89,529.76c-.17-3.49-1.88-5-5.49-5.11-2.18-.06-4.3-1.39-6.51-1.86-11.21-2.4-22.17-2.94-31.44,5.51-1.89,1.72-4.14.56-6.04,1.46"/>
      <path class="cls-1" d="M1075.85,381.86l-16.49,10.49"/>
      <path class="cls-1" d="M1093.34,378.36c-6.05-2.82-11.47-1.5-16.49,2.5"/>
      <path class="cls-1" d="M876.45,241.45c4.89,5.31,11.46,9.29,12.63,17.47.37,2.59,3.18,3.35,5.86,3.57,3.25.27,5.97,1.17,6.12,5.44.07,2.16,1.84,3.78,3.84,5.06,2.98,1.91,3.89,4.98,3.54,8.43"/>
      <path class="cls-1" d="M758.01,261.94c-4,3.88-9.39,6.26-13.19,9.82-6.83,6.38-15.52,11.19-19.84,20.14-1.03,2.14-2.62,4.02-3.95,6.02"/>
      <path class="cls-1" d="M1166.81,585.23c.92,1.59,2.44,1.69,4,1.48,4.22-.56,8.63-.37,12.47-2.52,2.89-1.62,5.7-2.38,9.04-1.56,1.37.33,3.01-.3,4.53-.68,3.59-.88,7.39-.07,10.93,1.29.55.21,1.47.71,1.44.97-.78,6.27,3.93,3.4,6.56,4.03,2.36.56,5.55.58,6.83,2.12,3.12,3.75,6.96,2.6,10.67,2.85"/>
      <path class="cls-1" d="M1092.34,559.25c.67,5.5,1.33,10.99,2,16.49"/>
      <path class="cls-1" d="M888.44,247.45c4.3,4.28,9.52,7.97,9.5,14.99"/>
      <path class="cls-1" d="M856.96,279.93c-2.8-5.37-8.56-8.23-11.68-13.27,1.77-2.08,2.99-1.01,4.19.28.48.52.99,1.01,1.5,1.5q5.35,5.2,12.49,3.5"/>
      <path class="cls-1" d="M895.44,390.36c-1.99,3.45-6.2,3.95-8.5,1-3.47-4.45-4.83-4.86-10-3"/>
      <path class="cls-1" d="M853.96,456.31c-.2,4.61-3.62,8.57-2.54,13.5,1.08,4.95,2.35,9.7,5.99,13.53.98,1.03,1.38,2.62,2.05,3.95"/>
      <path class="cls-1" d="M1331.23,582.23c-2.4-4.87-3.52-5.33-6.43-1.94-1.98,2.31-5.19,2.24-7.07,4.44"/>
      <path class="cls-1" d="M1164.31,428.33c4.39,1.73,6.47,4.44,5.12,9.53-.68,2.56.19,5.28,1.23,8.02,2.45,6.49,4.11,13.28,6.16,19.93.87,2.8.81,6.12,3.98,7.75"/>
      <path class="cls-1" d="M916.93,288.92c-2.17-1.67-4.8-2.98-6.39-5.08-2.68-3.52-5.63-3.37-9.14-1.81-3.63-2.35-5.59-6.72-9.95-8.1"/>
      <path class="cls-1" d="M1197.79,562.74c-1,.83-2.04,1.62-2.99,2.51-3.98,3.68-8.32,5.34-13.5,2.49"/>
      <path class="cls-1" d="M939.42,331.89c-.81,2.8-3.36,6.05-1.78,8.35,2.55,3.7,4.58,8.38,9.77,9.67,3.3.82,5.77,3.01,8,5.47"/>
      <path class="cls-1" d="M1009.38,438.32c-5.34.75-10.77.96-15.99,2.5"/>
      <path class="cls-1" d="M924.92,462.81c-8.12,4.62-20.1,2.76-27.41-4.57-1.29-1.29-2.45-2.59-4.16-3.45.54-.67,1.06-1.32,1.58-1.97"/>
      <path class="cls-1" d="M1335.22,681.17c-5.33-.67-10.66-1.33-15.99-2"/>
      <path class="cls-1" d="M963.41,288.42c-.57,7.37.03,14.44,4.96,20.51,1.07,1.31,1.7,2.97,2.53,4.47"/>
      <path class="cls-1" d="M1344.72,573.74c-2.41-1.01-4.66-2.01-7.53-1.11-2.43.77-5.19-.69-6.85-2.04-4.85-3.94-10.35-2.44-15.61-2.8-2.53-.17-2.81,2.16-2.95,3.94-.32,4.32-.38,8.66-.55,12.99"/>
      <path class="cls-1" d="M632.07,352.38c-1.25,4.79-4.65,9.52-.49,14.48.22.26.65.35.98.51"/>
      <path class="cls-1" d="M994.39,376.36c.5,0,1.05.14,1.49-.02,5.34-2.02,10.17-1.22,14.58,3.6-.45-3.41-.76-5.74-1.08-8.08"/>
      <path class="cls-1" d="M1293.24,531.76c-.52-1.91-1.04-3.82-1.69-6.2-4.73,1.28-9.48,1.82-13.95,4.98-3.94,2.79-7.43,5.24-8.34,10.21"/>
      <path class="cls-1" d="M1269.26,547.25c4.77.45,9.62,1.71,13.99-1.5,1.72-1.26,3.68-.51,5.49-.44,2.84.11,5.66.84,8.5.89,4.23.07,7.83,1.33,9.94,5.08,2.89,5.13,6.6,10.04,6.05,16.46"/>
      <path class="cls-1" d="M1097.84,440.82c-1.43,1.75-1.85,3.77-2.05,5.99-.26,2.84-1.93,5-3.92,7.03-5.03,5.16-3.15,13.38,3.45,16.01,1.64.65,3.7.98,4.06,3.45.41,2.84,3.44,3.53,5.12,5.72-1.52,2.32-1.12,5.07-1.16,7.78"/>
      <path class="cls-1" d="M1298.74,570.24c-.09-3.96-3.81-6.14-7.97-4.43-1.49.61-2.69,1.94-4.02,2.94"/>
      <path class="cls-1" d="M1287.25,627.7c-1.49-2.19-3.33-2.29-6.01-2.17-7.14.32-14.32,1.39-21.48.18"/>
      <path class="cls-1" d="M1205.79,553.75c2.5,1.33,4.98,2.7,7.5,3.99,1.73.88,3.08,2.14,3.43,4.02.25,1.35.35,2.02,2.02,2.61,5.45,1.91,8.31,9.43,6.04,14.87"/>
      <path class="cls-1" d="M994.39,314.9c4.58.9,8.78,2.27,12.62,5.34,2.5,2,5.63,4.05,9.37,3.65"/>
      <path class="cls-1" d="M1216.78,535.26c2.31,4.82,1.28,9.97,1.5,14.99"/>
      <path class="cls-1" d="M1137.82,550.25c-.66,4.01-3.85,4.46-7,5-6.1,1.05-11.93.2-17.49-2.5"/>
      <path class="cls-1" d="M1277.25,637.19c.18,1.18-.08,1.82-1.49,2.04-4.52.72-9,1.62-13.5,2.46"/>
      <path class="cls-1" d="M1056.36,416.84c3.15,1,5.56-3.29,9.03-1.06,2.68,1.72,5.76,1.52,8.97,1.22,3.16-.3,5.3,1.91,4.34,5.3-.36,1.25.12,2.82.24,2.93,6.2,5.24,2.6,12.08,2.64,18.1.02,2.8,1.31,6.54-2.13,9.13-1.29.97.25,4.3,1.9,5.11"/>
      <path class="cls-1" d="M1145.82,587.73c3.5,1.42,6.71,1.28,10.56.24,6.21-1.68,11.55-5.01,17.42-7.26,3.08-1.18,6.18-1.46,9.49-1.69,6.21-.43,12.39-1.91,18.49-3.37,3.56-.85,6.55-1.62,8.61,2.53.56,1.13,2.26,1.69,3.4,2.55,2.33,1.75,3.67,3.95,3,6.99"/>
      <path class="cls-1" d="M902.93,278.43c-2.5-2.17-4.88-4.5-7.54-6.44-2.01-1.47-4.39-2.35-6.96-1.05"/>
      <path class="cls-1" d="M1246.77,548.75c-3.77,3.26-4.91,8.23-7.8,12.14-2.87,3.88-1.39,7.3,2.82,10.33,1.76,1.27,3.65,2.35,5.48,3.51"/>
      <path class="cls-1" d="M983.9,535.26c-4.79-1.31-9.62-1.46-14.49-.5"/>
      <path class="cls-1" d="M984.4,330.89c2.78,7.59,11.36,12.4,16.97,9.45.34-.18.36-.96.52-1.46"/>
      <path class="cls-1" d="M641.56,337.39c.06,4.34,2.24,8.76-.5,12.99-.98,1.52.4,2.57,1.06,3.45,2.78,3.67,3.73,7.63,2.41,12.03-.69,2.29-.57,4.32.42,6.55.49,1.1,2.01,2.42.6,3.95"/>
      <path class="cls-1" d="M1302.24,677.17c-5.25.41-10.31-1.23-15.49-1.51-1.5-.08-3-.32-4.5-.49"/>
      <path class="cls-1" d="M1258.26,625.7c-3.28,1.17-7.23,1.58-9.88.27-5.99-2.96-12.84-2.91-18.63-6.22-2.56-1.46-4.95-3.19-8.51-2.19-3.23.9-4.74-3.48-7.95-3.88-7.4-.93-14.09-5.77-21.99-3.96"/>
      <path class="cls-1" d="M1069.85,423.33c.04,7.86,5.19,14.39,5.23,22.48.04,8.16-4.56,12.56-9.58,17.63-3.3,3.33-8.05,2.38-11.14,5.35"/>
      <path class="cls-1" d="M1245.27,482.79c-3.66,6.16-7.05,12.53-11.19,18.35-1.07,1.51-1.4,3.41-2.8,4.63"/>
      <path class="cls-1" d="M1248.77,524.77c.33,1,1.26,2.37.91,2.94-3.22,5.21-1.11,11.11-2.37,16.56-.69,3,.64,5.05,3.43,6.53,5.3,2.82,8.19,7.27,8.02,13.44"/>
      <path class="cls-1" d="M747.51,283.92c-4.13,3.61-2.35,8.17-1.99,12.49.15,1.85.98,3.47,1.99,5"/>
      <path class="cls-1" d="M1063.36,371.87c.06,3.96-.92,6.64-5.42,8.2-4.65,1.61-8.87,4.43-14.07,4.29"/>
      <path class="cls-1" d="M1117.33,476.8c1.69-7.45,1.77-7.46,9-7.03,2.58.15,5.07-.62,7.49-1.47,8.22-2.89,13.55.23,15.59,8.47,1.11,4.48,1.88,8.96,2.4,13.52"/>
      <path class="cls-1" d="M1147.82,503.78c-1.75-.35-2.64.95-3.47,2.02-2.72,3.49-5.59,6.53-10.52,6.52-2.2,0-2.9,2.45-4.52,3.42-1.67,1-3.9,1.13-4.88-.52-2.53-4.23-5.89-8.39-3.6-13.94,1.47-3.58,0-7.32.31-11,.23-2.66.37-3.94,3.1-5.2,2-.92,3.82-2.34,6.1-2.78"/>
      <path class="cls-1" d="M754.51,280.93c-1.7,1.04-3.11,2.66-5.54,1.06-2.56-1.69-5-.19-6.92,1.48-4.63,4.01-7.41,9.29-9.53,14.95"/>
      <path class="cls-1" d="M1031.37,421.34c-3.08,5.93-2.97,12.98-7.24,18.68-1.58,2.12-.05,6.46-2.26,9.3"/>
      <path class="cls-1" d="M1451.67,639.19c.95,4.46,3.59,8.65,2.25,13.49"/>
      <path class="cls-1" d="M1134.32,488.29c1,3.71.28,7.09-1.44,10.53-2.18,4.36-.57,8.96-.06,13.46"/>
      <path class="cls-1" d="M1069.85,427.83c-4.08-2.38-8.19-3.79-12.49-.5-6.55-2.71-9.62,3.77-14.49,5.5-.52.19-1.39.43-1.44.75-1.04,6.48-7.79,11.75-4.1,19.25.17.34-.29.98-.46,1.48"/>
      <path class="cls-1" d="M1034.87,437.32c.17.17.33.33.5.5-4.57,4.01-4.54,9.15-3.46,14.48.24,1.2-1.12,1.5-1.03,2.51"/>
      <path class="cls-1" d="M1285,558.75c.8,4.52-.43,8.76-1.75,12.99"/>
      <path class="cls-1" d="M1298.74,532.76c1.02,4.3.27,8.66.5,12.99"/>
      <path class="cls-1" d="M920.43,352.88c-1.19,2.86-.1,5.02,1.98,7.02,1.37,1.31,3.05,2.43,3.52,4.47"/>
      <path class="cls-1" d="M899.44,488.79c.04,4.37-1.94,8.93,1.25,12.99"/>
      <path class="cls-1" d="M1200.29,572.24c-6.86-1.95-12.52.9-17.99,4.5"/>
      <path class="cls-1" d="M1069.85,491.29c.16,4.41.13,8.79-1.5,12.99"/>
      <path class="cls-1" d="M867.95,472.8c-.46,2.41-2.53,3.92-3.16,6.46-1.63,6.58,3.89,9,6.65,13.03"/>
      <path class="cls-1" d="M1127.33,566.24c.33,4.49-.66,9.03.5,13.49"/>
      <path class="cls-1" d="M1069.35,451.32c-4.7.59-8.36-3.32-12.99-3"/>
      <path class="cls-1" d="M963.41,468.3c.18-2.25-2.45-2.6-2.92-2.35-3.19,1.7-7.47-.59-10.07,2.85"/>
      <path class="cls-1" d="M903.43,370.37c-.16,3.25-3.02,1.95-4.54,2.35-2.18.57-4.63.15-6.96.15"/>
      <path class="cls-1" d="M968.4,406.34c-4.18.13-8.62-2.92-12.49,1"/>
      <path class="cls-1" d="M1311.74,569.74c-3.37-1.62-6.37.34-9.49,1.03-1.25.28-.99,1.51-1.01,2.46"/>
      <path class="cls-1" d="M1279.75,570.24c-4.72-5.36-10.48-6.27-16.99-4"/>
      <path class="cls-1" d="M1042.87,380.86c.66,4.23-1.77,6.7-6.48,7.56-6.68,1.21-12.82-.63-19-2.56"/>
      <path class="cls-1" d="M1098.84,470.3c.92-1,1.73-1.62,1.14-3.54-1.33-4.28.62-8.17,4.36-10.46,1.85-1.13,3.96-2.04,5.44-3.55,3.04-3.12,5.98-2.53,8.47.14,1.81,1.93,3.58,2.78,6.08,2.43.33-.05.82-.15.98.01,4.67,5.12,11.66,2.04,17.05,4.91,5.36,2.85,9.15,5.91,11.33,12.44,3.05,9.1,2.57,18.01,2.62,27.11"/>
      <path class="cls-1" d="M1476.15,632.2c1.45,4.27,2.21,8.12-4.5,7.5-5.16,5.66-10.33,2.86-15.49,0"/>
      <path class="cls-1" d="M1326.73,543.76c-4.34,6.88-11.5,7.24-18.49,7.99"/>
      <path class="cls-1" d="M1240.27,615.21c3.15-2.53,4.95-.06,6.4,2.07.75,1.1,1.64,2.96,2.51,2.31,4.71-3.5,8.15.58,12.08,1.62"/>
      <path class="cls-1" d="M1074.35,363.37c-3.92,2.05-8.44,1.13-12.49,2.5"/>
      <path class="cls-1" d="M1055.36,447.82c-3.91-1.28-7.76-2.82-11.99-2.5"/>
      <path class="cls-1" d="M741.51,218.47c-2.32,4.69-6.66,3.34-10.49,3.5"/>
      <path class="cls-1" d="M972.4,365.87c-4,.83-8,1.67-11.99,2.5"/>
      <path class="cls-1" d="M1225.78,459.31c-.58,2.39-.74,4.6.42,7.03,1.82,3.8,1.47,7.62-1.42,10.96"/>
      <path class="cls-1" d="M810.98,330.39c.67,4,1.33,7.99,2,11.99"/>
      <path class="cls-1" d="M1067.85,563.24c-.36,4.01-3.28,7.71-1.5,11.99"/>
      <path class="cls-1" d="M1041.87,571.24c7.31,6.51,12.91,14.77,20.99,20.49"/>
      <path class="cls-1" d="M1041.87,522.27c.02,4.03.25,8.07-1,11.99"/>
      <path class="cls-1" d="M1163.81,568.24c-.16,4.04.61,8.2-1.5,11.99"/>
      <path class="cls-1" d="M1246.27,513.53c-2.88-.49-5.47,1.16-6.84,2.87-3.74,4.68-8.8,7.32-13.65,10.37"/>
      <path class="cls-1" d="M1263.76,505.28c.61,3.01.11,6.27,2.49,9.28-5.25.87-5.07,7.83-10.49,8.21"/>
      <path class="cls-1" d="M938.92,378.86c-1.18,1.38-2.54,2.15-4.5,2.04-2.74-.15-5.1.93-6.99,2.95"/>
      <path class="cls-1" d="M1277.75,638.94c6.07-.21,11.96.33,17.52,3.18,1.98,1.02,4.16,2.56,5.21,3.78,3.8,4.39,9.38,5.96,13.61,9.88,5.65,5.24,11.23,10.43,16.13,16.38"/>
      <path class="cls-1" d="M1275.25,657.18c-5.02.09-10.48-1.52-14.07,3.95-.38.58-1.54-.06-1.92-.95"/>
      <path class="cls-1" d="M973.9,515.27c1.5.33,3.31.24,4.45,1.07,5.66,4.11,11.27,4.03,17.04.43"/>
      <path class="cls-1" d="M1035.37,406.34c-.42,1.87-2.31,2.03-3.51,2.99-3.45,2.76-3.44,2.93.51,5.51"/>
      <path class="cls-1" d="M1190.29,503.28c-3.79,1.1-7.67.22-11.49.5"/>
      <path class="cls-1" d="M759.5,177.49c-2.47-.35-4.67-1.44-6.45-3.05-1.62-1.48-3.33-.86-5.05-.94"/>
      <path class="cls-1" d="M1153.31,417.34c2.79,4.01,6.58,7.07,10,10.49"/>
      <path class="cls-1" d="M1215.28,459.31c-.1,3.83,1.94,7.65.08,11.53-.1.21.92.96,1.42,1.46"/>
      <path class="cls-1" d="M1052.86,356.38c-1.39,3.78-1.29,7.62-.5,11.49"/>
      <path class="cls-1" d="M1346.72,645.69c-2.41,1.14-4.15.23-6.06-1.42-1.66-1.43-3.87-2.19-4.18,1.42"/>
      <path class="cls-1" d="M1063.86,483.79c5.64-2.94,11.67-4,17.99-4.03,5.99-.03,9.98,3.91,12.23,8.16,3.28,6.19,7.62,11.39,11.74,16.86,2.95,3.92,5.18,8.23,6.51,12.98"/>
      <path class="cls-1" d="M1168.31,587.23c-2.62,3.91-6.98,4.78-11.04,5.8-.88.22-1.9.25-2.98.6-6.1,2.02-12.49,3.29-18.4,5.74-4.27,1.77-7.34-.24-10.48-1.82-1.82-.91-3.13-1.89-5.08-.84"/>
      <path class="cls-1" d="M1107.83,496.79c1.37,4.77,5.55,8.54,5,13.99"/>
      <path class="cls-1" d="M1039.87,361.87c-1.69-1.85,1.74-5.87-2.02-6.3-2.87-.32-5.91,1.25-7.47,4.3-.68,1.33-1.66,2.34-3,3"/>
      <path class="cls-1" d="M1255.76,643.69c-5.87,1.78-11.98,1.74-17.99,2.5-1,.13-2.3-.02-2.95.55-4.23,3.69-9.31,2.17-14.04,2.39-5.25.24-6.75-1.96-4.92-6.91.26-.71.32-1.34.42-2.03"/>
      <path class="cls-1" d="M1241.77,515.77q3.07,6.29,6.5,8.5c2.27-.34,3.67-3.47,7.04-1.93,1.38,1.17-.39,3.51.96,4.93"/>
      <path class="cls-1" d="M1193.29,648.19c4.56-1.52,9.25-3.17,13.45.55,3.06,2.71,5.71.71,8.54-.05"/>
      <path class="cls-1" d="M1161.31,580.73c-4.85,1.74-9.4,4.99-14.99,3"/>
      <path class="cls-1" d="M950.41,510.78c-3.51,3.51-8.53,1.17-12.55,3.39-5.98,3.3-12.77,3.15-19.43,3.11"/>
      <path class="cls-1" d="M947.41,507.78c-4.06,1.41-8.36,2.06-12.47,1.36-4.64-.79-5.12-4.88-5.02-8.85"/>
      <path class="cls-1" d="M993.89,532.76c2.67,2,5.31,4.02,8,5.99,2.46,1.8,5.13,2.2,7.99,1.01"/>
      <path class="cls-1" d="M836.97,247.45c-.18-2.21-1.75-2.29-3.49-2.56-2.07-.32-4.32-.33-6.01-1.94"/>
      <path class="cls-1" d="M953.91,413.84c-3.46-.75-6.83-2.36-10.49-1"/>
      <path class="cls-1" d="M1354.21,592.22h-10.49"/>
      <path class="cls-1" d="M1191.79,620.21c.05,3.5-.3,7.03.5,10.49"/>
      <path class="cls-1" d="M811.73,317.4c.08,1.5.11,3,.26,4.5.79,7.88,8.06,12.48,14.98,9.49"/>
      <path class="cls-1" d="M962.41,517.27c-.94-3.83-3.39-3.68-5.96-1.94-1.59,1.08-2.79,2.72-5.04,1.94"/>
      <path class="cls-1" d="M1256.26,487.79c-4.52-.14-6.76,3.32-9.5,6"/>
      <path class="cls-1" d="M1182.3,436.33c1.44,4.89,1.7,10,1.82,14.99.07,3.15-2.35,5.82-5.31,7.49"/>
      <path class="cls-1" d="M1305.24,537.26c1.72,3.69-.78,6.99-1,10.49"/>
      <path class="cls-1" d="M1187.3,457.31c-.36,3.83,3.44,7.66,0,11.49"/>
      <path class="cls-1" d="M1122.33,498.28h10"/>
      <path class="cls-1" d="M1166.31,622.2c-3.4-1.23-6.67.14-10,.5"/>
      <path class="cls-1" d="M883.94,372.37c-2.03,3.1-1.45,6.6-1.5,9.99"/>
      <path class="cls-1" d="M1044.37,359.38c.5,3.33,1,6.66,1.5,9.99"/>
      <path class="cls-1" d="M916.93,502.28c-1.4,4.79-1.9,5.05-7.5,4"/>
      <path class="cls-1" d="M1364.21,578.23c-1.17,3.16-2.09,6.45-3.56,9.47-2.25,4.63-2.01,8.59,2.06,12.02"/>
      <path class="cls-1" d="M1033.87,360.37c.67,3.33,1.33,6.66,2,9.99"/>
      <path class="cls-1" d="M791.49,450.32c-3.24-1.84-5.57-5.51-10-5"/>
      <path class="cls-1" d="M1379.2,670.17c-1.46-3.99-6.79-3.3-8.5-7"/>
      <path class="cls-1" d="M1023.38,420.34c-.54,3.89-.36,7.91-2.47,11.51-1.59,2.72-.06,4.73,1.97,6.48"/>
      <path class="cls-1" d="M1219.78,492.29c-3.29-.28-6.42.4-9.5,1.5"/>
      <path class="cls-1" d="M1127.33,401.35c.46,4.46,4.53,6.1,6.97,9.03.7-.7,1.36-1.36,2.09-2.09-2.02-2.31-4.04-4.62-6.06-6.94"/>
      <path class="cls-1" d="M1100.34,459.31c-2.85.13-6.11-.78-7.5,3"/>
      <path class="cls-1" d="M1106.84,522.77c4.25,2.33,8.24,5.28,13.5,5.04,2.03-.09,3.18,1.69,4.5,2.95"/>
      <path class="cls-1" d="M971.9,456.31c-.23,5.7,5.68,7.57,7.5,11.99"/>
      <path class="cls-1" d="M958.91,351.88c-.67,1-1.2,2.12-2.02,2.98-5.08,5.36-5.21,5.45.06,10.47,3.52,3.35,3.08,8.12,4.89,12.06.04.09-.93.64-1.43.97"/>
      <path class="cls-1" d="M1076.35,470.3c2.89,1.32,6.97-.91,9,3,2.07-1.49,5.21-1.23,6.5-4"/>
      <path class="cls-1" d="M1115.33,512.28c1.84,3.95,5.38,1.13,8,2"/>
      <path class="cls-1" d="M1154.81,430.33c2.61,2.72,6.08,4.58,8,7.99"/>
      <path class="cls-1" d="M1037.37,462.81c-2.87.04-5.79-.37-8.5,1"/>
      <path class="cls-1" d="M1296.49,631.7c-3.03-4.32-5.05-4.79-8.69-1.44-2.31,2.12-5.37,1.88-7.51,1.64-3.04-.35-5.55.11-8,1.36-2.47,1.26-5.03,1.48-7.51.87-4.94-1.2-9.67.68-14.51.57"/>
      <path class="cls-1" d="M946.91,308.41c-2.02,4.41,2.85,5.58,4,8.49"/>
      <path class="cls-1" d="M923.92,502.78c-.82,3.45-3.23,5.19-6.5,6"/>
      <path class="cls-1" d="M1239.77,598.72c2.88,4.91,5.87,9.71,11.49,11.99"/>
      <path class="cls-1" d="M1058.36,354.38c-.74-1.82-2.36-1.23-3.48-.94-5.1,1.33-10.23,2.29-15.51,2.44"/>
      <path class="cls-1" d="M1230.27,506.03c2.28,2.17,1.86,2.14,1.61,5.75-.29,4.17-3.68,7.59-2.61,11.98"/>
      <path class="cls-1" d="M793.99,260.94c-1.93,2.84-5.68,2.78-8,5"/>
      <path class="cls-1" d="M1257.76,606.71c.47,3.42,2.42,6.3,3.5,9.49"/>
      <path class="cls-1" d="M1233.27,541.76c-2.82-.4-5.85.93-8.5-1"/>
      <path class="cls-1" d="M676.05,371.37c.23,3.7,2.72,6.92,1.66,11.04-.62,2.39-1.03,3.65-3.66,3.48-2.69-.18-4.73,2.32-7.49,1.97"/>
      <path class="cls-1" d="M1227.78,544.26c1.52,1.71,2.95,2.93,2.77,6.01-.25,4.23,3.98,6.31,7.22,8.48"/>
      <path class="cls-1" d="M868.45,390.36c-1.45,2.77.31,5.33.5,7.99"/>
      <path class="cls-1" d="M775.5,205.48c2.48-2.09,4.92-1.61,7.5,1.5"/>
      <path class="cls-1" d="M1113.33,518.27c2.5,2.83,5.17,2.93,8,.5"/>
      <path class="cls-1" d="M935.42,413.84c-2.9,1.69-2.83,4.76-3.5,7.5"/>
      <path class="cls-1" d="M1286.75,517.77c-3.21,2.19-6.73,3.39-10.46,1.92-2.03-.8-4.21.52-6.03-.92"/>
      <path class="cls-1" d="M1336.72,672.67c-3.17-.02-4.38-4.5-8-3.5"/>
      <path class="cls-1" d="M1370.71,612.21c1.39,2.88-1.16,5.27-1,7.99"/>
      <path class="cls-1" d="M660.05,377.36c.59,2.64-1.21,5.43.5,7.99"/>
      <path class="cls-1" d="M915.93,416.84c1.94,3.57,5.93,3.78,9,5.5"/>
      <path class="cls-1" d="M1023.88,571.74c1.82,2.23,5.93.46,7,4"/>
      <path class="cls-1" d="M1272.75,501.78c-1.27,2.19-1.57,5.56-5.5,4.5"/>
      <path class="cls-1" d="M1201.29,568.74c4.41-1.88,8.61,1.79,12.99.5"/>
      <path class="cls-1" d="M1341.72,580.73c-2.75.37-5.03,1.92-7.5,3"/>
      <path class="cls-1" d="M1333.72,542.76c1.5,3.6,1.85,6.67-2.98,8.05-1.88.54-2.9,2.39-4.01,3.94"/>
      <path class="cls-1" d="M1229.78,555.25c-.93,3.99-4.65,5.67-7,8.49"/>
      <path class="cls-1" d="M1283.25,504.28c.67.83,1.75,1.58,1.93,2.51,1.03,5.26,4.94,5.5,9.06,5.48"/>
      <path class="cls-1" d="M1237.77,543.76c2.5.67,5,1.33,7.5,2"/>
      <path class="cls-1" d="M1287.25,671.17c.6-3.11,1.67-6.37-2.71-8.08-4.92,2.18-10.44,2.45-15.78,3.58"/>
      <path class="cls-1" d="M1290.25,667.67c1.92,2.43,5.66,1.42,7.5,4"/>
      <path class="cls-1" d="M1118.83,470.8c-2.62-.21-4.64-2.69-7.5-2"/>
      <path class="cls-1" d="M1363.21,592.22c2.5.83,5,1.67,7.5,2.5"/>
      <path class="cls-1" d="M1225.78,493.79c1.52,2.41,1.26,4.94.5,7.5"/>
      <path class="cls-1" d="M1087.34,396.35c1.25-1.24,3.48.44,4.97-2.4,2.59,4.7,4.57,8.94,3.41,13.87-.36,1.52.07,2.34.55,3.55.69,1.71,1.39,3.49,1.08,5.47-1.14,7.35,2.29,14.6.53,22-.17.7.24,1.69,1.45,1.49"/>
      <path class="cls-1" d="M1299.24,605.22c-.77,4.38-3.08,3.15-5.5,1.5"/>
      <path class="cls-1" d="M1319.23,536.26c-5.11-1.32-9.24-5.04-14.5-5.97-1.63-.29-3.36-1.16-4.99-.02-3.05,2.14-6.49,2.32-10,1.97-2.34-.24-2.66,1.64-3.58,3.05-1.92-.48-3.92-1.06-5.92-.03,0,.17-.06.37.01.5.31.52.66,1.01.99,1.51"/>
      <path class="cls-1" d="M1422.18,621.2c-2.6-1.34-5.02.03-7.5.5"/>
      <path class="cls-1" d="M1197.79,631.7c.25,2.51,2.19,4.79,1,7.5"/>
      <path class="cls-1" d="M1234.77,633.7c2.05-3.14,5.63-3.03,7.86-1.76,2.5,1.43,4.92,2.29,7.63,2.76"/>
      <path class="cls-1" d="M702.03,396.85c-2.5,1.55-5-.59-7.5,0"/>
      <path class="cls-1" d="M1295.24,620.71c-2.94,1.58-2.54,4.35-2.5,7"/>
      <path class="cls-1" d="M924.92,397.85c1.33,3.33,4.07,3.39,7,3"/>
      <path class="cls-1" d="M972.4,459.31c-.95-.23-1.77,1-1.95.91-6.83-3.45-12.62,2.21-19.03,2.09"/>
      <path class="cls-1" d="M907.93,456.31c-.32,2.37,2.27,4.53.5,7"/>
      <path class="cls-1" d="M933.92,391.85c.51,3.26-.88,6.1-2,8.99"/>
      <path class="cls-1" d="M922.43,396.85c-4,1.4-7.99-.5-12-.02-3.38.41-6.3,1.04-7.59,4.98-.97,2.95-2.75,5.66-4.9,8.03"/>
      <path class="cls-1" d="M1152.31,498.28c3.71.89,5.84,4.52,9.83,5.52,1.74-1.24,3.7-2.63,5.66-4.02"/>
      <path class="cls-1" d="M1146.32,513.28c-2.51-.31-3.66,5.71-7,1.5"/>
      <path class="cls-1" d="M1273.25,609.71c-.67,1.99-2.27,2.14-4,1.99-1.67-.14-3.33-.33-5-.49"/>
      <path class="cls-1" d="M994.89,379.36c.53,2.45-.85,4.64-1,7"/>
      <path class="cls-1" d="M759.01,414.34c-.17,2.33-.33,4.66-.5,7"/>
      <path class="cls-1" d="M1308.24,524.27c-1.26-3.57-5.15-2.69-7.65-4.25-4.25-2.65-5.34,2.83-7.84,4.75"/>
      <path class="cls-1" d="M1256.26,544.75c-2.46-.53-4.64.85-7,1"/>
      <path class="cls-1" d="M854.46,336.39c-1.84,1.27-4.52-2.44-6,1"/>
      <path class="cls-1" d="M1385.7,658.68c-.67,1.83-1.43,3.64-1.97,5.5-.68,2.35-2.13,1.45-3.52.99"/>
      <path class="cls-1" d="M977.4,391.85c-2.36.15-4.54,1.53-7,1"/>
      <path class="cls-1" d="M1144.82,546.25c.17,2.33.33,4.66.5,7"/>
      <path class="cls-1" d="M969.9,379.36c-.68,1.33-.72,2.66-.07,3.87,2.58.55,5.07,1.09,7.56,1.62"/>
      <path class="cls-1" d="M1136.82,611.71c-2.66,2-1.3,4.57-1,7"/>
      <path class="cls-1" d="M1028.37,541.76c-2.33.14-4.55,1.87-7,.5"/>
      <path class="cls-1" d="M826.47,370.37c-.17,2.33-.33,4.66-.5,7"/>
      <path class="cls-1" d="M1421.18,664.18c-1.49-2.04-3.72-2.8-6-3.5"/>
      <path class="cls-1" d="M1258.26,620.71c-.5,4,2.5,7.99,0,11.99"/>
      <path class="cls-1" d="M938.42,388.36c-3.86-3.48-7.1-.47-10.49,1"/>
      <path class="cls-1" d="M937.42,391.35c-.03-1.79,1-2.81,2.7-3.74,3.84,3.22,2,8.91,5.3,12.23"/>
      <path class="cls-1" d="M1082.35,551.75c-2.16,1.29-3.94,2.89-4.5,5.5"/>
      <path class="cls-1" d="M1108.83,548.75c-.17,2.17-.33,4.33-.5,6.5"/>
      <path class="cls-1" d="M1222.78,649.69c-.17,2.17.44,4.39-.5,6.5"/>
      <path class="cls-1" d="M1328.73,541.76c-1.98,1.57-4.3.86-6.5,1"/>
      <path class="cls-1" d="M1427.68,654.18c.47,2.17,1.35,4.33,0,6.5"/>
      <path class="cls-1" d="M1309.74,611.71c-2.15.43-4.22,1.4-6.5,1"/>
      <path class="cls-1" d="M1250.27,483.29c-.81,3.08-3.31,2.45-5.5,2.5"/>
      <path class="cls-1" d="M943.42,402.85c-.67,1.17-2.17,2.65-1.86,3.45,2.02,5.25-2.16,5.65-5.13,7.05"/>
      <path class="cls-1" d="M1067.35,438.32c-2.27.98-4.67.3-7,.5,0-.17-.03-.34,0-.5.05-.18.16-.34.24-.5"/>
      <path class="cls-1" d="M921.93,434.83c-.43,2.15-1.4,4.22-1,6.5"/>
      <path class="cls-1" d="M1152.31,491.29c1.36,4.95-2.51,7.85-4.46,11.51-.1.19.22.78.49.94.21.13.64-.13.97-.21"/>
      <path class="cls-1" d="M949.41,317.9c3.65-.7,4.75,2.29,5.84,4.57.53,1.11,1.1,2.28,1.65,3.42"/>
      <path class="cls-1" d="M924.42,376.36c-1.24.02-3.1-.13-2.8,1.46.16.81-.68,2.57,1.27,3.13,1.14.33,2.03,1.57,3.03,2.41"/>
      <path class="cls-1" d="M1290.25,654.18c1.26,3.36-.5,7.93,4,9.99"/>
      <path class="cls-1" d="M1290.25,612.71c3.45,2.74,6.88,5.43,11.48,6.07.91.13,1.68,1.25,2.51,1.92"/>
      <path class="cls-1" d="M675.55,386.36v6"/>
      <path class="cls-1" d="M916.43,404.35c-2.43-.21-3.56,2.72-6,2.5"/>
      <path class="cls-1" d="M925.42,408.34c-.09,2,.37,4.06-.5,6"/>
      <path class="cls-1" d="M963.91,383.86c2.55,3.64,3.69,7.53,2.56,12.01-.27,1.06.27,2.32.44,3.48"/>
      <path class="cls-1" d="M1137.32,476.8c-.17,1.83-2.06,2.19-3.02,2.37-4.33.82-3.87,3.2-2.47,6.13"/>
      <path class="cls-1" d="M1013.88,431.83l6,1.5"/>
      <path class="cls-1" d="M729.52,287.42c2.11.57,4.3.95,6,2.5"/>
      <path class="cls-1" d="M941.42,414.34c-1.63,2.15-.46,4.06.5,6"/>
      <path class="cls-1" d="M1035.37,428.33c-2.23-.43-4.06.77-6,1.5"/>
      <path class="cls-1" d="M904.43,387.36c1.02,2.64,2.31,4.4,5,1.5"/>
      <path class="cls-1" d="M1249.27,505.78c3.66-1.83,7.15-4.35,11.03-5.34,6.18-1.57,12.43-1.03,17.95,2.84"/>
      <path class="cls-1" d="M1358.21,575.23c-1.83-.24-3.74.52-5.5-.5"/>
      <path class="cls-1" d="M1119.83,485.79c-1.77-.84-3.66-.39-5.5-.5"/>
      <path class="cls-1" d="M1270.26,530.26c-2.95.53-4.77,3.6-8,3.5"/>
      <path class="cls-1" d="M909.43,324.9c-1.83.67-3.66,1.33-5.5,2"/>
      <path class="cls-1" d="M1088.84,472.8c-.42,2.08,2.47,3.26,1.5,5.5"/>
      <path class="cls-1" d="M1203.29,442.82c-.73,1.83-.73,3.66,0,5.5"/>
      <path class="cls-1" d="M852.96,323.9c-1.83.33-3.66.67-5.5,1"/>
      <path class="cls-1" d="M739.51,215.47c-1.83.24-3.74-.52-5.5.5"/>
      <path class="cls-1" d="M745.01,222.96c-2.55-.1-3.44,2.18-5,3.5"/>
      <path class="cls-1" d="M1217.78,649.69v5.5"/>
      <path class="cls-1" d="M961.91,393.35c.34,3.07-.18,6.05-1,8.99"/>
      <path class="cls-1" d="M1080.85,581.73c-3.21,3.62-8.48,3.43-11.99,6.5"/>
      <path class="cls-1" d="M1075.35,401.85c4.06,2.25,7.85,5.89,12.99,2.5"/>
      <path class="cls-1" d="M1070.35,359.38c-2.33.86-4.94,1.21-6.5,3.5"/>
      <path class="cls-1" d="M901.94,376.86c-1.83,2.25-3.66-.22-5.5,0"/>
      <path class="cls-1" d="M653.56,342.39c-1.79-1.06-3.39-.26-5,.5"/>
      <path class="cls-1" d="M1064.36,356.38c-5.05-1.53-3.45,2.92-4.5,5"/>
      <path class="cls-1" d="M1070.35,372.87c1.46,2.2,3.35.2,5,.5"/>
      <path class="cls-1" d="M938.42,396.35c1.62.78,2.86,2.51,5,2"/>
      <path class="cls-1" d="M1078.85,463.81c3.38.78,6.8,2.44,10-.5"/>
      <path class="cls-1" d="M1091.84,473.3c1.19,1.55,3.59,2.38,3,5"/>
      <path class="cls-1" d="M975.9,509.78c-.83,1.33-2.12,2.57-2.41,4.02-.67,3.33-3.62,3.1-4.97,2.29-2.25-1.34-3.78-.2-5.61.19"/>
      <path class="cls-1" d="M1262.76,528.77c-.85-1.77-.38-3.66-.51-5.49,1.67.75,3.34.7,5,0"/>
      <path class="cls-1" d="M1278.25,536.76c-2.32,3.29-6.47,2.71-9.5,4.5"/>
      <path class="cls-1" d="M1083.35,554.25c.41,1.72,1.31,3.5-.5,5"/>
      <path class="cls-1" d="M1294.24,557.75c.46,1.95-.69,3.43-1.5,5"/>
      <path class="cls-1" d="M1209.79,613.21c-.17,1.67-.33,3.33-.5,5"/>
      <path class="cls-1" d="M1321.23,549.25c-.43,1.31.97,3.07-1,4"/>
      <path class="cls-1" d="M1312.73,534.76c.17,1.5.33,3,.5,4.5"/>
      <path class="cls-1" d="M1277.75,515.27c.58,3.31,1.14,6.62.5,9.99"/>
      <path class="cls-1" d="M970.4,516.77c.17,1.5.33,3,.5,4.5"/>
      <path class="cls-1" d="M1175.8,574.74c.33,1.5.67,3,1,4.5"/>
      <path class="cls-1" d="M1424.68,609.21c1.19.66,1.64,1.66,1.51,3-.23,2.3.71,4.09,2.49,5.5"/>
      <path class="cls-1" d="M1237.27,473.3c-1.68,2.29-2.38,5.42-5.5,6.5"/>
      <path class="cls-1" d="M1119.83,455.31c-1.06,1.22-.23,2.68-.5,4"/>
      <path class="cls-1" d="M966.9,507.78c.83,1.17,1.67,2.33,2.5,3.5"/>
      <path class="cls-1" d="M951.41,321.4c1.56-.02,1.5,2.79,3.5,2"/>
      <path class="cls-1" d="M1043.87,474.3c.17,1.33.33,2.66.5,4"/>
      <path class="cls-1" d="M932.92,400.85c3.09,1.13,5.05,2.87,3.5,6.5"/>
      <path class="cls-1" d="M1155.31,554.75c-.37,1.59-1.08,2.76-3,2.5"/>
      <path class="cls-1" d="M896.94,393.85c1.16,1.5-.52,4.42,2.5,5"/>
      <path class="cls-1" d="M903.43,509.28c2.69.35,1.66-1.78,2.33-2.98-3.11.54-5.7-.39-8.33-1.01"/>
      <path class="cls-1" d="M964.9,507.78c-.43,1.14-1.49,2.1-1,3.5"/>
      <path class="cls-1" d="M1056.36,415.34l-3,6"/>
      <path class="cls-1" d="M1248.77,659.68c.17,1.17.33,2.33.5,3.5"/>
      <path class="cls-1" d="M1070.35,579.23c.83,1.17,1.67,2.33,2.5,3.5"/>
      <path class="cls-1" d="M1268.76,615.71c-.94,1.04-2.03,1.7-3.5,1.5"/>
      <path class="cls-1" d="M1028.37,413.84c-2.37,1.31-2.07,4.4-4,6"/>
      <path class="cls-1" d="M1232.77,582.73c3.15,1.83.35,3.66,0,5.5"/>
      <path class="cls-1" d="M1116.33,594.22c-2.11-.21-4.81.86-5.5-2.5"/>
      <path class="cls-1" d="M1258.76,508.28c-.6,2.29.95,3.8,2,5.5"/>
      <path class="cls-1" d="M1112.83,491.79c-3.74-.81-6.1,2.73-9.5,3"/>
      <path class="cls-1" d="M793.99,271.93c.82.5.4,1.32.5,2"/>
    </g>
  </g>
</svg>